{
	"asset":{
		"generator":"Khronos glTF Blender I/O v4.0.44",
		"version":"2.0"
	},
	"scene":0,
	"scenes":[
		{
			"name":"Scene",
			"nodes":[
				0
			]
		}
	],
	"nodes":[
		{
			"mesh":0,
			"name":"Corner_ExteriorWide_Brick"
		}
	],
	"materials":[
		{
			"doubleSided":true,
			"name":"MI_RockTrim",
			"normalTexture":{
				"index":0
			},
			"pbrMetallicRoughness":{
				"baseColorTexture":{
					"index":1
				},
				"metallicRoughnessTexture":{
					"index":2
				}
			}
		}
	],
	"meshes":[
		{
			"name":"Cube.017_Retopology.018",
			"primitives":[
				{
					"attributes":{
						"POSITION":0,
						"NORMAL":1,
						"TEXCOORD_0":2
					},
					"indices":3,
					"material":0
				}
			]
		}
	],
	"textures":[
		{
			"sampler":0,
			"source":0
		},
		{
			"sampler":0,
			"source":1
		},
		{
			"sampler":0,
			"source":2
		}
	],
	"images":[
		{
			"mimeType":"image/png",
			"name":"T_RockTrim_Normal",
			"uri":"T_RockTrim_Normal.png"
		},
		{
			"mimeType":"image/png",
			"name":"T_RockTrim_BaseColor",
			"uri":"T_RockTrim_BaseColor.png"
		},
		{
			"mimeType":"image/png",
			"name":"T_RockTrim_ORM",
			"uri":"T_RockTrim_ORM.png"
		}
	],
	"accessors":[
		{
			"bufferView":0,
			"componentType":5126,
			"count":2249,
			"max":[
				0.2224901169538498,
				3.0242919921875,
				0.5342104434967041
			],
			"min":[
				-0.4898150563240051,
				-0.01851489581167698,
				-0.22221100330352783
			],
			"type":"VEC3"
		},
		{
			"bufferView":1,
			"componentType":5126,
			"count":2249,
			"type":"VEC3"
		},
		{
			"bufferView":2,
			"componentType":5126,
			"count":2249,
			"type":"VEC2"
		},
		{
			"bufferView":3,
			"componentType":5123,
			"count":8646,
			"type":"SCALAR"
		}
	],
	"bufferViews":[
		{
			"buffer":0,
			"byteLength":26988,
			"byteOffset":0,
			"target":34962
		},
		{
			"buffer":0,
			"byteLength":26988,
			"byteOffset":26988,
			"target":34962
		},
		{
			"buffer":0,
			"byteLength":17992,
			"byteOffset":53976,
			"target":34962
		},
		{
			"buffer":0,
			"byteLength":17292,
			"byteOffset":71968,
			"target":34963
		}
	],
	"samplers":[
		{
			"magFilter":9729,
			"minFilter":9987
		}
	],
	"buffers":[
		{
			"byteLength":89260,
			"uri":"Corner_ExteriorWide_Brick.bin"
		}
	]
}
