{
	"asset":{
		"generator":"Khronos glTF Blender I/O v4.0.44",
		"version":"2.0"
	},
	"scene":0,
	"scenes":[
		{
			"name":"Scene",
			"nodes":[
				0
			]
		}
	],
	"nodes":[
		{
			"mesh":0,
			"name":"Corner_Exterior_Brick"
		}
	],
	"materials":[
		{
			"doubleSided":true,
			"name":"MI_RockTrim",
			"normalTexture":{
				"index":0
			},
			"pbrMetallicRoughness":{
				"baseColorTexture":{
					"index":1
				},
				"metallicRoughnessTexture":{
					"index":2
				}
			}
		}
	],
	"meshes":[
		{
			"name":"Cube.017_Retopology.059",
			"primitives":[
				{
					"attributes":{
						"POSITION":0,
						"NORMAL":1,
						"TEXCOORD_0":2
					},
					"indices":3,
					"material":0
				}
			]
		}
	],
	"textures":[
		{
			"sampler":0,
			"source":0
		},
		{
			"sampler":0,
			"source":1
		},
		{
			"sampler":0,
			"source":2
		}
	],
	"images":[
		{
			"mimeType":"image/png",
			"name":"T_RockTrim_Normal",
			"uri":"T_RockTrim_Normal.png"
		},
		{
			"mimeType":"image/png",
			"name":"T_RockTrim_BaseColor",
			"uri":"T_RockTrim_BaseColor.png"
		},
		{
			"mimeType":"image/png",
			"name":"T_RockTrim_ORM",
			"uri":"T_RockTrim_ORM.png"
		}
	],
	"accessors":[
		{
			"bufferView":0,
			"componentType":5126,
			"count":2424,
			"max":[
				0.17772896587848663,
				3.008535861968994,
				0.37669962644577026
			],
			"min":[
				-0.35294169187545776,
				-0.007091104984283447,
				-0.19913415610790253
			],
			"type":"VEC3"
		},
		{
			"bufferView":1,
			"componentType":5126,
			"count":2424,
			"type":"VEC3"
		},
		{
			"bufferView":2,
			"componentType":5126,
			"count":2424,
			"type":"VEC2"
		},
		{
			"bufferView":3,
			"componentType":5123,
			"count":9306,
			"type":"SCALAR"
		}
	],
	"bufferViews":[
		{
			"buffer":0,
			"byteLength":29088,
			"byteOffset":0,
			"target":34962
		},
		{
			"buffer":0,
			"byteLength":29088,
			"byteOffset":29088,
			"target":34962
		},
		{
			"buffer":0,
			"byteLength":19392,
			"byteOffset":58176,
			"target":34962
		},
		{
			"buffer":0,
			"byteLength":18612,
			"byteOffset":77568,
			"target":34963
		}
	],
	"samplers":[
		{
			"magFilter":9729,
			"minFilter":9987
		}
	],
	"buffers":[
		{
			"byteLength":96180,
			"uri":"Corner_Exterior_Brick.bin"
		}
	]
}
