{
	"asset":{
		"generator":"Khronos glTF Blender I/O v4.0.44",
		"version":"2.0"
	},
	"scene":0,
	"scenes":[
		{
			"name":"Scene",
			"nodes":[
				0
			]
		}
	],
	"nodes":[
		{
			"mesh":0,
			"name":"Door_1_Round"
		}
	],
	"materials":[
		{
			"doubleSided":true,
			"name":"MI_WoodTrim",
			"normalTexture":{
				"index":0
			},
			"pbrMetallicRoughness":{
				"baseColorTexture":{
					"index":1
				},
				"metallicFactor":0,
				"metallicRoughnessTexture":{
					"index":2
				}
			}
		},
		{
			"alphaMode":"BLEND",
			"doubleSided":true,
			"name":"MI_WindowGlass",
			"pbrMetallicRoughness":{
				"baseColorFactor":[
					0.800000011920929,
					0.800000011920929,
					0.800000011920929,
					0.09545451402664185
				],
				"metallicFactor":0,
				"roughnessFactor":0.5
			}
		}
	],
	"meshes":[
		{
			"name":"Cube.235",
			"primitives":[
				{
					"attributes":{
						"POSITION":0,
						"NORMAL":1,
						"TEXCOORD_0":2,
						"TEXCOORD_1":3
					},
					"indices":4,
					"material":0
				},
				{
					"attributes":{
						"POSITION":5,
						"NORMAL":6,
						"TEXCOORD_0":7,
						"TEXCOORD_1":8
					},
					"indices":9,
					"material":1
				}
			]
		}
	],
	"textures":[
		{
			"sampler":0,
			"source":0
		},
		{
			"sampler":0,
			"source":1
		},
		{
			"sampler":0,
			"source":2
		}
	],
	"images":[
		{
			"mimeType":"image/png",
			"name":"T_WoodTrim_Normal",
			"uri":"T_WoodTrim_Normal.png"
		},
		{
			"mimeType":"image/png",
			"name":"T_WoodTrim_BaseColor",
			"uri":"T_WoodTrim_BaseColor.png"
		},
		{
			"mimeType":"image/png",
			"name":"T_WoodTrim_Roughness",
			"uri":"T_WoodTrim_Roughness.png"
		}
	],
	"accessors":[
		{
			"bufferView":0,
			"componentType":5126,
			"count":744,
			"max":[
				1.0737497806549072,
				2.3513262271881104,
				0.06314271688461304
			],
			"min":[
				-0.04626310616731644,
				0.033089637756347656,
				-0.05755755677819252
			],
			"type":"VEC3"
		},
		{
			"bufferView":1,
			"componentType":5126,
			"count":744,
			"type":"VEC3"
		},
		{
			"bufferView":2,
			"componentType":5126,
			"count":744,
			"type":"VEC2"
		},
		{
			"bufferView":3,
			"componentType":5126,
			"count":744,
			"type":"VEC2"
		},
		{
			"bufferView":4,
			"componentType":5123,
			"count":1362,
			"type":"SCALAR"
		},
		{
			"bufferView":5,
			"componentType":5126,
			"count":28,
			"max":[
				0.8667700886726379,
				1.7624019384384155,
				0.0312458835542202
			],
			"min":[
				0.1617247760295868,
				1.3117259740829468,
				0.031245503574609756
			],
			"type":"VEC3"
		},
		{
			"bufferView":6,
			"componentType":5126,
			"count":28,
			"type":"VEC3"
		},
		{
			"bufferView":7,
			"componentType":5126,
			"count":28,
			"type":"VEC2"
		},
		{
			"bufferView":8,
			"componentType":5126,
			"count":28,
			"type":"VEC2"
		},
		{
			"bufferView":9,
			"componentType":5123,
			"count":48,
			"type":"SCALAR"
		}
	],
	"bufferViews":[
		{
			"buffer":0,
			"byteLength":8928,
			"byteOffset":0,
			"target":34962
		},
		{
			"buffer":0,
			"byteLength":8928,
			"byteOffset":8928,
			"target":34962
		},
		{
			"buffer":0,
			"byteLength":5952,
			"byteOffset":17856,
			"target":34962
		},
		{
			"buffer":0,
			"byteLength":5952,
			"byteOffset":23808,
			"target":34962
		},
		{
			"buffer":0,
			"byteLength":2724,
			"byteOffset":29760,
			"target":34963
		},
		{
			"buffer":0,
			"byteLength":336,
			"byteOffset":32484,
			"target":34962
		},
		{
			"buffer":0,
			"byteLength":336,
			"byteOffset":32820,
			"target":34962
		},
		{
			"buffer":0,
			"byteLength":224,
			"byteOffset":33156,
			"target":34962
		},
		{
			"buffer":0,
			"byteLength":224,
			"byteOffset":33380,
			"target":34962
		},
		{
			"buffer":0,
			"byteLength":96,
			"byteOffset":33604,
			"target":34963
		}
	],
	"samplers":[
		{
			"magFilter":9729,
			"minFilter":9987
		}
	],
	"buffers":[
		{
			"byteLength":33700,
			"uri":"Door_1_Round.bin"
		}
	]
}
