{
	"asset":{
		"generator":"Khronos glTF Blender I/O v4.0.44",
		"version":"2.0"
	},
	"scene":0,
	"scenes":[
		{
			"name":"Scene",
			"nodes":[
				0
			]
		}
	],
	"nodes":[
		{
			"mesh":0,
			"name":"Door_1_Flat"
		}
	],
	"materials":[
		{
			"doubleSided":true,
			"name":"MI_WoodTrim",
			"normalTexture":{
				"index":0
			},
			"pbrMetallicRoughness":{
				"baseColorTexture":{
					"index":1
				},
				"metallicFactor":0,
				"metallicRoughnessTexture":{
					"index":2
				}
			}
		},
		{
			"alphaMode":"BLEND",
			"doubleSided":true,
			"name":"MI_WindowGlass",
			"pbrMetallicRoughness":{
				"baseColorFactor":[
					0.800000011920929,
					0.800000011920929,
					0.800000011920929,
					0.09545451402664185
				],
				"metallicFactor":0,
				"roughnessFactor":0.5
			}
		}
	],
	"meshes":[
		{
			"name":"Cube.054",
			"primitives":[
				{
					"attributes":{
						"POSITION":0,
						"NORMAL":1,
						"TEXCOORD_0":2,
						"TEXCOORD_1":3
					},
					"indices":4,
					"material":0
				},
				{
					"attributes":{
						"POSITION":5,
						"NORMAL":6,
						"TEXCOORD_0":7,
						"TEXCOORD_1":8
					},
					"indices":9,
					"material":1
				}
			]
		}
	],
	"textures":[
		{
			"sampler":0,
			"source":0
		},
		{
			"sampler":0,
			"source":1
		},
		{
			"sampler":0,
			"source":2
		}
	],
	"images":[
		{
			"mimeType":"image/png",
			"name":"T_WoodTrim_Normal",
			"uri":"T_WoodTrim_Normal.png"
		},
		{
			"mimeType":"image/png",
			"name":"T_WoodTrim_BaseColor",
			"uri":"T_WoodTrim_BaseColor.png"
		},
		{
			"mimeType":"image/png",
			"name":"T_WoodTrim_Roughness",
			"uri":"T_WoodTrim_Roughness.png"
		}
	],
	"accessors":[
		{
			"bufferView":0,
			"componentType":5126,
			"count":548,
			"max":[
				1.0716030597686768,
				2.1349449157714844,
				0.06314271688461304
			],
			"min":[
				-0.04626310616731644,
				0.0352252721786499,
				-0.05755755677819252
			],
			"type":"VEC3"
		},
		{
			"bufferView":1,
			"componentType":5126,
			"count":548,
			"type":"VEC3"
		},
		{
			"bufferView":2,
			"componentType":5126,
			"count":548,
			"type":"VEC2"
		},
		{
			"bufferView":3,
			"componentType":5126,
			"count":548,
			"type":"VEC2"
		},
		{
			"bufferView":4,
			"componentType":5123,
			"count":894,
			"type":"SCALAR"
		},
		{
			"bufferView":5,
			"componentType":5126,
			"count":28,
			"max":[
				0.8667700886726379,
				1.7645375728607178,
				0.0312458835542202
			],
			"min":[
				0.1617247760295868,
				1.313861608505249,
				0.031245503574609756
			],
			"type":"VEC3"
		},
		{
			"bufferView":6,
			"componentType":5126,
			"count":28,
			"type":"VEC3"
		},
		{
			"bufferView":7,
			"componentType":5126,
			"count":28,
			"type":"VEC2"
		},
		{
			"bufferView":8,
			"componentType":5126,
			"count":28,
			"type":"VEC2"
		},
		{
			"bufferView":9,
			"componentType":5123,
			"count":48,
			"type":"SCALAR"
		}
	],
	"bufferViews":[
		{
			"buffer":0,
			"byteLength":6576,
			"byteOffset":0,
			"target":34962
		},
		{
			"buffer":0,
			"byteLength":6576,
			"byteOffset":6576,
			"target":34962
		},
		{
			"buffer":0,
			"byteLength":4384,
			"byteOffset":13152,
			"target":34962
		},
		{
			"buffer":0,
			"byteLength":4384,
			"byteOffset":17536,
			"target":34962
		},
		{
			"buffer":0,
			"byteLength":1788,
			"byteOffset":21920,
			"target":34963
		},
		{
			"buffer":0,
			"byteLength":336,
			"byteOffset":23708,
			"target":34962
		},
		{
			"buffer":0,
			"byteLength":336,
			"byteOffset":24044,
			"target":34962
		},
		{
			"buffer":0,
			"byteLength":224,
			"byteOffset":24380,
			"target":34962
		},
		{
			"buffer":0,
			"byteLength":224,
			"byteOffset":24604,
			"target":34962
		},
		{
			"buffer":0,
			"byteLength":96,
			"byteOffset":24828,
			"target":34963
		}
	],
	"samplers":[
		{
			"magFilter":9729,
			"minFilter":9987
		}
	],
	"buffers":[
		{
			"byteLength":24924,
			"uri":"Door_1_Flat.bin"
		}
	]
}
