{
	"asset":{
		"generator":"Khronos glTF Blender I/O v4.0.44",
		"version":"2.0"
	},
	"scene":0,
	"scenes":[
		{
			"name":"Scene",
			"nodes":[
				0
			]
		}
	],
	"nodes":[
		{
			"mesh":0,
			"name":"Door_2_Round"
		}
	],
	"materials":[
		{
			"doubleSided":true,
			"name":"MI_WoodTrim_Wear",
			"normalTexture":{
				"index":0
			},
			"pbrMetallicRoughness":{
				"baseColorTexture":{
					"index":1
				},
				"metallicFactor":0,
				"metallicRoughnessTexture":{
					"index":2
				}
			}
		},
		{
			"doubleSided":true,
			"name":"MI_MetalOrnaments",
			"pbrMetallicRoughness":{
				"baseColorTexture":{
					"index":3
				},
				"metallicRoughnessTexture":{
					"index":4
				}
			}
		}
	],
	"meshes":[
		{
			"name":"Cube.237",
			"primitives":[
				{
					"attributes":{
						"POSITION":0,
						"NORMAL":1,
						"TEXCOORD_0":2,
						"TEXCOORD_1":3
					},
					"indices":4,
					"material":0
				},
				{
					"attributes":{
						"POSITION":5,
						"NORMAL":6,
						"TEXCOORD_0":7,
						"TEXCOORD_1":8
					},
					"indices":9,
					"material":1
				}
			]
		}
	],
	"textures":[
		{
			"sampler":0,
			"source":0
		},
		{
			"sampler":0,
			"source":1
		},
		{
			"sampler":0,
			"source":2
		},
		{
			"sampler":0,
			"source":3
		},
		{
			"sampler":0,
			"source":4
		}
	],
	"images":[
		{
			"mimeType":"image/png",
			"name":"T_WoodTrim_Normal",
			"uri":"T_WoodTrim_Normal.png"
		},
		{
			"mimeType":"image/png",
			"name":"T_WoodTrim_BaseColor",
			"uri":"T_WoodTrim_BaseColor.png"
		},
		{
			"mimeType":"image/png",
			"name":"T_WoodTrim_Roughness",
			"uri":"T_WoodTrim_Roughness.png"
		},
		{
			"mimeType":"image/png",
			"name":"T_MetalOrnaments_BaseColor",
			"uri":"T_MetalOrnaments_BaseColor.png"
		},
		{
			"mimeType":"image/png",
			"name":"T_MetalOrnaments_Roughness",
			"uri":"T_MetalOrnaments_Roughness.png"
		}
	],
	"accessors":[
		{
			"bufferView":0,
			"componentType":5126,
			"count":790,
			"max":[
				1.072784423828125,
				2.3558285236358643,
				0.04973819851875305
			],
			"min":[
				-0.04266441613435745,
				0.028338909149169922,
				-0.04973819851875305
			],
			"type":"VEC3"
		},
		{
			"bufferView":1,
			"componentType":5126,
			"count":790,
			"type":"VEC3"
		},
		{
			"bufferView":2,
			"componentType":5126,
			"count":790,
			"type":"VEC2"
		},
		{
			"bufferView":3,
			"componentType":5126,
			"count":790,
			"type":"VEC2"
		},
		{
			"bufferView":4,
			"componentType":5123,
			"count":1872,
			"type":"SCALAR"
		},
		{
			"bufferView":5,
			"componentType":5126,
			"count":3546,
			"max":[
				1.0376418828964233,
				2.038383722305298,
				0.12721848487854004
			],
			"min":[
				0.022681348025798798,
				0.3268890678882599,
				-0.13368189334869385
			],
			"type":"VEC3"
		},
		{
			"bufferView":6,
			"componentType":5126,
			"count":3546,
			"type":"VEC3"
		},
		{
			"bufferView":7,
			"componentType":5126,
			"count":3546,
			"type":"VEC2"
		},
		{
			"bufferView":8,
			"componentType":5126,
			"count":3546,
			"type":"VEC2"
		},
		{
			"bufferView":9,
			"componentType":5123,
			"count":16692,
			"type":"SCALAR"
		}
	],
	"bufferViews":[
		{
			"buffer":0,
			"byteLength":9480,
			"byteOffset":0,
			"target":34962
		},
		{
			"buffer":0,
			"byteLength":9480,
			"byteOffset":9480,
			"target":34962
		},
		{
			"buffer":0,
			"byteLength":6320,
			"byteOffset":18960,
			"target":34962
		},
		{
			"buffer":0,
			"byteLength":6320,
			"byteOffset":25280,
			"target":34962
		},
		{
			"buffer":0,
			"byteLength":3744,
			"byteOffset":31600,
			"target":34963
		},
		{
			"buffer":0,
			"byteLength":42552,
			"byteOffset":35344,
			"target":34962
		},
		{
			"buffer":0,
			"byteLength":42552,
			"byteOffset":77896,
			"target":34962
		},
		{
			"buffer":0,
			"byteLength":28368,
			"byteOffset":120448,
			"target":34962
		},
		{
			"buffer":0,
			"byteLength":28368,
			"byteOffset":148816,
			"target":34962
		},
		{
			"buffer":0,
			"byteLength":33384,
			"byteOffset":177184,
			"target":34963
		}
	],
	"samplers":[
		{
			"magFilter":9729,
			"minFilter":9987
		}
	],
	"buffers":[
		{
			"byteLength":210568,
			"uri":"Door_2_Round.bin"
		}
	]
}
