{
	"asset":{
		"generator":"Khronos glTF Blender I/O v4.0.44",
		"version":"2.0"
	},
	"scene":0,
	"scenes":[
		{
			"name":"Scene",
			"nodes":[
				0
			]
		}
	],
	"nodes":[
		{
			"mesh":0,
			"name":"Overhang_RoofIncline_UnevenBricks"
		}
	],
	"materials":[
		{
			"doubleSided":true,
			"name":"MI_WoodTrim",
			"normalTexture":{
				"index":0
			},
			"pbrMetallicRoughness":{
				"baseColorTexture":{
					"index":1
				},
				"metallicFactor":0,
				"metallicRoughnessTexture":{
					"index":2
				}
			}
		},
		{
			"doubleSided":true,
			"name":"MI_UnevenBrick",
			"normalTexture":{
				"index":3
			},
			"pbrMetallicRoughness":{
				"baseColorTexture":{
					"index":4
				},
				"metallicFactor":0,
				"metallicRoughnessTexture":{
					"index":5
				}
			}
		}
	],
	"meshes":[
		{
			"name":"Cube.136",
			"primitives":[
				{
					"attributes":{
						"POSITION":0,
						"NORMAL":1,
						"TEXCOORD_0":2
					},
					"indices":3,
					"material":0
				},
				{
					"attributes":{
						"POSITION":4,
						"NORMAL":5,
						"TEXCOORD_0":6
					},
					"indices":7,
					"material":1
				}
			]
		}
	],
	"textures":[
		{
			"sampler":0,
			"source":0
		},
		{
			"sampler":0,
			"source":1
		},
		{
			"sampler":0,
			"source":2
		},
		{
			"sampler":0,
			"source":3
		},
		{
			"sampler":0,
			"source":4
		},
		{
			"sampler":0,
			"source":5
		}
	],
	"images":[
		{
			"mimeType":"image/png",
			"name":"T_WoodTrim_Normal",
			"uri":"T_WoodTrim_Normal.png"
		},
		{
			"mimeType":"image/png",
			"name":"T_WoodTrim_BaseColor",
			"uri":"T_WoodTrim_BaseColor.png"
		},
		{
			"mimeType":"image/png",
			"name":"T_WoodTrim_Roughness",
			"uri":"T_WoodTrim_Roughness.png"
		},
		{
			"mimeType":"image/png",
			"name":"T_UnevenBrick_Normal",
			"uri":"T_UnevenBrick_Normal.png"
		},
		{
			"mimeType":"image/png",
			"name":"T_UnevenBrick_BaseColor",
			"uri":"T_UnevenBrick_BaseColor.png"
		},
		{
			"mimeType":"image/png",
			"name":"T_UnevenBrick_Roughness",
			"uri":"T_UnevenBrick_Roughness.png"
		}
	],
	"accessors":[
		{
			"bufferView":0,
			"componentType":5126,
			"count":68,
			"max":[
				1,
				-0.0585668720304966,
				0.4079211950302124
			],
			"min":[
				-1,
				-0.3244321346282959,
				-1.0216120481491089
			],
			"type":"VEC3"
		},
		{
			"bufferView":1,
			"componentType":5126,
			"count":68,
			"type":"VEC3"
		},
		{
			"bufferView":2,
			"componentType":5126,
			"count":68,
			"type":"VEC2"
		},
		{
			"bufferView":3,
			"componentType":5123,
			"count":102,
			"type":"SCALAR"
		},
		{
			"bufferView":4,
			"componentType":5126,
			"count":4,
			"max":[
				1,
				-0.07546736299991608,
				0.21131420135498047
			],
			"min":[
				-1,
				-0.07546810060739517,
				-1
			],
			"type":"VEC3"
		},
		{
			"bufferView":5,
			"componentType":5126,
			"count":4,
			"type":"VEC3"
		},
		{
			"bufferView":6,
			"componentType":5126,
			"count":4,
			"type":"VEC2"
		},
		{
			"bufferView":7,
			"componentType":5123,
			"count":6,
			"type":"SCALAR"
		}
	],
	"bufferViews":[
		{
			"buffer":0,
			"byteLength":816,
			"byteOffset":0,
			"target":34962
		},
		{
			"buffer":0,
			"byteLength":816,
			"byteOffset":816,
			"target":34962
		},
		{
			"buffer":0,
			"byteLength":544,
			"byteOffset":1632,
			"target":34962
		},
		{
			"buffer":0,
			"byteLength":204,
			"byteOffset":2176,
			"target":34963
		},
		{
			"buffer":0,
			"byteLength":48,
			"byteOffset":2380,
			"target":34962
		},
		{
			"buffer":0,
			"byteLength":48,
			"byteOffset":2428,
			"target":34962
		},
		{
			"buffer":0,
			"byteLength":32,
			"byteOffset":2476,
			"target":34962
		},
		{
			"buffer":0,
			"byteLength":12,
			"byteOffset":2508,
			"target":34963
		}
	],
	"samplers":[
		{
			"magFilter":9729,
			"minFilter":9987
		}
	],
	"buffers":[
		{
			"byteLength":2520,
			"uri":"Overhang_RoofIncline_UnevenBricks.bin"
		}
	]
}
