{
	"asset":{
		"generator":"Khronos glTF Blender I/O v4.0.44",
		"version":"2.0"
	},
	"scene":0,
	"scenes":[
		{
			"name":"Scene",
			"nodes":[
				0
			]
		}
	],
	"nodes":[
		{
			"mesh":0,
			"name":"Prop_MetalFence_Ornament"
		}
	],
	"materials":[
		{
			"doubleSided":true,
			"name":"MI_MetalOrnaments",
			"pbrMetallicRoughness":{
				"baseColorTexture":{
					"index":0
				},
				"metallicRoughnessTexture":{
					"index":1
				}
			}
		}
	],
	"meshes":[
		{
			"name":"Torus.013",
			"primitives":[
				{
					"attributes":{
						"POSITION":0,
						"NORMAL":1,
						"TEXCOORD_0":2
					},
					"indices":3,
					"material":0
				}
			]
		}
	],
	"textures":[
		{
			"sampler":0,
			"source":0
		},
		{
			"sampler":0,
			"source":1
		}
	],
	"images":[
		{
			"mimeType":"image/png",
			"name":"T_MetalOrnaments_BaseColor",
			"uri":"T_MetalOrnaments_BaseColor.png"
		},
		{
			"mimeType":"image/png",
			"name":"T_MetalOrnaments_Roughness",
			"uri":"T_MetalOrnaments_Roughness.png"
		}
	],
	"accessors":[
		{
			"bufferView":0,
			"componentType":5126,
			"count":3966,
			"max":[
				0.9789982438087463,
				2.8523812294006348,
				0.07802899926900864
			],
			"min":[
				-0.9733137488365173,
				-1.1920928955078125e-07,
				-0.07802899181842804
			],
			"type":"VEC3"
		},
		{
			"bufferView":1,
			"componentType":5126,
			"count":3966,
			"type":"VEC3"
		},
		{
			"bufferView":2,
			"componentType":5126,
			"count":3966,
			"type":"VEC2"
		},
		{
			"bufferView":3,
			"componentType":5123,
			"count":11964,
			"type":"SCALAR"
		}
	],
	"bufferViews":[
		{
			"buffer":0,
			"byteLength":47592,
			"byteOffset":0,
			"target":34962
		},
		{
			"buffer":0,
			"byteLength":47592,
			"byteOffset":47592,
			"target":34962
		},
		{
			"buffer":0,
			"byteLength":31728,
			"byteOffset":95184,
			"target":34962
		},
		{
			"buffer":0,
			"byteLength":23928,
			"byteOffset":126912,
			"target":34963
		}
	],
	"samplers":[
		{
			"magFilter":9729,
			"minFilter":9987
		}
	],
	"buffers":[
		{
			"byteLength":150840,
			"uri":"Prop_MetalFence_Ornament.bin"
		}
	]
}
