{
	"asset":{
		"generator":"Khronos glTF Blender I/O v4.0.44",
		"version":"2.0"
	},
	"scene":0,
	"scenes":[
		{
			"name":"Scene",
			"nodes":[
				0
			]
		}
	],
	"nodes":[
		{
			"mesh":0,
			"name":"Prop_Chimney2"
		}
	],
	"materials":[
		{
			"doubleSided":true,
			"name":"MI_UnevenBrick",
			"normalTexture":{
				"index":0
			},
			"pbrMetallicRoughness":{
				"baseColorTexture":{
					"index":1
				},
				"metallicFactor":0,
				"metallicRoughnessTexture":{
					"index":2
				}
			}
		}
	],
	"meshes":[
		{
			"name":"Cube.017_Retopology.005",
			"primitives":[
				{
					"attributes":{
						"POSITION":0,
						"NORMAL":1,
						"TEXCOORD_0":2
					},
					"indices":3,
					"material":0
				}
			]
		}
	],
	"textures":[
		{
			"sampler":0,
			"source":0
		},
		{
			"sampler":0,
			"source":1
		},
		{
			"sampler":0,
			"source":2
		}
	],
	"images":[
		{
			"mimeType":"image/png",
			"name":"T_UnevenBrick_Normal",
			"uri":"T_UnevenBrick_Normal.png"
		},
		{
			"mimeType":"image/png",
			"name":"T_UnevenBrick_BaseColor",
			"uri":"T_UnevenBrick_BaseColor.png"
		},
		{
			"mimeType":"image/png",
			"name":"T_UnevenBrick_Roughness",
			"uri":"T_UnevenBrick_Roughness.png"
		}
	],
	"accessors":[
		{
			"bufferView":0,
			"componentType":5126,
			"count":122,
			"max":[
				0.4457784593105316,
				3,
				0.4940085709095001
			],
			"min":[
				-0.5000000596046448,
				5.820766091346741e-08,
				-0.49400854110717773
			],
			"type":"VEC3"
		},
		{
			"bufferView":1,
			"componentType":5126,
			"count":122,
			"type":"VEC3"
		},
		{
			"bufferView":2,
			"componentType":5126,
			"count":122,
			"type":"VEC2"
		},
		{
			"bufferView":3,
			"componentType":5123,
			"count":390,
			"type":"SCALAR"
		}
	],
	"bufferViews":[
		{
			"buffer":0,
			"byteLength":1464,
			"byteOffset":0,
			"target":34962
		},
		{
			"buffer":0,
			"byteLength":1464,
			"byteOffset":1464,
			"target":34962
		},
		{
			"buffer":0,
			"byteLength":976,
			"byteOffset":2928,
			"target":34962
		},
		{
			"buffer":0,
			"byteLength":780,
			"byteOffset":3904,
			"target":34963
		}
	],
	"samplers":[
		{
			"magFilter":9729,
			"minFilter":9987
		}
	],
	"buffers":[
		{
			"byteLength":4684,
			"uri":"Prop_Chimney2.bin"
		}
	]
}
