{
	"asset":{
		"generator":"Khronos glTF Blender I/O v4.0.44",
		"version":"2.0"
	},
	"scene":0,
	"scenes":[
		{
			"name":"Scene",
			"nodes":[
				0
			]
		}
	],
	"nodes":[
		{
			"mesh":0,
			"name":"Prop_Vine4"
		}
	],
	"materials":[
		{
			"alphaCutoff":0.5,
			"alphaMode":"MASK",
			"doubleSided":true,
			"name":"MI_Vine",
			"pbrMetallicRoughness":{
				"baseColorFactor":[
					0.10236014425754547,
					0.3486083149909973,
					0,
					1
				],
				"baseColorTexture":{
					"index":0
				},
				"metallicFactor":0,
				"roughnessFactor":0.5
			}
		}
	],
	"meshes":[
		{
			"name":"Plane.020",
			"primitives":[
				{
					"attributes":{
						"POSITION":0,
						"NORMAL":1,
						"TEXCOORD_0":2
					},
					"indices":3,
					"material":0
				}
			]
		}
	],
	"textures":[
		{
			"sampler":0,
			"source":0
		}
	],
	"images":[
		{
			"mimeType":"image/png",
			"name":"T_VineLeaf.png",
			"uri":"T_VineLeaf_png.png"
		}
	],
	"accessors":[
		{
			"bufferView":0,
			"componentType":5126,
			"count":61,
			"max":[
				0.2984466254711151,
				0.5742899179458618,
				0.12323993444442749
			],
			"min":[
				-0.7181261777877808,
				-1.0138827562332153,
				-0.02677658572793007
			],
			"type":"VEC3"
		},
		{
			"bufferView":1,
			"componentType":5126,
			"count":61,
			"type":"VEC3"
		},
		{
			"bufferView":2,
			"componentType":5126,
			"count":61,
			"type":"VEC2"
		},
		{
			"bufferView":3,
			"componentType":5123,
			"count":93,
			"type":"SCALAR"
		}
	],
	"bufferViews":[
		{
			"buffer":0,
			"byteLength":732,
			"byteOffset":0,
			"target":34962
		},
		{
			"buffer":0,
			"byteLength":732,
			"byteOffset":732,
			"target":34962
		},
		{
			"buffer":0,
			"byteLength":488,
			"byteOffset":1464,
			"target":34962
		},
		{
			"buffer":0,
			"byteLength":186,
			"byteOffset":1952,
			"target":34963
		}
	],
	"samplers":[
		{
			"magFilter":9729,
			"minFilter":9987
		}
	],
	"buffers":[
		{
			"byteLength":2140,
			"uri":"Prop_Vine4.bin"
		}
	]
}
