{
	"asset":{
		"generator":"Khronos glTF Blender I/O v4.0.44",
		"version":"2.0"
	},
	"scene":0,
	"scenes":[
		{
			"name":"Scene",
			"nodes":[
				0
			]
		}
	],
	"nodes":[
		{
			"mesh":0,
			"name":"Roof_RoundTiles_4x8"
		}
	],
	"materials":[
		{
			"doubleSided":true,
			"name":"MI_WoodTrim",
			"normalTexture":{
				"index":0
			},
			"pbrMetallicRoughness":{
				"baseColorTexture":{
					"index":1
				},
				"metallicFactor":0,
				"metallicRoughnessTexture":{
					"index":2
				}
			}
		},
		{
			"doubleSided":true,
			"name":"MI_RoundTiles",
			"normalTexture":{
				"index":3
			},
			"pbrMetallicRoughness":{
				"baseColorTexture":{
					"index":4
				},
				"metallicFactor":0,
				"metallicRoughnessTexture":{
					"index":5
				}
			}
		}
	],
	"meshes":[
		{
			"name":"Cube.060",
			"primitives":[
				{
					"attributes":{
						"POSITION":0,
						"NORMAL":1,
						"TEXCOORD_0":2,
						"TEXCOORD_1":3
					},
					"indices":4,
					"material":0
				},
				{
					"attributes":{
						"POSITION":5,
						"NORMAL":6,
						"TEXCOORD_0":7,
						"TEXCOORD_1":8
					},
					"indices":9,
					"material":1
				}
			]
		}
	],
	"textures":[
		{
			"sampler":0,
			"source":0
		},
		{
			"sampler":0,
			"source":1
		},
		{
			"sampler":0,
			"source":2
		},
		{
			"sampler":0,
			"source":3
		},
		{
			"sampler":0,
			"source":4
		},
		{
			"sampler":0,
			"source":5
		}
	],
	"images":[
		{
			"mimeType":"image/png",
			"name":"T_WoodTrim_Normal",
			"uri":"T_WoodTrim_Normal.png"
		},
		{
			"mimeType":"image/png",
			"name":"T_WoodTrim_BaseColor",
			"uri":"T_WoodTrim_BaseColor.png"
		},
		{
			"mimeType":"image/png",
			"name":"T_WoodTrim_Roughness",
			"uri":"T_WoodTrim_Roughness.png"
		},
		{
			"mimeType":"image/png",
			"name":"T_RoundTiles_Normal",
			"uri":"T_RoundTiles_Normal.png"
		},
		{
			"mimeType":"image/png",
			"name":"T_RoundTiles_BaseColor",
			"uri":"T_RoundTiles_BaseColor.png"
		},
		{
			"mimeType":"image/png",
			"name":"T_RoundTiles_Roughness",
			"uri":"T_RoundTiles_Roughness.png"
		}
	],
	"accessors":[
		{
			"bufferView":0,
			"componentType":5126,
			"count":1328,
			"max":[
				2.5676212310791016,
				3.200705051422119,
				4.828753471374512
			],
			"min":[
				-2.5676212310791016,
				-0.5157185792922974,
				-4.828753471374512
			],
			"type":"VEC3"
		},
		{
			"bufferView":1,
			"componentType":5126,
			"count":1328,
			"type":"VEC3"
		},
		{
			"bufferView":2,
			"componentType":5126,
			"count":1328,
			"type":"VEC2"
		},
		{
			"bufferView":3,
			"componentType":5126,
			"count":1328,
			"type":"VEC2"
		},
		{
			"bufferView":4,
			"componentType":5123,
			"count":2376,
			"type":"SCALAR"
		},
		{
			"bufferView":5,
			"componentType":5126,
			"count":2138,
			"max":[
				2.756538152694702,
				3.713447093963623,
				4.8539862632751465
			],
			"min":[
				-2.756538152694702,
				-0.3878333568572998,
				-4.756110191345215
			],
			"type":"VEC3"
		},
		{
			"bufferView":6,
			"componentType":5126,
			"count":2138,
			"type":"VEC3"
		},
		{
			"bufferView":7,
			"componentType":5126,
			"count":2138,
			"type":"VEC2"
		},
		{
			"bufferView":8,
			"componentType":5126,
			"count":2138,
			"type":"VEC2"
		},
		{
			"bufferView":9,
			"componentType":5123,
			"count":6972,
			"type":"SCALAR"
		}
	],
	"bufferViews":[
		{
			"buffer":0,
			"byteLength":15936,
			"byteOffset":0,
			"target":34962
		},
		{
			"buffer":0,
			"byteLength":15936,
			"byteOffset":15936,
			"target":34962
		},
		{
			"buffer":0,
			"byteLength":10624,
			"byteOffset":31872,
			"target":34962
		},
		{
			"buffer":0,
			"byteLength":10624,
			"byteOffset":42496,
			"target":34962
		},
		{
			"buffer":0,
			"byteLength":4752,
			"byteOffset":53120,
			"target":34963
		},
		{
			"buffer":0,
			"byteLength":25656,
			"byteOffset":57872,
			"target":34962
		},
		{
			"buffer":0,
			"byteLength":25656,
			"byteOffset":83528,
			"target":34962
		},
		{
			"buffer":0,
			"byteLength":17104,
			"byteOffset":109184,
			"target":34962
		},
		{
			"buffer":0,
			"byteLength":17104,
			"byteOffset":126288,
			"target":34962
		},
		{
			"buffer":0,
			"byteLength":13944,
			"byteOffset":143392,
			"target":34963
		}
	],
	"samplers":[
		{
			"magFilter":9729,
			"minFilter":9987
		}
	],
	"buffers":[
		{
			"byteLength":157336,
			"uri":"Roof_RoundTiles_4x8.bin"
		}
	]
}
