{
	"asset":{
		"generator":"Khronos glTF Blender I/O v4.0.44",
		"version":"2.0"
	},
	"scene":0,
	"scenes":[
		{
			"name":"Scene",
			"nodes":[
				0
			]
		}
	],
	"nodes":[
		{
			"mesh":0,
			"name":"Roof_2x4_RoundTile"
		}
	],
	"materials":[
		{
			"doubleSided":true,
			"name":"MI_WoodTrim",
			"normalTexture":{
				"index":0
			},
			"pbrMetallicRoughness":{
				"baseColorTexture":{
					"index":1
				},
				"metallicFactor":0,
				"metallicRoughnessTexture":{
					"index":2
				}
			}
		},
		{
			"doubleSided":true,
			"name":"MI_RoundTiles",
			"normalTexture":{
				"index":3
			},
			"pbrMetallicRoughness":{
				"baseColorTexture":{
					"index":4
				},
				"metallicFactor":0,
				"metallicRoughnessTexture":{
					"index":5
				}
			}
		}
	],
	"meshes":[
		{
			"name":"Cube.044",
			"primitives":[
				{
					"attributes":{
						"POSITION":0,
						"NORMAL":1,
						"TEXCOORD_0":2,
						"TEXCOORD_1":3
					},
					"indices":4,
					"material":0
				},
				{
					"attributes":{
						"POSITION":5,
						"NORMAL":6,
						"TEXCOORD_0":7,
						"TEXCOORD_1":8
					},
					"indices":9,
					"material":1
				}
			]
		}
	],
	"textures":[
		{
			"sampler":0,
			"source":0
		},
		{
			"sampler":0,
			"source":1
		},
		{
			"sampler":0,
			"source":2
		},
		{
			"sampler":0,
			"source":3
		},
		{
			"sampler":0,
			"source":4
		},
		{
			"sampler":0,
			"source":5
		}
	],
	"images":[
		{
			"mimeType":"image/png",
			"name":"T_WoodTrim_Normal",
			"uri":"T_WoodTrim_Normal.png"
		},
		{
			"mimeType":"image/png",
			"name":"T_WoodTrim_BaseColor",
			"uri":"T_WoodTrim_BaseColor.png"
		},
		{
			"mimeType":"image/png",
			"name":"T_WoodTrim_Roughness",
			"uri":"T_WoodTrim_Roughness.png"
		},
		{
			"mimeType":"image/png",
			"name":"T_RoundTiles_Normal",
			"uri":"T_RoundTiles_Normal.png"
		},
		{
			"mimeType":"image/png",
			"name":"T_RoundTiles_BaseColor",
			"uri":"T_RoundTiles_BaseColor.png"
		},
		{
			"mimeType":"image/png",
			"name":"T_RoundTiles_Roughness",
			"uri":"T_RoundTiles_Roughness.png"
		}
	],
	"accessors":[
		{
			"bufferView":0,
			"componentType":5126,
			"count":472,
			"max":[
				1.5365829467773438,
				1.903069019317627,
				2.000000238418579
			],
			"min":[
				-1.5365829467773438,
				-0.3415522575378418,
				-2.000000238418579
			],
			"type":"VEC3"
		},
		{
			"bufferView":1,
			"componentType":5126,
			"count":472,
			"type":"VEC3"
		},
		{
			"bufferView":2,
			"componentType":5126,
			"count":472,
			"type":"VEC2"
		},
		{
			"bufferView":3,
			"componentType":5126,
			"count":472,
			"type":"VEC2"
		},
		{
			"bufferView":4,
			"componentType":5123,
			"count":840,
			"type":"SCALAR"
		},
		{
			"bufferView":5,
			"componentType":5126,
			"count":870,
			"max":[
				1.6467093229293823,
				2.3241586685180664,
				2.1076807975769043
			],
			"min":[
				-1.6467090845108032,
				-0.21261566877365112,
				-2.124508857727051
			],
			"type":"VEC3"
		},
		{
			"bufferView":6,
			"componentType":5126,
			"count":870,
			"type":"VEC3"
		},
		{
			"bufferView":7,
			"componentType":5126,
			"count":870,
			"type":"VEC2"
		},
		{
			"bufferView":8,
			"componentType":5126,
			"count":870,
			"type":"VEC2"
		},
		{
			"bufferView":9,
			"componentType":5123,
			"count":2496,
			"type":"SCALAR"
		}
	],
	"bufferViews":[
		{
			"buffer":0,
			"byteLength":5664,
			"byteOffset":0,
			"target":34962
		},
		{
			"buffer":0,
			"byteLength":5664,
			"byteOffset":5664,
			"target":34962
		},
		{
			"buffer":0,
			"byteLength":3776,
			"byteOffset":11328,
			"target":34962
		},
		{
			"buffer":0,
			"byteLength":3776,
			"byteOffset":15104,
			"target":34962
		},
		{
			"buffer":0,
			"byteLength":1680,
			"byteOffset":18880,
			"target":34963
		},
		{
			"buffer":0,
			"byteLength":10440,
			"byteOffset":20560,
			"target":34962
		},
		{
			"buffer":0,
			"byteLength":10440,
			"byteOffset":31000,
			"target":34962
		},
		{
			"buffer":0,
			"byteLength":6960,
			"byteOffset":41440,
			"target":34962
		},
		{
			"buffer":0,
			"byteLength":6960,
			"byteOffset":48400,
			"target":34962
		},
		{
			"buffer":0,
			"byteLength":4992,
			"byteOffset":55360,
			"target":34963
		}
	],
	"samplers":[
		{
			"magFilter":9729,
			"minFilter":9987
		}
	],
	"buffers":[
		{
			"byteLength":60352,
			"uri":"Roof_2x4_RoundTile.bin"
		}
	]
}
