{
	"asset":{
		"generator":"Khronos glTF Blender I/O v4.0.44",
		"version":"2.0"
	},
	"scene":0,
	"scenes":[
		{
			"name":"Scene",
			"nodes":[
				0
			]
		}
	],
	"nodes":[
		{
			"mesh":0,
			"name":"Roof_RoundTile_2x1_Long"
		}
	],
	"materials":[
		{
			"doubleSided":true,
			"name":"MI_RoundTiles",
			"normalTexture":{
				"index":0
			},
			"pbrMetallicRoughness":{
				"baseColorTexture":{
					"index":1
				},
				"metallicFactor":0,
				"metallicRoughnessTexture":{
					"index":2
				}
			}
		},
		{
			"doubleSided":true,
			"name":"MI_WoodTrim",
			"normalTexture":{
				"index":3
			},
			"pbrMetallicRoughness":{
				"baseColorTexture":{
					"index":4
				},
				"metallicFactor":0,
				"metallicRoughnessTexture":{
					"index":5
				}
			}
		}
	],
	"meshes":[
		{
			"name":"Cylinder.006",
			"primitives":[
				{
					"attributes":{
						"POSITION":0,
						"NORMAL":1,
						"TEXCOORD_0":2,
						"TEXCOORD_1":3
					},
					"indices":4,
					"material":0
				},
				{
					"attributes":{
						"POSITION":5,
						"NORMAL":6,
						"TEXCOORD_0":7,
						"TEXCOORD_1":8
					},
					"indices":9,
					"material":1
				}
			]
		}
	],
	"textures":[
		{
			"sampler":0,
			"source":0
		},
		{
			"sampler":0,
			"source":1
		},
		{
			"sampler":0,
			"source":2
		},
		{
			"sampler":0,
			"source":3
		},
		{
			"sampler":0,
			"source":4
		},
		{
			"sampler":0,
			"source":5
		}
	],
	"images":[
		{
			"mimeType":"image/png",
			"name":"T_RoundTiles_Normal",
			"uri":"T_RoundTiles_Normal.png"
		},
		{
			"mimeType":"image/png",
			"name":"T_RoundTiles_BaseColor",
			"uri":"T_RoundTiles_BaseColor.png"
		},
		{
			"mimeType":"image/png",
			"name":"T_RoundTiles_Roughness",
			"uri":"T_RoundTiles_Roughness.png"
		},
		{
			"mimeType":"image/png",
			"name":"T_WoodTrim_Normal",
			"uri":"T_WoodTrim_Normal.png"
		},
		{
			"mimeType":"image/png",
			"name":"T_WoodTrim_BaseColor",
			"uri":"T_WoodTrim_BaseColor.png"
		},
		{
			"mimeType":"image/png",
			"name":"T_WoodTrim_Roughness",
			"uri":"T_WoodTrim_Roughness.png"
		}
	],
	"accessors":[
		{
			"bufferView":0,
			"componentType":5126,
			"count":516,
			"max":[
				2.173652172088623,
				2.317312717437744,
				1.483274221420288
			],
			"min":[
				-2.1736536026000977,
				-0.8092353343963623,
				-0.4689145088195801
			],
			"type":"VEC3"
		},
		{
			"bufferView":1,
			"componentType":5126,
			"count":516,
			"type":"VEC3"
		},
		{
			"bufferView":2,
			"componentType":5126,
			"count":516,
			"type":"VEC2"
		},
		{
			"bufferView":3,
			"componentType":5126,
			"count":516,
			"type":"VEC2"
		},
		{
			"bufferView":4,
			"componentType":5123,
			"count":1212,
			"type":"SCALAR"
		},
		{
			"bufferView":5,
			"componentType":5126,
			"count":388,
			"max":[
				2.0059471130371094,
				1.903069019317627,
				1.4169507026672363
			],
			"min":[
				-2.005948543548584,
				-1.008133888244629,
				-0.4128984212875366
			],
			"type":"VEC3"
		},
		{
			"bufferView":6,
			"componentType":5126,
			"count":388,
			"type":"VEC3"
		},
		{
			"bufferView":7,
			"componentType":5126,
			"count":388,
			"type":"VEC2"
		},
		{
			"bufferView":8,
			"componentType":5126,
			"count":388,
			"type":"VEC2"
		},
		{
			"bufferView":9,
			"componentType":5123,
			"count":672,
			"type":"SCALAR"
		}
	],
	"bufferViews":[
		{
			"buffer":0,
			"byteLength":6192,
			"byteOffset":0,
			"target":34962
		},
		{
			"buffer":0,
			"byteLength":6192,
			"byteOffset":6192,
			"target":34962
		},
		{
			"buffer":0,
			"byteLength":4128,
			"byteOffset":12384,
			"target":34962
		},
		{
			"buffer":0,
			"byteLength":4128,
			"byteOffset":16512,
			"target":34962
		},
		{
			"buffer":0,
			"byteLength":2424,
			"byteOffset":20640,
			"target":34963
		},
		{
			"buffer":0,
			"byteLength":4656,
			"byteOffset":23064,
			"target":34962
		},
		{
			"buffer":0,
			"byteLength":4656,
			"byteOffset":27720,
			"target":34962
		},
		{
			"buffer":0,
			"byteLength":3104,
			"byteOffset":32376,
			"target":34962
		},
		{
			"buffer":0,
			"byteLength":3104,
			"byteOffset":35480,
			"target":34962
		},
		{
			"buffer":0,
			"byteLength":1344,
			"byteOffset":38584,
			"target":34963
		}
	],
	"samplers":[
		{
			"magFilter":9729,
			"minFilter":9987
		}
	],
	"buffers":[
		{
			"byteLength":39928,
			"uri":"Roof_RoundTile_2x1_Long.bin"
		}
	]
}
