{
	"asset":{
		"generator":"Khronos glTF Blender I/O v4.0.44",
		"version":"2.0"
	},
	"scene":0,
	"scenes":[
		{
			"name":"Scene",
			"nodes":[
				0
			]
		}
	],
	"nodes":[
		{
			"mesh":0,
			"name":"Roof_Tower_RoundTiles"
		}
	],
	"materials":[
		{
			"doubleSided":true,
			"name":"MI_WoodTrim",
			"normalTexture":{
				"index":0
			},
			"pbrMetallicRoughness":{
				"baseColorTexture":{
					"index":1
				},
				"metallicFactor":0,
				"metallicRoughnessTexture":{
					"index":2
				}
			}
		},
		{
			"doubleSided":true,
			"name":"MI_RockTrim",
			"normalTexture":{
				"index":3
			},
			"pbrMetallicRoughness":{
				"baseColorTexture":{
					"index":4
				},
				"metallicRoughnessTexture":{
					"index":5
				}
			}
		},
		{
			"doubleSided":true,
			"name":"MI_RoundTiles",
			"normalTexture":{
				"index":6
			},
			"pbrMetallicRoughness":{
				"baseColorTexture":{
					"index":7
				},
				"metallicFactor":0,
				"metallicRoughnessTexture":{
					"index":8
				}
			}
		},
		{
			"doubleSided":true,
			"name":"MI_MetalOrnaments",
			"pbrMetallicRoughness":{
				"baseColorTexture":{
					"index":9
				},
				"metallicRoughnessTexture":{
					"index":10
				}
			}
		}
	],
	"meshes":[
		{
			"name":"Cube.037",
			"primitives":[
				{
					"attributes":{
						"POSITION":0,
						"NORMAL":1,
						"TEXCOORD_0":2,
						"TEXCOORD_1":3
					},
					"indices":4,
					"material":0
				},
				{
					"attributes":{
						"POSITION":5,
						"NORMAL":6,
						"TEXCOORD_0":7,
						"TEXCOORD_1":8
					},
					"indices":9,
					"material":1
				},
				{
					"attributes":{
						"POSITION":10,
						"NORMAL":11,
						"TEXCOORD_0":12,
						"TEXCOORD_1":13
					},
					"indices":14,
					"material":2
				},
				{
					"attributes":{
						"POSITION":15,
						"NORMAL":16,
						"TEXCOORD_0":17,
						"TEXCOORD_1":18
					},
					"indices":19,
					"material":3
				}
			]
		}
	],
	"textures":[
		{
			"sampler":0,
			"source":0
		},
		{
			"sampler":0,
			"source":1
		},
		{
			"sampler":0,
			"source":2
		},
		{
			"sampler":0,
			"source":3
		},
		{
			"sampler":0,
			"source":4
		},
		{
			"sampler":0,
			"source":5
		},
		{
			"sampler":0,
			"source":6
		},
		{
			"sampler":0,
			"source":7
		},
		{
			"sampler":0,
			"source":8
		},
		{
			"sampler":0,
			"source":9
		},
		{
			"sampler":0,
			"source":10
		}
	],
	"images":[
		{
			"mimeType":"image/png",
			"name":"T_WoodTrim_Normal",
			"uri":"T_WoodTrim_Normal.png"
		},
		{
			"mimeType":"image/png",
			"name":"T_WoodTrim_BaseColor",
			"uri":"T_WoodTrim_BaseColor.png"
		},
		{
			"mimeType":"image/png",
			"name":"T_WoodTrim_Roughness",
			"uri":"T_WoodTrim_Roughness.png"
		},
		{
			"mimeType":"image/png",
			"name":"T_RockTrim_Normal",
			"uri":"T_RockTrim_Normal.png"
		},
		{
			"mimeType":"image/png",
			"name":"T_RockTrim_BaseColor",
			"uri":"T_RockTrim_BaseColor.png"
		},
		{
			"mimeType":"image/png",
			"name":"T_RockTrim_ORM",
			"uri":"T_RockTrim_ORM.png"
		},
		{
			"mimeType":"image/png",
			"name":"T_RoundTiles_Normal",
			"uri":"T_RoundTiles_Normal.png"
		},
		{
			"mimeType":"image/png",
			"name":"T_RoundTiles_BaseColor",
			"uri":"T_RoundTiles_BaseColor.png"
		},
		{
			"mimeType":"image/png",
			"name":"T_RoundTiles_Roughness",
			"uri":"T_RoundTiles_Roughness.png"
		},
		{
			"mimeType":"image/png",
			"name":"T_MetalOrnaments_BaseColor",
			"uri":"T_MetalOrnaments_BaseColor.png"
		},
		{
			"mimeType":"image/png",
			"name":"T_MetalOrnaments_Roughness",
			"uri":"T_MetalOrnaments_Roughness.png"
		}
	],
	"accessors":[
		{
			"bufferView":0,
			"componentType":5126,
			"count":1084,
			"max":[
				2.6192500591278076,
				2.8834104537963867,
				2.5960004329681396
			],
			"min":[
				-2.6192500591278076,
				-0.5719583630561829,
				-2.6032395362854004
			],
			"type":"VEC3"
		},
		{
			"bufferView":1,
			"componentType":5126,
			"count":1084,
			"type":"VEC3"
		},
		{
			"bufferView":2,
			"componentType":5126,
			"count":1084,
			"type":"VEC2"
		},
		{
			"bufferView":3,
			"componentType":5126,
			"count":1084,
			"type":"VEC2"
		},
		{
			"bufferView":4,
			"componentType":5123,
			"count":2304,
			"type":"SCALAR"
		},
		{
			"bufferView":5,
			"componentType":5126,
			"count":71,
			"max":[
				0.8499592542648315,
				4.8593950271606445,
				0.8499592542648315
			],
			"min":[
				-0.8499592542648315,
				2.8834099769592285,
				-0.8499592542648315
			],
			"type":"VEC3"
		},
		{
			"bufferView":6,
			"componentType":5126,
			"count":71,
			"type":"VEC3"
		},
		{
			"bufferView":7,
			"componentType":5126,
			"count":71,
			"type":"VEC2"
		},
		{
			"bufferView":8,
			"componentType":5126,
			"count":71,
			"type":"VEC2"
		},
		{
			"bufferView":9,
			"componentType":5123,
			"count":186,
			"type":"SCALAR"
		},
		{
			"bufferView":10,
			"componentType":5126,
			"count":3060,
			"max":[
				2.825260639190674,
				4.718158721923828,
				2.713549852371216
			],
			"min":[
				-2.825260639190674,
				-0.3076852560043335,
				-2.713549852371216
			],
			"type":"VEC3"
		},
		{
			"bufferView":11,
			"componentType":5126,
			"count":3060,
			"type":"VEC3"
		},
		{
			"bufferView":12,
			"componentType":5126,
			"count":3060,
			"type":"VEC2"
		},
		{
			"bufferView":13,
			"componentType":5126,
			"count":3060,
			"type":"VEC2"
		},
		{
			"bufferView":14,
			"componentType":5123,
			"count":8880,
			"type":"SCALAR"
		},
		{
			"bufferView":15,
			"componentType":5126,
			"count":264,
			"max":[
				0.12427186965942383,
				6.788815498352051,
				0.12506477534770966
			],
			"min":[
				-0.12427186965942383,
				4.511778354644775,
				-0.12319160252809525
			],
			"type":"VEC3"
		},
		{
			"bufferView":16,
			"componentType":5126,
			"count":264,
			"type":"VEC3"
		},
		{
			"bufferView":17,
			"componentType":5126,
			"count":264,
			"type":"VEC2"
		},
		{
			"bufferView":18,
			"componentType":5126,
			"count":264,
			"type":"VEC2"
		},
		{
			"bufferView":19,
			"componentType":5123,
			"count":702,
			"type":"SCALAR"
		}
	],
	"bufferViews":[
		{
			"buffer":0,
			"byteLength":13008,
			"byteOffset":0,
			"target":34962
		},
		{
			"buffer":0,
			"byteLength":13008,
			"byteOffset":13008,
			"target":34962
		},
		{
			"buffer":0,
			"byteLength":8672,
			"byteOffset":26016,
			"target":34962
		},
		{
			"buffer":0,
			"byteLength":8672,
			"byteOffset":34688,
			"target":34962
		},
		{
			"buffer":0,
			"byteLength":4608,
			"byteOffset":43360,
			"target":34963
		},
		{
			"buffer":0,
			"byteLength":852,
			"byteOffset":47968,
			"target":34962
		},
		{
			"buffer":0,
			"byteLength":852,
			"byteOffset":48820,
			"target":34962
		},
		{
			"buffer":0,
			"byteLength":568,
			"byteOffset":49672,
			"target":34962
		},
		{
			"buffer":0,
			"byteLength":568,
			"byteOffset":50240,
			"target":34962
		},
		{
			"buffer":0,
			"byteLength":372,
			"byteOffset":50808,
			"target":34963
		},
		{
			"buffer":0,
			"byteLength":36720,
			"byteOffset":51180,
			"target":34962
		},
		{
			"buffer":0,
			"byteLength":36720,
			"byteOffset":87900,
			"target":34962
		},
		{
			"buffer":0,
			"byteLength":24480,
			"byteOffset":124620,
			"target":34962
		},
		{
			"buffer":0,
			"byteLength":24480,
			"byteOffset":149100,
			"target":34962
		},
		{
			"buffer":0,
			"byteLength":17760,
			"byteOffset":173580,
			"target":34963
		},
		{
			"buffer":0,
			"byteLength":3168,
			"byteOffset":191340,
			"target":34962
		},
		{
			"buffer":0,
			"byteLength":3168,
			"byteOffset":194508,
			"target":34962
		},
		{
			"buffer":0,
			"byteLength":2112,
			"byteOffset":197676,
			"target":34962
		},
		{
			"buffer":0,
			"byteLength":2112,
			"byteOffset":199788,
			"target":34962
		},
		{
			"buffer":0,
			"byteLength":1404,
			"byteOffset":201900,
			"target":34963
		}
	],
	"samplers":[
		{
			"magFilter":9729,
			"minFilter":9987
		}
	],
	"buffers":[
		{
			"byteLength":203304,
			"uri":"Roof_Tower_RoundTiles.bin"
		}
	]
}
