{
	"asset":{
		"generator":"Khronos glTF Blender I/O v4.0.44",
		"version":"2.0"
	},
	"scene":0,
	"scenes":[
		{
			"name":"Scene",
			"nodes":[
				0
			]
		}
	],
	"nodes":[
		{
			"mesh":0,
			"name":"Roof_RoundTiles_6x6"
		}
	],
	"materials":[
		{
			"doubleSided":true,
			"name":"MI_WoodTrim",
			"normalTexture":{
				"index":0
			},
			"pbrMetallicRoughness":{
				"baseColorTexture":{
					"index":1
				},
				"metallicFactor":0,
				"metallicRoughnessTexture":{
					"index":2
				}
			}
		},
		{
			"doubleSided":true,
			"name":"MI_RoundTiles",
			"normalTexture":{
				"index":3
			},
			"pbrMetallicRoughness":{
				"baseColorTexture":{
					"index":4
				},
				"metallicFactor":0,
				"metallicRoughnessTexture":{
					"index":5
				}
			}
		}
	],
	"meshes":[
		{
			"name":"Cube.152",
			"primitives":[
				{
					"attributes":{
						"POSITION":0,
						"NORMAL":1,
						"TEXCOORD_0":2,
						"TEXCOORD_1":3
					},
					"indices":4,
					"material":0
				},
				{
					"attributes":{
						"POSITION":5,
						"NORMAL":6,
						"TEXCOORD_0":7,
						"TEXCOORD_1":8
					},
					"indices":9,
					"material":1
				}
			]
		}
	],
	"textures":[
		{
			"sampler":0,
			"source":0
		},
		{
			"sampler":0,
			"source":1
		},
		{
			"sampler":0,
			"source":2
		},
		{
			"sampler":0,
			"source":3
		},
		{
			"sampler":0,
			"source":4
		},
		{
			"sampler":0,
			"source":5
		}
	],
	"images":[
		{
			"mimeType":"image/png",
			"name":"T_WoodTrim_Normal",
			"uri":"T_WoodTrim_Normal.png"
		},
		{
			"mimeType":"image/png",
			"name":"T_WoodTrim_BaseColor",
			"uri":"T_WoodTrim_BaseColor.png"
		},
		{
			"mimeType":"image/png",
			"name":"T_WoodTrim_Roughness",
			"uri":"T_WoodTrim_Roughness.png"
		},
		{
			"mimeType":"image/png",
			"name":"T_RoundTiles_Normal",
			"uri":"T_RoundTiles_Normal.png"
		},
		{
			"mimeType":"image/png",
			"name":"T_RoundTiles_BaseColor",
			"uri":"T_RoundTiles_BaseColor.png"
		},
		{
			"mimeType":"image/png",
			"name":"T_RoundTiles_Roughness",
			"uri":"T_RoundTiles_Roughness.png"
		}
	],
	"accessors":[
		{
			"bufferView":0,
			"componentType":5126,
			"count":1740,
			"max":[
				3.958951234817505,
				4.342607498168945,
				3.7993175983428955
			],
			"min":[
				-3.958951234817505,
				-0.7821269035339355,
				-3.7874298095703125
			],
			"type":"VEC3"
		},
		{
			"bufferView":1,
			"componentType":5126,
			"count":1740,
			"type":"VEC3"
		},
		{
			"bufferView":2,
			"componentType":5126,
			"count":1740,
			"type":"VEC2"
		},
		{
			"bufferView":3,
			"componentType":5126,
			"count":1740,
			"type":"VEC2"
		},
		{
			"bufferView":4,
			"componentType":5123,
			"count":3048,
			"type":"SCALAR"
		},
		{
			"bufferView":5,
			"componentType":5126,
			"count":1960,
			"max":[
				4.124891757965088,
				4.890044689178467,
				4.093986511230469
			],
			"min":[
				-4.124891757965088,
				-0.6384454965591431,
				-3.9382028579711914
			],
			"type":"VEC3"
		},
		{
			"bufferView":6,
			"componentType":5126,
			"count":1960,
			"type":"VEC3"
		},
		{
			"bufferView":7,
			"componentType":5126,
			"count":1960,
			"type":"VEC2"
		},
		{
			"bufferView":8,
			"componentType":5126,
			"count":1960,
			"type":"VEC2"
		},
		{
			"bufferView":9,
			"componentType":5123,
			"count":6684,
			"type":"SCALAR"
		}
	],
	"bufferViews":[
		{
			"buffer":0,
			"byteLength":20880,
			"byteOffset":0,
			"target":34962
		},
		{
			"buffer":0,
			"byteLength":20880,
			"byteOffset":20880,
			"target":34962
		},
		{
			"buffer":0,
			"byteLength":13920,
			"byteOffset":41760,
			"target":34962
		},
		{
			"buffer":0,
			"byteLength":13920,
			"byteOffset":55680,
			"target":34962
		},
		{
			"buffer":0,
			"byteLength":6096,
			"byteOffset":69600,
			"target":34963
		},
		{
			"buffer":0,
			"byteLength":23520,
			"byteOffset":75696,
			"target":34962
		},
		{
			"buffer":0,
			"byteLength":23520,
			"byteOffset":99216,
			"target":34962
		},
		{
			"buffer":0,
			"byteLength":15680,
			"byteOffset":122736,
			"target":34962
		},
		{
			"buffer":0,
			"byteLength":15680,
			"byteOffset":138416,
			"target":34962
		},
		{
			"buffer":0,
			"byteLength":13368,
			"byteOffset":154096,
			"target":34963
		}
	],
	"samplers":[
		{
			"magFilter":9729,
			"minFilter":9987
		}
	],
	"buffers":[
		{
			"byteLength":167464,
			"uri":"Roof_RoundTiles_6x6.bin"
		}
	]
}
