{
	"asset":{
		"generator":"Khronos glTF Blender I/O v4.0.44",
		"version":"2.0"
	},
	"scene":0,
	"scenes":[
		{
			"name":"Scene",
			"nodes":[
				0
			]
		}
	],
	"nodes":[
		{
			"mesh":0,
			"name":"Roof_Wooden_2x1_Middle"
		}
	],
	"materials":[
		{
			"doubleSided":true,
			"name":"MI_WoodTrim_Wear",
			"normalTexture":{
				"index":0
			},
			"pbrMetallicRoughness":{
				"baseColorTexture":{
					"index":1
				},
				"metallicFactor":0,
				"metallicRoughnessTexture":{
					"index":2
				}
			}
		}
	],
	"meshes":[
		{
			"name":"Cube.138",
			"primitives":[
				{
					"attributes":{
						"POSITION":0,
						"NORMAL":1,
						"TEXCOORD_0":2,
						"TEXCOORD_1":3
					},
					"indices":4,
					"material":0
				}
			]
		}
	],
	"textures":[
		{
			"sampler":0,
			"source":0
		},
		{
			"sampler":0,
			"source":1
		},
		{
			"sampler":0,
			"source":2
		}
	],
	"images":[
		{
			"mimeType":"image/png",
			"name":"T_WoodTrim_Normal",
			"uri":"T_WoodTrim_Normal.png"
		},
		{
			"mimeType":"image/png",
			"name":"T_WoodTrim_BaseColor",
			"uri":"T_WoodTrim_BaseColor.png"
		},
		{
			"mimeType":"image/png",
			"name":"T_WoodTrim_Roughness",
			"uri":"T_WoodTrim_Roughness.png"
		}
	],
	"accessors":[
		{
			"bufferView":0,
			"componentType":5126,
			"count":48,
			"max":[
				1,
				1.0622429847717285,
				1
			],
			"min":[
				-0.9999999403953552,
				0.9243063926696777,
				-1
			],
			"type":"VEC3"
		},
		{
			"bufferView":1,
			"componentType":5126,
			"count":48,
			"type":"VEC3"
		},
		{
			"bufferView":2,
			"componentType":5126,
			"count":48,
			"type":"VEC2"
		},
		{
			"bufferView":3,
			"componentType":5126,
			"count":48,
			"type":"VEC2"
		},
		{
			"bufferView":4,
			"componentType":5123,
			"count":72,
			"type":"SCALAR"
		}
	],
	"bufferViews":[
		{
			"buffer":0,
			"byteLength":576,
			"byteOffset":0,
			"target":34962
		},
		{
			"buffer":0,
			"byteLength":576,
			"byteOffset":576,
			"target":34962
		},
		{
			"buffer":0,
			"byteLength":384,
			"byteOffset":1152,
			"target":34962
		},
		{
			"buffer":0,
			"byteLength":384,
			"byteOffset":1536,
			"target":34962
		},
		{
			"buffer":0,
			"byteLength":144,
			"byteOffset":1920,
			"target":34963
		}
	],
	"samplers":[
		{
			"magFilter":9729,
			"minFilter":9987
		}
	],
	"buffers":[
		{
			"byteLength":2064,
			"uri":"Roof_Wooden_2x1_Middle.bin"
		}
	]
}
