{
	"asset":{
		"generator":"Khronos glTF Blender I/O v4.0.44",
		"version":"2.0"
	},
	"scene":0,
	"scenes":[
		{
			"name":"Scene",
			"nodes":[
				0
			]
		}
	],
	"nodes":[
		{
			"mesh":0,
			"name":"Roof_RoundTiles_4x6"
		}
	],
	"materials":[
		{
			"doubleSided":true,
			"name":"MI_WoodTrim",
			"normalTexture":{
				"index":0
			},
			"pbrMetallicRoughness":{
				"baseColorTexture":{
					"index":1
				},
				"metallicFactor":0,
				"metallicRoughnessTexture":{
					"index":2
				}
			}
		},
		{
			"doubleSided":true,
			"name":"MI_RoundTiles",
			"normalTexture":{
				"index":3
			},
			"pbrMetallicRoughness":{
				"baseColorTexture":{
					"index":4
				},
				"metallicFactor":0,
				"metallicRoughnessTexture":{
					"index":5
				}
			}
		}
	],
	"meshes":[
		{
			"name":"Cube.074",
			"primitives":[
				{
					"attributes":{
						"POSITION":0,
						"NORMAL":1,
						"TEXCOORD_0":2,
						"TEXCOORD_1":3
					},
					"indices":4,
					"material":0
				},
				{
					"attributes":{
						"POSITION":5,
						"NORMAL":6,
						"TEXCOORD_0":7,
						"TEXCOORD_1":8
					},
					"indices":9,
					"material":1
				}
			]
		}
	],
	"textures":[
		{
			"sampler":0,
			"source":0
		},
		{
			"sampler":0,
			"source":1
		},
		{
			"sampler":0,
			"source":2
		},
		{
			"sampler":0,
			"source":3
		},
		{
			"sampler":0,
			"source":4
		},
		{
			"sampler":0,
			"source":5
		}
	],
	"images":[
		{
			"mimeType":"image/png",
			"name":"T_WoodTrim_Normal",
			"uri":"T_WoodTrim_Normal.png"
		},
		{
			"mimeType":"image/png",
			"name":"T_WoodTrim_BaseColor",
			"uri":"T_WoodTrim_BaseColor.png"
		},
		{
			"mimeType":"image/png",
			"name":"T_WoodTrim_Roughness",
			"uri":"T_WoodTrim_Roughness.png"
		},
		{
			"mimeType":"image/png",
			"name":"T_RoundTiles_Normal",
			"uri":"T_RoundTiles_Normal.png"
		},
		{
			"mimeType":"image/png",
			"name":"T_RoundTiles_BaseColor",
			"uri":"T_RoundTiles_BaseColor.png"
		},
		{
			"mimeType":"image/png",
			"name":"T_RoundTiles_Roughness",
			"uri":"T_RoundTiles_Roughness.png"
		}
	],
	"accessors":[
		{
			"bufferView":0,
			"componentType":5126,
			"count":1184,
			"max":[
				2.5676212310791016,
				3.200705051422119,
				3.7862460613250732
			],
			"min":[
				-2.5676212310791016,
				-0.5157185792922974,
				-3.786034345626831
			],
			"type":"VEC3"
		},
		{
			"bufferView":1,
			"componentType":5126,
			"count":1184,
			"type":"VEC3"
		},
		{
			"bufferView":2,
			"componentType":5126,
			"count":1184,
			"type":"VEC2"
		},
		{
			"bufferView":3,
			"componentType":5126,
			"count":1184,
			"type":"VEC2"
		},
		{
			"bufferView":4,
			"componentType":5123,
			"count":2160,
			"type":"SCALAR"
		},
		{
			"bufferView":5,
			"componentType":5126,
			"count":1684,
			"max":[
				2.756538152694702,
				3.7178683280944824,
				3.757296562194824
			],
			"min":[
				-2.756538152694702,
				-0.3878333568572998,
				-3.726191759109497
			],
			"type":"VEC3"
		},
		{
			"bufferView":6,
			"componentType":5126,
			"count":1684,
			"type":"VEC3"
		},
		{
			"bufferView":7,
			"componentType":5126,
			"count":1684,
			"type":"VEC2"
		},
		{
			"bufferView":8,
			"componentType":5126,
			"count":1684,
			"type":"VEC2"
		},
		{
			"bufferView":9,
			"componentType":5123,
			"count":5400,
			"type":"SCALAR"
		}
	],
	"bufferViews":[
		{
			"buffer":0,
			"byteLength":14208,
			"byteOffset":0,
			"target":34962
		},
		{
			"buffer":0,
			"byteLength":14208,
			"byteOffset":14208,
			"target":34962
		},
		{
			"buffer":0,
			"byteLength":9472,
			"byteOffset":28416,
			"target":34962
		},
		{
			"buffer":0,
			"byteLength":9472,
			"byteOffset":37888,
			"target":34962
		},
		{
			"buffer":0,
			"byteLength":4320,
			"byteOffset":47360,
			"target":34963
		},
		{
			"buffer":0,
			"byteLength":20208,
			"byteOffset":51680,
			"target":34962
		},
		{
			"buffer":0,
			"byteLength":20208,
			"byteOffset":71888,
			"target":34962
		},
		{
			"buffer":0,
			"byteLength":13472,
			"byteOffset":92096,
			"target":34962
		},
		{
			"buffer":0,
			"byteLength":13472,
			"byteOffset":105568,
			"target":34962
		},
		{
			"buffer":0,
			"byteLength":10800,
			"byteOffset":119040,
			"target":34963
		}
	],
	"samplers":[
		{
			"magFilter":9729,
			"minFilter":9987
		}
	],
	"buffers":[
		{
			"byteLength":129840,
			"uri":"Roof_RoundTiles_4x6.bin"
		}
	]
}
