{
	"asset":{
		"generator":"Khronos glTF Blender I/O v4.0.44",
		"version":"2.0"
	},
	"scene":0,
	"scenes":[
		{
			"name":"Scene",
			"nodes":[
				0
			]
		}
	],
	"nodes":[
		{
			"mesh":0,
			"name":"Roof_Dormer_RoundTile"
		}
	],
	"materials":[
		{
			"doubleSided":true,
			"name":"MI_WoodTrim",
			"normalTexture":{
				"index":0
			},
			"pbrMetallicRoughness":{
				"baseColorTexture":{
					"index":1
				},
				"metallicFactor":0,
				"metallicRoughnessTexture":{
					"index":2
				}
			}
		},
		{
			"doubleSided":true,
			"name":"MI_Plaster",
			"normalTexture":{
				"index":3
			},
			"pbrMetallicRoughness":{
				"baseColorTexture":{
					"index":4
				},
				"metallicRoughnessTexture":{
					"index":5
				}
			}
		},
		{
			"alphaMode":"BLEND",
			"doubleSided":true,
			"name":"MI_WindowGlass",
			"pbrMetallicRoughness":{
				"baseColorFactor":[
					0.800000011920929,
					0.800000011920929,
					0.800000011920929,
					0.09545451402664185
				],
				"metallicFactor":0,
				"roughnessFactor":0.5
			}
		},
		{
			"doubleSided":true,
			"name":"MI_RoundTiles",
			"normalTexture":{
				"index":6
			},
			"pbrMetallicRoughness":{
				"baseColorTexture":{
					"index":7
				},
				"metallicFactor":0,
				"metallicRoughnessTexture":{
					"index":8
				}
			}
		}
	],
	"meshes":[
		{
			"name":"Cube.197",
			"primitives":[
				{
					"attributes":{
						"POSITION":0,
						"NORMAL":1,
						"TEXCOORD_0":2,
						"TEXCOORD_1":3
					},
					"indices":4,
					"material":0
				},
				{
					"attributes":{
						"POSITION":5,
						"NORMAL":6,
						"TEXCOORD_0":7,
						"TEXCOORD_1":8
					},
					"indices":9,
					"material":1
				},
				{
					"attributes":{
						"POSITION":10,
						"NORMAL":11,
						"TEXCOORD_0":12,
						"TEXCOORD_1":13
					},
					"indices":14,
					"material":2
				},
				{
					"attributes":{
						"POSITION":15,
						"NORMAL":16,
						"TEXCOORD_0":17,
						"TEXCOORD_1":18
					},
					"indices":19,
					"material":3
				}
			]
		}
	],
	"textures":[
		{
			"sampler":0,
			"source":0
		},
		{
			"sampler":0,
			"source":1
		},
		{
			"sampler":0,
			"source":2
		},
		{
			"sampler":0,
			"source":3
		},
		{
			"sampler":0,
			"source":4
		},
		{
			"sampler":0,
			"source":5
		},
		{
			"sampler":0,
			"source":6
		},
		{
			"sampler":0,
			"source":7
		},
		{
			"sampler":0,
			"source":8
		}
	],
	"images":[
		{
			"mimeType":"image/png",
			"name":"T_WoodTrim_Normal",
			"uri":"T_WoodTrim_Normal.png"
		},
		{
			"mimeType":"image/png",
			"name":"T_WoodTrim_BaseColor",
			"uri":"T_WoodTrim_BaseColor.png"
		},
		{
			"mimeType":"image/png",
			"name":"T_WoodTrim_Roughness",
			"uri":"T_WoodTrim_Roughness.png"
		},
		{
			"mimeType":"image/png",
			"name":"T_Plaster_Normal",
			"uri":"T_Plaster_Normal.png"
		},
		{
			"mimeType":"image/png",
			"name":"T_Plaster_BaseColor",
			"uri":"T_Plaster_BaseColor.png"
		},
		{
			"mimeType":"image/png",
			"name":"T_Plaster_ORM",
			"uri":"T_Plaster_ORM.png"
		},
		{
			"mimeType":"image/png",
			"name":"T_RoundTiles_Normal",
			"uri":"T_RoundTiles_Normal.png"
		},
		{
			"mimeType":"image/png",
			"name":"T_RoundTiles_BaseColor",
			"uri":"T_RoundTiles_BaseColor.png"
		},
		{
			"mimeType":"image/png",
			"name":"T_RoundTiles_Roughness",
			"uri":"T_RoundTiles_Roughness.png"
		}
	],
	"accessors":[
		{
			"bufferView":0,
			"componentType":5126,
			"count":804,
			"max":[
				1.796095609664917,
				2.4071543216705322,
				1.0531584024429321
			],
			"min":[
				-0.06625044345855713,
				0.029659956693649292,
				-1.0530269145965576
			],
			"type":"VEC3"
		},
		{
			"bufferView":1,
			"componentType":5126,
			"count":804,
			"type":"VEC3"
		},
		{
			"bufferView":2,
			"componentType":5126,
			"count":804,
			"type":"VEC2"
		},
		{
			"bufferView":3,
			"componentType":5126,
			"count":804,
			"type":"VEC2"
		},
		{
			"bufferView":4,
			"componentType":5123,
			"count":1272,
			"type":"SCALAR"
		},
		{
			"bufferView":5,
			"componentType":5126,
			"count":88,
			"max":[
				1.6412353515625,
				2.1810436248779297,
				0.720812976360321
			],
			"min":[
				0.20741748809814453,
				0.07360720634460449,
				-0.7227497100830078
			],
			"type":"VEC3"
		},
		{
			"bufferView":6,
			"componentType":5126,
			"count":88,
			"type":"VEC3"
		},
		{
			"bufferView":7,
			"componentType":5126,
			"count":88,
			"type":"VEC2"
		},
		{
			"bufferView":8,
			"componentType":5126,
			"count":88,
			"type":"VEC2"
		},
		{
			"bufferView":9,
			"componentType":5123,
			"count":240,
			"type":"SCALAR"
		},
		{
			"bufferView":10,
			"componentType":5126,
			"count":148,
			"max":[
				1.6450214385986328,
				1.0366252660751343,
				0.4369128346443176
			],
			"min":[
				1.6450212001800537,
				0.24898052215576172,
				-0.4329167604446411
			],
			"type":"VEC3"
		},
		{
			"bufferView":11,
			"componentType":5126,
			"count":148,
			"type":"VEC3"
		},
		{
			"bufferView":12,
			"componentType":5126,
			"count":148,
			"type":"VEC2"
		},
		{
			"bufferView":13,
			"componentType":5126,
			"count":148,
			"type":"VEC2"
		},
		{
			"bufferView":14,
			"componentType":5123,
			"count":222,
			"type":"SCALAR"
		},
		{
			"bufferView":15,
			"componentType":5126,
			"count":352,
			"max":[
				1.900120496749878,
				2.7027745246887207,
				1.219645380973816
			],
			"min":[
				-0.01868981122970581,
				0.9468854665756226,
				-1.2195141315460205
			],
			"type":"VEC3"
		},
		{
			"bufferView":16,
			"componentType":5126,
			"count":352,
			"type":"VEC3"
		},
		{
			"bufferView":17,
			"componentType":5126,
			"count":352,
			"type":"VEC2"
		},
		{
			"bufferView":18,
			"componentType":5126,
			"count":352,
			"type":"VEC2"
		},
		{
			"bufferView":19,
			"componentType":5123,
			"count":978,
			"type":"SCALAR"
		}
	],
	"bufferViews":[
		{
			"buffer":0,
			"byteLength":9648,
			"byteOffset":0,
			"target":34962
		},
		{
			"buffer":0,
			"byteLength":9648,
			"byteOffset":9648,
			"target":34962
		},
		{
			"buffer":0,
			"byteLength":6432,
			"byteOffset":19296,
			"target":34962
		},
		{
			"buffer":0,
			"byteLength":6432,
			"byteOffset":25728,
			"target":34962
		},
		{
			"buffer":0,
			"byteLength":2544,
			"byteOffset":32160,
			"target":34963
		},
		{
			"buffer":0,
			"byteLength":1056,
			"byteOffset":34704,
			"target":34962
		},
		{
			"buffer":0,
			"byteLength":1056,
			"byteOffset":35760,
			"target":34962
		},
		{
			"buffer":0,
			"byteLength":704,
			"byteOffset":36816,
			"target":34962
		},
		{
			"buffer":0,
			"byteLength":704,
			"byteOffset":37520,
			"target":34962
		},
		{
			"buffer":0,
			"byteLength":480,
			"byteOffset":38224,
			"target":34963
		},
		{
			"buffer":0,
			"byteLength":1776,
			"byteOffset":38704,
			"target":34962
		},
		{
			"buffer":0,
			"byteLength":1776,
			"byteOffset":40480,
			"target":34962
		},
		{
			"buffer":0,
			"byteLength":1184,
			"byteOffset":42256,
			"target":34962
		},
		{
			"buffer":0,
			"byteLength":1184,
			"byteOffset":43440,
			"target":34962
		},
		{
			"buffer":0,
			"byteLength":444,
			"byteOffset":44624,
			"target":34963
		},
		{
			"buffer":0,
			"byteLength":4224,
			"byteOffset":45068,
			"target":34962
		},
		{
			"buffer":0,
			"byteLength":4224,
			"byteOffset":49292,
			"target":34962
		},
		{
			"buffer":0,
			"byteLength":2816,
			"byteOffset":53516,
			"target":34962
		},
		{
			"buffer":0,
			"byteLength":2816,
			"byteOffset":56332,
			"target":34962
		},
		{
			"buffer":0,
			"byteLength":1956,
			"byteOffset":59148,
			"target":34963
		}
	],
	"samplers":[
		{
			"magFilter":9729,
			"minFilter":9987
		}
	],
	"buffers":[
		{
			"byteLength":61104,
			"uri":"Roof_Dormer_RoundTile.bin"
		}
	]
}
