{
	"asset":{
		"generator":"Khronos glTF Blender I/O v4.0.44",
		"version":"2.0"
	},
	"scene":0,
	"scenes":[
		{
			"name":"Scene",
			"nodes":[
				0
			]
		}
	],
	"nodes":[
		{
			"mesh":0,
			"name":"Stair_Interior_SolidExtended"
		}
	],
	"materials":[
		{
			"doubleSided":true,
			"name":"MI_WoodTrim",
			"normalTexture":{
				"index":0
			},
			"pbrMetallicRoughness":{
				"baseColorTexture":{
					"index":1
				},
				"metallicFactor":0,
				"metallicRoughnessTexture":{
					"index":2
				}
			}
		}
	],
	"meshes":[
		{
			"name":"Cube.016",
			"primitives":[
				{
					"attributes":{
						"POSITION":0,
						"NORMAL":1,
						"TEXCOORD_0":2
					},
					"indices":3,
					"material":0
				}
			]
		}
	],
	"textures":[
		{
			"sampler":0,
			"source":0
		},
		{
			"sampler":0,
			"source":1
		},
		{
			"sampler":0,
			"source":2
		}
	],
	"images":[
		{
			"mimeType":"image/png",
			"name":"T_WoodTrim_Normal",
			"uri":"T_WoodTrim_Normal.png"
		},
		{
			"mimeType":"image/png",
			"name":"T_WoodTrim_BaseColor",
			"uri":"T_WoodTrim_BaseColor.png"
		},
		{
			"mimeType":"image/png",
			"name":"T_WoodTrim_Roughness",
			"uri":"T_WoodTrim_Roughness.png"
		}
	],
	"accessors":[
		{
			"bufferView":0,
			"componentType":5126,
			"count":722,
			"max":[
				0.8843992948532104,
				3.0278208255767822,
				0.35783979296684265
			],
			"min":[
				-0.8843992948532104,
				-0.018151553347706795,
				-5.80046272277832
			],
			"type":"VEC3"
		},
		{
			"bufferView":1,
			"componentType":5126,
			"count":722,
			"type":"VEC3"
		},
		{
			"bufferView":2,
			"componentType":5126,
			"count":722,
			"type":"VEC2"
		},
		{
			"bufferView":3,
			"componentType":5123,
			"count":1128,
			"type":"SCALAR"
		}
	],
	"bufferViews":[
		{
			"buffer":0,
			"byteLength":8664,
			"byteOffset":0,
			"target":34962
		},
		{
			"buffer":0,
			"byteLength":8664,
			"byteOffset":8664,
			"target":34962
		},
		{
			"buffer":0,
			"byteLength":5776,
			"byteOffset":17328,
			"target":34962
		},
		{
			"buffer":0,
			"byteLength":2256,
			"byteOffset":23104,
			"target":34963
		}
	],
	"samplers":[
		{
			"magFilter":9729,
			"minFilter":9987
		}
	],
	"buffers":[
		{
			"byteLength":25360,
			"uri":"Stair_Interior_SolidExtended.bin"
		}
	]
}
