{
	"asset":{
		"generator":"Khronos glTF Blender I/O v4.0.44",
		"version":"2.0"
	},
	"scene":0,
	"scenes":[
		{
			"name":"Scene",
			"nodes":[
				0
			]
		}
	],
	"nodes":[
		{
			"mesh":0,
			"name":"Wall_Plaster_Window_Wide_Round"
		}
	],
	"materials":[
		{
			"doubleSided":true,
			"name":"MI_WoodTrim",
			"normalTexture":{
				"index":0
			},
			"pbrMetallicRoughness":{
				"baseColorTexture":{
					"index":1
				},
				"metallicFactor":0,
				"metallicRoughnessTexture":{
					"index":2
				}
			}
		},
		{
			"doubleSided":true,
			"name":"MI_Plaster",
			"normalTexture":{
				"index":3
			},
			"pbrMetallicRoughness":{
				"baseColorTexture":{
					"index":4
				},
				"metallicRoughnessTexture":{
					"index":5
				}
			}
		},
		{
			"doubleSided":true,
			"name":"MI_Brick",
			"normalTexture":{
				"index":6
			},
			"pbrMetallicRoughness":{
				"baseColorTexture":{
					"index":7
				},
				"metallicFactor":0,
				"metallicRoughnessTexture":{
					"index":8
				}
			}
		}
	],
	"meshes":[
		{
			"name":"Cube.220",
			"primitives":[
				{
					"attributes":{
						"POSITION":0,
						"NORMAL":1,
						"TEXCOORD_0":2,
						"TEXCOORD_1":3
					},
					"indices":4,
					"material":0
				},
				{
					"attributes":{
						"POSITION":5,
						"NORMAL":6,
						"TEXCOORD_0":7,
						"TEXCOORD_1":8
					},
					"indices":9,
					"material":1
				},
				{
					"attributes":{
						"POSITION":10,
						"NORMAL":11,
						"TEXCOORD_0":12,
						"TEXCOORD_1":13
					},
					"indices":14,
					"material":2
				}
			]
		}
	],
	"textures":[
		{
			"sampler":0,
			"source":0
		},
		{
			"sampler":0,
			"source":1
		},
		{
			"sampler":0,
			"source":2
		},
		{
			"sampler":0,
			"source":3
		},
		{
			"sampler":0,
			"source":4
		},
		{
			"sampler":0,
			"source":5
		},
		{
			"sampler":0,
			"source":6
		},
		{
			"sampler":0,
			"source":7
		},
		{
			"sampler":0,
			"source":8
		}
	],
	"images":[
		{
			"mimeType":"image/png",
			"name":"T_WoodTrim_Normal",
			"uri":"T_WoodTrim_Normal.png"
		},
		{
			"mimeType":"image/png",
			"name":"T_WoodTrim_BaseColor",
			"uri":"T_WoodTrim_BaseColor.png"
		},
		{
			"mimeType":"image/png",
			"name":"T_WoodTrim_Roughness",
			"uri":"T_WoodTrim_Roughness.png"
		},
		{
			"mimeType":"image/png",
			"name":"T_Plaster_Normal",
			"uri":"T_Plaster_Normal.png"
		},
		{
			"mimeType":"image/png",
			"name":"T_Plaster_BaseColor",
			"uri":"T_Plaster_BaseColor.png"
		},
		{
			"mimeType":"image/png",
			"name":"T_Plaster_ORM",
			"uri":"T_Plaster_ORM.png"
		},
		{
			"mimeType":"image/png",
			"name":"T_Brick_Normal",
			"uri":"T_Brick_Normal.png"
		},
		{
			"mimeType":"image/png",
			"name":"T_Brick_BaseColor",
			"uri":"T_Brick_BaseColor.png"
		},
		{
			"mimeType":"image/png",
			"name":"T_Brick_Roughness",
			"uri":"T_Brick_Roughness.png"
		}
	],
	"accessors":[
		{
			"bufferView":0,
			"componentType":5126,
			"count":80,
			"max":[
				1,
				3.1226887702941895,
				0.0924467146396637
			],
			"min":[
				-1.0000001192092896,
				0.6495776176452637,
				-0.3140353262424469
			],
			"type":"VEC3"
		},
		{
			"bufferView":1,
			"componentType":5126,
			"count":80,
			"type":"VEC3"
		},
		{
			"bufferView":2,
			"componentType":5126,
			"count":80,
			"type":"VEC2"
		},
		{
			"bufferView":3,
			"componentType":5126,
			"count":80,
			"type":"VEC2"
		},
		{
			"bufferView":4,
			"componentType":5123,
			"count":174,
			"type":"SCALAR"
		},
		{
			"bufferView":5,
			"componentType":5126,
			"count":60,
			"max":[
				1,
				3,
				1.3113417196564114e-07
			],
			"min":[
				-1,
				0,
				-0.2000000923871994
			],
			"type":"VEC3"
		},
		{
			"bufferView":6,
			"componentType":5126,
			"count":60,
			"type":"VEC3"
		},
		{
			"bufferView":7,
			"componentType":5126,
			"count":60,
			"type":"VEC2"
		},
		{
			"bufferView":8,
			"componentType":5126,
			"count":60,
			"type":"VEC2"
		},
		{
			"bufferView":9,
			"componentType":5123,
			"count":180,
			"type":"SCALAR"
		},
		{
			"bufferView":10,
			"componentType":5126,
			"count":8,
			"max":[
				1,
				0.8799999952316284,
				4.371138828673793e-08
			],
			"min":[
				-1,
				0,
				0
			],
			"type":"VEC3"
		},
		{
			"bufferView":11,
			"componentType":5126,
			"count":8,
			"type":"VEC3"
		},
		{
			"bufferView":12,
			"componentType":5126,
			"count":8,
			"type":"VEC2"
		},
		{
			"bufferView":13,
			"componentType":5126,
			"count":8,
			"type":"VEC2"
		},
		{
			"bufferView":14,
			"componentType":5123,
			"count":18,
			"type":"SCALAR"
		}
	],
	"bufferViews":[
		{
			"buffer":0,
			"byteLength":960,
			"byteOffset":0,
			"target":34962
		},
		{
			"buffer":0,
			"byteLength":960,
			"byteOffset":960,
			"target":34962
		},
		{
			"buffer":0,
			"byteLength":640,
			"byteOffset":1920,
			"target":34962
		},
		{
			"buffer":0,
			"byteLength":640,
			"byteOffset":2560,
			"target":34962
		},
		{
			"buffer":0,
			"byteLength":348,
			"byteOffset":3200,
			"target":34963
		},
		{
			"buffer":0,
			"byteLength":720,
			"byteOffset":3548,
			"target":34962
		},
		{
			"buffer":0,
			"byteLength":720,
			"byteOffset":4268,
			"target":34962
		},
		{
			"buffer":0,
			"byteLength":480,
			"byteOffset":4988,
			"target":34962
		},
		{
			"buffer":0,
			"byteLength":480,
			"byteOffset":5468,
			"target":34962
		},
		{
			"buffer":0,
			"byteLength":360,
			"byteOffset":5948,
			"target":34963
		},
		{
			"buffer":0,
			"byteLength":96,
			"byteOffset":6308,
			"target":34962
		},
		{
			"buffer":0,
			"byteLength":96,
			"byteOffset":6404,
			"target":34962
		},
		{
			"buffer":0,
			"byteLength":64,
			"byteOffset":6500,
			"target":34962
		},
		{
			"buffer":0,
			"byteLength":64,
			"byteOffset":6564,
			"target":34962
		},
		{
			"buffer":0,
			"byteLength":36,
			"byteOffset":6628,
			"target":34963
		}
	],
	"samplers":[
		{
			"magFilter":9729,
			"minFilter":9987
		}
	],
	"buffers":[
		{
			"byteLength":6664,
			"uri":"Wall_Plaster_Window_Wide_Round.bin"
		}
	]
}
