{
	"asset":{
		"generator":"Khronos glTF Blender I/O v4.0.44",
		"version":"2.0"
	},
	"scene":0,
	"scenes":[
		{
			"name":"Scene",
			"nodes":[
				0
			]
		}
	],
	"nodes":[
		{
			"mesh":0,
			"name":"Wall_Plaster_WoodGrid"
		}
	],
	"materials":[
		{
			"doubleSided":true,
			"name":"MI_WoodTrim",
			"normalTexture":{
				"index":0
			},
			"pbrMetallicRoughness":{
				"baseColorTexture":{
					"index":1
				},
				"metallicFactor":0,
				"metallicRoughnessTexture":{
					"index":2
				}
			}
		},
		{
			"doubleSided":true,
			"name":"MI_Plaster",
			"normalTexture":{
				"index":3
			},
			"pbrMetallicRoughness":{
				"baseColorTexture":{
					"index":4
				},
				"metallicRoughnessTexture":{
					"index":5
				}
			}
		}
	],
	"meshes":[
		{
			"name":"Cube.118",
			"primitives":[
				{
					"attributes":{
						"POSITION":0,
						"NORMAL":1,
						"TEXCOORD_0":2,
						"TEXCOORD_1":3
					},
					"indices":4,
					"material":0
				},
				{
					"attributes":{
						"POSITION":5,
						"NORMAL":6,
						"TEXCOORD_0":7,
						"TEXCOORD_1":8
					},
					"indices":9,
					"material":1
				}
			]
		}
	],
	"textures":[
		{
			"sampler":0,
			"source":0
		},
		{
			"sampler":0,
			"source":1
		},
		{
			"sampler":0,
			"source":2
		},
		{
			"sampler":0,
			"source":3
		},
		{
			"sampler":0,
			"source":4
		},
		{
			"sampler":0,
			"source":5
		}
	],
	"images":[
		{
			"mimeType":"image/png",
			"name":"T_WoodTrim_Normal",
			"uri":"T_WoodTrim_Normal.png"
		},
		{
			"mimeType":"image/png",
			"name":"T_WoodTrim_BaseColor",
			"uri":"T_WoodTrim_BaseColor.png"
		},
		{
			"mimeType":"image/png",
			"name":"T_WoodTrim_Roughness",
			"uri":"T_WoodTrim_Roughness.png"
		},
		{
			"mimeType":"image/png",
			"name":"T_Plaster_Normal",
			"uri":"T_Plaster_Normal.png"
		},
		{
			"mimeType":"image/png",
			"name":"T_Plaster_BaseColor",
			"uri":"T_Plaster_BaseColor.png"
		},
		{
			"mimeType":"image/png",
			"name":"T_Plaster_ORM",
			"uri":"T_Plaster_ORM.png"
		}
	],
	"accessors":[
		{
			"bufferView":0,
			"componentType":5126,
			"count":386,
			"max":[
				1.000000238418579,
				3.1226887702941895,
				0.0924467146396637
			],
			"min":[
				-1.000000238418579,
				0.6495776176452637,
				-0.3140353262424469
			],
			"type":"VEC3"
		},
		{
			"bufferView":1,
			"componentType":5126,
			"count":386,
			"type":"VEC3"
		},
		{
			"bufferView":2,
			"componentType":5126,
			"count":386,
			"type":"VEC2"
		},
		{
			"bufferView":3,
			"componentType":5126,
			"count":386,
			"type":"VEC2"
		},
		{
			"bufferView":4,
			"componentType":5123,
			"count":732,
			"type":"SCALAR"
		},
		{
			"bufferView":5,
			"componentType":5126,
			"count":8,
			"max":[
				1,
				0.8360880613327026,
				5.960464477539063e-08
			],
			"min":[
				-1,
				0,
				-0.2000001072883606
			],
			"type":"VEC3"
		},
		{
			"bufferView":6,
			"componentType":5126,
			"count":8,
			"type":"VEC3"
		},
		{
			"bufferView":7,
			"componentType":5126,
			"count":8,
			"type":"VEC2"
		},
		{
			"bufferView":8,
			"componentType":5126,
			"count":8,
			"type":"VEC2"
		},
		{
			"bufferView":9,
			"componentType":5123,
			"count":12,
			"type":"SCALAR"
		}
	],
	"bufferViews":[
		{
			"buffer":0,
			"byteLength":4632,
			"byteOffset":0,
			"target":34962
		},
		{
			"buffer":0,
			"byteLength":4632,
			"byteOffset":4632,
			"target":34962
		},
		{
			"buffer":0,
			"byteLength":3088,
			"byteOffset":9264,
			"target":34962
		},
		{
			"buffer":0,
			"byteLength":3088,
			"byteOffset":12352,
			"target":34962
		},
		{
			"buffer":0,
			"byteLength":1464,
			"byteOffset":15440,
			"target":34963
		},
		{
			"buffer":0,
			"byteLength":96,
			"byteOffset":16904,
			"target":34962
		},
		{
			"buffer":0,
			"byteLength":96,
			"byteOffset":17000,
			"target":34962
		},
		{
			"buffer":0,
			"byteLength":64,
			"byteOffset":17096,
			"target":34962
		},
		{
			"buffer":0,
			"byteLength":64,
			"byteOffset":17160,
			"target":34962
		},
		{
			"buffer":0,
			"byteLength":24,
			"byteOffset":17224,
			"target":34963
		}
	],
	"samplers":[
		{
			"magFilter":9729,
			"minFilter":9987
		}
	],
	"buffers":[
		{
			"byteLength":17248,
			"uri":"Wall_Plaster_WoodGrid.bin"
		}
	]
}
