{
	"asset":{
		"generator":"Khronos glTF Blender I/O v4.0.44",
		"version":"2.0"
	},
	"scene":0,
	"scenes":[
		{
			"name":"Scene",
			"nodes":[
				0
			]
		}
	],
	"nodes":[
		{
			"mesh":0,
			"name":"Window_Thin_Round1"
		}
	],
	"materials":[
		{
			"doubleSided":true,
			"name":"MI_WoodTrim_Wear",
			"normalTexture":{
				"index":0
			},
			"pbrMetallicRoughness":{
				"baseColorTexture":{
					"index":1
				},
				"metallicFactor":0,
				"metallicRoughnessTexture":{
					"index":2
				}
			}
		},
		{
			"alphaMode":"BLEND",
			"doubleSided":true,
			"name":"MI_WindowGlass",
			"pbrMetallicRoughness":{
				"baseColorFactor":[
					0.800000011920929,
					0.800000011920929,
					0.800000011920929,
					0.09545451402664185
				],
				"metallicFactor":0,
				"roughnessFactor":0.5
			}
		}
	],
	"meshes":[
		{
			"name":"Cube.128",
			"primitives":[
				{
					"attributes":{
						"POSITION":0,
						"NORMAL":1,
						"TEXCOORD_0":2,
						"TEXCOORD_1":3
					},
					"indices":4,
					"material":0
				},
				{
					"attributes":{
						"POSITION":5,
						"NORMAL":6,
						"TEXCOORD_0":7,
						"TEXCOORD_1":8
					},
					"indices":9,
					"material":1
				}
			]
		}
	],
	"textures":[
		{
			"sampler":0,
			"source":0
		},
		{
			"sampler":0,
			"source":1
		},
		{
			"sampler":0,
			"source":2
		}
	],
	"images":[
		{
			"mimeType":"image/png",
			"name":"T_WoodTrim_Normal",
			"uri":"T_WoodTrim_Normal.png"
		},
		{
			"mimeType":"image/png",
			"name":"T_WoodTrim_BaseColor",
			"uri":"T_WoodTrim_BaseColor.png"
		},
		{
			"mimeType":"image/png",
			"name":"T_WoodTrim_Roughness",
			"uri":"T_WoodTrim_Roughness.png"
		}
	],
	"accessors":[
		{
			"bufferView":0,
			"componentType":5126,
			"count":440,
			"max":[
				0.44381028413772583,
				2.6207287311553955,
				0.0923665463924408
			],
			"min":[
				-0.44381028413772583,
				1.01604425907135,
				-0.2520223557949066
			],
			"type":"VEC3"
		},
		{
			"bufferView":1,
			"componentType":5126,
			"count":440,
			"type":"VEC3"
		},
		{
			"bufferView":2,
			"componentType":5126,
			"count":440,
			"type":"VEC2"
		},
		{
			"bufferView":3,
			"componentType":5126,
			"count":440,
			"type":"VEC2"
		},
		{
			"bufferView":4,
			"componentType":5123,
			"count":900,
			"type":"SCALAR"
		},
		{
			"bufferView":5,
			"componentType":5126,
			"count":143,
			"max":[
				0.277061402797699,
				2.478931427001953,
				0.003888234496116638
			],
			"min":[
				-0.27893951535224915,
				1.0875728130340576,
				0.0038879886269569397
			],
			"type":"VEC3"
		},
		{
			"bufferView":6,
			"componentType":5126,
			"count":143,
			"type":"VEC3"
		},
		{
			"bufferView":7,
			"componentType":5126,
			"count":143,
			"type":"VEC2"
		},
		{
			"bufferView":8,
			"componentType":5126,
			"count":143,
			"type":"VEC2"
		},
		{
			"bufferView":9,
			"componentType":5123,
			"count":354,
			"type":"SCALAR"
		}
	],
	"bufferViews":[
		{
			"buffer":0,
			"byteLength":5280,
			"byteOffset":0,
			"target":34962
		},
		{
			"buffer":0,
			"byteLength":5280,
			"byteOffset":5280,
			"target":34962
		},
		{
			"buffer":0,
			"byteLength":3520,
			"byteOffset":10560,
			"target":34962
		},
		{
			"buffer":0,
			"byteLength":3520,
			"byteOffset":14080,
			"target":34962
		},
		{
			"buffer":0,
			"byteLength":1800,
			"byteOffset":17600,
			"target":34963
		},
		{
			"buffer":0,
			"byteLength":1716,
			"byteOffset":19400,
			"target":34962
		},
		{
			"buffer":0,
			"byteLength":1716,
			"byteOffset":21116,
			"target":34962
		},
		{
			"buffer":0,
			"byteLength":1144,
			"byteOffset":22832,
			"target":34962
		},
		{
			"buffer":0,
			"byteLength":1144,
			"byteOffset":23976,
			"target":34962
		},
		{
			"buffer":0,
			"byteLength":708,
			"byteOffset":25120,
			"target":34963
		}
	],
	"samplers":[
		{
			"magFilter":9729,
			"minFilter":9987
		}
	],
	"buffers":[
		{
			"byteLength":25828,
			"uri":"Window_Thin_Round1.bin"
		}
	]
}
