{
  "accessors": [
    {
      "bufferView": 2,
      "componentType": 5126,
      "count": 260,
      "max": [
        182.27487182617188,
        203.73683166503906,
        841.6066284179688
      ],
      "min": [
        -200.58995056152344,
        -184.6479949951172,
        0.0
      ],
      "type": "VEC3"
    },
    {
      "bufferView": 2,
      "byteOffset": 3120,
      "componentType": 5126,
      "count": 260,
      "type": "VEC3"
    },
    {
      "bufferView": 1,
      "componentType": 5126,
      "count": 260,
      "type": "VEC2"
    },
    {
      "bufferView": 0,
      "componentType": 5125,
      "count": 819,
      "type": "SCALAR"
    },
    {
      "bufferView": 2,
      "byteOffset": 6240,
      "componentType": 5126,
      "count": 960,
      "max": [
        210.55490112304688,
        245.72923278808594,
        884.51220703125
      ],
      "min": [
        -230.39430236816406,
        -209.971435546875,
        187.4665069580078
      ],
      "type": "VEC3"
    },
    {
      "bufferView": 2,
      "byteOffset": 17760,
      "componentType": 5126,
      "count": 960,
      "type": "VEC3"
    },
    {
      "bufferView": 1,
      "byteOffset": 2080,
      "componentType": 5126,
      "count": 960,
      "type": "VEC2"
    },
    {
      "bufferView": 0,
      "byteOffset": 3276,
      "componentType": 5125,
      "count": 1440,
      "type": "SCALAR"
    },
    {
      "bufferView": 2,
      "byteOffset": 29280,
      "componentType": 5126,
      "count": 288,
      "max": [
        241.26580810546875,
        241.80645751953125,
        865.88916015625
      ],
      "min": [
        -208.07003784179688,
        -206.56390380859375,
        214.8270721435547
      ],
      "type": "VEC3"
    },
    {
      "bufferView": 2,
      "byteOffset": 32736,
      "componentType": 5126,
      "count": 288,
      "type": "VEC3"
    },
    {
      "bufferView": 1,
      "byteOffset": 9760,
      "componentType": 5126,
      "count": 288,
      "type": "VEC2"
    },
    {
      "bufferView": 0,
      "byteOffset": 9036,
      "componentType": 5125,
      "count": 576,
      "type": "SCALAR"
    }
  ],
  "asset": {
    "generator": "fab-model-conversion",
    "version": "2.0"
  },
  "bufferViews": [
    {
      "buffer": 0,
      "byteLength": 11340,
      "target": 34963
    },
    {
      "buffer": 0,
      "byteLength": 12064,
      "byteOffset": 11340,
      "byteStride": 8,
      "target": 34962
    },
    {
      "buffer": 0,
      "byteLength": 36192,
      "byteOffset": 23404,
      "byteStride": 12,
      "target": 34962
    }
  ],
  "buffers": [
    {
      "byteLength": 59596,
      "uri": "scene.bin"
    }
  ],
  "images": [
    {
      "uri": "textures/tronc_jabami_mat_baseColor.png"
    },
    {
      "uri": "textures/jabami_leave_tree_00_mat_baseColor.png"
    },
    {
      "uri": "textures/jabami_leave_tree_01_mat_baseColor.png"
    }
  ],
  "materials": [
    {
      "doubleSided": true,
      "name": "tronc_jabami_mat",
      "pbrMetallicRoughness": {
        "baseColorTexture": {
          "index": 0
        },
        "metallicFactor": 0.0
      }
    },
    {
      "alphaMode": "BLEND",
      "doubleSided": true,
      "name": "jabami_leave_tree_00_mat",
      "pbrMetallicRoughness": {
        "baseColorTexture": {
          "index": 1
        },
        "metallicFactor": 0.0
      }
    },
    {
      "alphaMode": "BLEND",
      "doubleSided": true,
      "name": "jabami_leave_tree_01_mat",
      "pbrMetallicRoughness": {
        "baseColorTexture": {
          "index": 2
        },
        "metallicFactor": 0.0
      }
    }
  ],
  "meshes": [
    {
      "name": "textures\\bark\\bark08_tronc_jabami_mat_0",
      "primitives": [
        {
          "attributes": {
            "NORMAL": 1,
            "POSITION": 0,
            "TEXCOORD_0": 2
          },
          "indices": 3,
          "material": 0,
          "mode": 4
        }
      ]
    },
    {
      "name": "textures\\bark\\bark08_jabami_leave_tree_00_mat_0",
      "primitives": [
        {
          "attributes": {
            "NORMAL": 5,
            "POSITION": 4,
            "TEXCOORD_0": 6
          },
          "indices": 7,
          "material": 1,
          "mode": 4
        }
      ]
    },
    {
      "name": "textures\\bark\\bark08_jabami_leave_tree_01_mat_0",
      "primitives": [
        {
          "attributes": {
            "NORMAL": 9,
            "POSITION": 8,
            "TEXCOORD_0": 10
          },
          "indices": 11,
          "material": 2,
          "mode": 4
        }
      ]
    }
  ],
  "nodes": [
    {
      "children": [
        1
      ],
      "matrix": [
        1.0,
        0.0,
        0.0,
        0.0,
        0.0,
        2.220446049250313e-16,
        -1.0,
        0.0,
        0.0,
        1.0,
        2.220446049250313e-16,
        0.0,
        0.0,
        0.0,
        0.0,
        1.0
      ],
      "name": "Sketchfab_model"
    },
    {
      "children": [
        2
      ],
      "matrix": [
        0.009999999776482582,
        0.0,
        0.0,
        0.0,
        0.0,
        0.0,
        0.009999999776482582,
        0.0,
        0.0,
        -0.009999999776482582,
        0.0,
        0.0,
        0.0,
        0.0,
        0.0,
        1.0
      ],
      "name": "medium01.fbx"
    },
    {
      "children": [
        3
      ],
      "name": "RootNode"
    },
    {
      "children": [
        4,
        5,
        6
      ],
      "matrix": [
        1.0,
        0.0,
        0.0,
        0.0,
        0.0,
        -1.6292067939183141e-07,
        -0.9999999999999868,
        0.0,
        0.0,
        0.9999999999999868,
        -1.6292067939183141e-07,
        0.0,
        0.0,
        0.0,
        0.0,
        1.0
      ],
      "name": "textures\\bark\\bark08"
    },
    {
      "mesh": 0,
      "name": "textures\\bark\\bark08_tronc_jabami_mat_0"
    },
    {
      "mesh": 1,
      "name": "textures\\bark\\bark08_jabami_leave_tree_00_mat_0"
    },
    {
      "mesh": 2,
      "name": "textures\\bark\\bark08_jabami_leave_tree_01_mat_0"
    }
  ],
  "samplers": [
    {
      "magFilter": 9729,
      "minFilter": 9987,
      "wrapS": 10497,
      "wrapT": 10497
    }
  ],
  "scene": 0,
  "scenes": [
    {
      "name": "Sketchfab_Scene",
      "nodes": [
        0
      ]
    }
  ],
  "textures": [
    {
      "sampler": 0,
      "source": 0
    },
    {
      "sampler": 0,
      "source": 1
    },
    {
      "sampler": 0,
      "source": 2
    }
  ]
}
