{
	"asset":{
		"generator":"Khronos glTF Blender I/O v4.0.44",
		"version":"2.0"
	},
	"scene":0,
	"scenes":[
		{
			"name":"Scene",
			"nodes":[
				0
			]
		}
	],
	"nodes":[
		{
			"mesh":0,
			"name":"Axe_Bronze",
			"rotation":[
				0,
				0,
				-0.7071066498756409,
				0.70710688829422
			],
			"scale":[
				0.8469019532203674,
				0.8469019532203674,
				0.8469019532203674
			]
		}
	],
	"materials":[
		{
			"doubleSided":true,
			"name":"MI_Trim_Props_Vertex",
			"normalTexture":{
				"index":0
			},
			"pbrMetallicRoughness":{
				"baseColorTexture":{
					"index":1
				},
				"metallicRoughnessTexture":{
					"index":2
				}
			}
		}
	],
	"meshes":[
		{
			"name":"Cylinder.004",
			"primitives":[
				{
					"attributes":{
						"COLOR_0":0,
						"POSITION":1,
						"NORMAL":2,
						"TEXCOORD_0":3
					},
					"indices":4,
					"material":0
				}
			]
		}
	],
	"textures":[
		{
			"sampler":0,
			"source":0
		},
		{
			"sampler":0,
			"source":1
		},
		{
			"sampler":0,
			"source":2
		}
	],
	"images":[
		{
			"mimeType":"image/png",
			"name":"T_Trim_Props_Normal",
			"uri":"T_Trim_Props_Normal.png"
		},
		{
			"mimeType":"image/png",
			"name":"T_Trim_Props_BaseColor",
			"uri":"T_Trim_Props_BaseColor.png"
		},
		{
			"mimeType":"image/png",
			"name":"T_Trim_Props_ORM",
			"uri":"T_Trim_Props_ORM.png"
		}
	],
	"accessors":[
		{
			"bufferView":0,
			"componentType":5123,
			"count":655,
			"normalized":true,
			"type":"VEC4"
		},
		{
			"bufferView":1,
			"componentType":5126,
			"count":655,
			"max":[
				0.4494159519672394,
				0.11641929298639297,
				0.02716672793030739
			],
			"min":[
				-0.5269971489906311,
				-0.23127518594264984,
				-0.027166731655597687
			],
			"type":"VEC3"
		},
		{
			"bufferView":2,
			"componentType":5126,
			"count":655,
			"type":"VEC3"
		},
		{
			"bufferView":3,
			"componentType":5126,
			"count":655,
			"type":"VEC2"
		},
		{
			"bufferView":4,
			"componentType":5123,
			"count":2478,
			"type":"SCALAR"
		}
	],
	"bufferViews":[
		{
			"buffer":0,
			"byteLength":5240,
			"byteOffset":0,
			"target":34962
		},
		{
			"buffer":0,
			"byteLength":7860,
			"byteOffset":5240,
			"target":34962
		},
		{
			"buffer":0,
			"byteLength":7860,
			"byteOffset":13100,
			"target":34962
		},
		{
			"buffer":0,
			"byteLength":5240,
			"byteOffset":20960,
			"target":34962
		},
		{
			"buffer":0,
			"byteLength":4956,
			"byteOffset":26200,
			"target":34963
		}
	],
	"samplers":[
		{
			"magFilter":9729,
			"minFilter":9987
		}
	],
	"buffers":[
		{
			"byteLength":31156,
			"uri":"Axe_Bronze.bin"
		}
	]
}
