{
	"asset":{
		"generator":"Khronos glTF Blender I/O v4.0.44",
		"version":"2.0"
	},
	"scene":0,
	"scenes":[
		{
			"name":"Scene",
			"nodes":[
				0
			]
		}
	],
	"nodes":[
		{
			"mesh":0,
			"name":"Barrel_Holder"
		}
	],
	"materials":[
		{
			"doubleSided":true,
			"name":"MI_Trim_Furniture",
			"normalTexture":{
				"index":0
			},
			"pbrMetallicRoughness":{
				"baseColorTexture":{
					"index":1
				},
				"metallicRoughnessTexture":{
					"index":2
				}
			}
		},
		{
			"doubleSided":true,
			"name":"MI_Trim_Metal",
			"normalTexture":{
				"index":3
			},
			"pbrMetallicRoughness":{
				"baseColorTexture":{
					"index":4
				},
				"metallicRoughnessTexture":{
					"index":5
				}
			}
		}
	],
	"meshes":[
		{
			"name":"Cube.045",
			"primitives":[
				{
					"attributes":{
						"COLOR_0":0,
						"POSITION":1,
						"NORMAL":2,
						"TEXCOORD_0":3
					},
					"indices":4,
					"material":0
				},
				{
					"attributes":{
						"COLOR_0":5,
						"POSITION":6,
						"NORMAL":7,
						"TEXCOORD_0":8
					},
					"indices":9,
					"material":1
				}
			]
		}
	],
	"textures":[
		{
			"sampler":0,
			"source":0
		},
		{
			"sampler":0,
			"source":1
		},
		{
			"sampler":0,
			"source":2
		},
		{
			"sampler":0,
			"source":3
		},
		{
			"sampler":0,
			"source":4
		},
		{
			"sampler":0,
			"source":5
		}
	],
	"images":[
		{
			"mimeType":"image/png",
			"name":"T_Trim_Furniture_Normal",
			"uri":"T_Trim_Furniture_Normal.png"
		},
		{
			"mimeType":"image/png",
			"name":"T_Trim_Furniture_BaseColor",
			"uri":"T_Trim_Furniture_BaseColor.png"
		},
		{
			"mimeType":"image/png",
			"name":"T_Trim_Furniture_ORM",
			"uri":"T_Trim_Furniture_ORM.png"
		},
		{
			"mimeType":"image/png",
			"name":"T_Trim_Metal_Normal",
			"uri":"T_Trim_Metal_Normal.png"
		},
		{
			"mimeType":"image/png",
			"name":"T_Trim_Metal_BaseColor",
			"uri":"T_Trim_Metal_BaseColor.png"
		},
		{
			"mimeType":"image/png",
			"name":"T_Trim_Metal_ORM",
			"uri":"T_Trim_Metal_ORM.png"
		}
	],
	"accessors":[
		{
			"bufferView":0,
			"componentType":5123,
			"count":1790,
			"normalized":true,
			"type":"VEC4"
		},
		{
			"bufferView":1,
			"componentType":5126,
			"count":1790,
			"max":[
				0.6776637434959412,
				1.2503478527069092,
				0.35821568965911865
			],
			"min":[
				-0.6776637434959412,
				-0.006288634147495031,
				-0.35199832916259766
			],
			"type":"VEC3"
		},
		{
			"bufferView":2,
			"componentType":5126,
			"count":1790,
			"type":"VEC3"
		},
		{
			"bufferView":3,
			"componentType":5126,
			"count":1790,
			"type":"VEC2"
		},
		{
			"bufferView":4,
			"componentType":5123,
			"count":4032,
			"type":"SCALAR"
		},
		{
			"bufferView":5,
			"componentType":5123,
			"count":1854,
			"normalized":true,
			"type":"VEC4"
		},
		{
			"bufferView":6,
			"componentType":5126,
			"count":1854,
			"max":[
				0.679623007774353,
				1.2511107921600342,
				0.3889680802822113
			],
			"min":[
				-0.679623007774353,
				0.7135266661643982,
				-0.23948796093463898
			],
			"type":"VEC3"
		},
		{
			"bufferView":7,
			"componentType":5126,
			"count":1854,
			"type":"VEC3"
		},
		{
			"bufferView":8,
			"componentType":5126,
			"count":1854,
			"type":"VEC2"
		},
		{
			"bufferView":9,
			"componentType":5123,
			"count":3996,
			"type":"SCALAR"
		}
	],
	"bufferViews":[
		{
			"buffer":0,
			"byteLength":14320,
			"byteOffset":0,
			"target":34962
		},
		{
			"buffer":0,
			"byteLength":21480,
			"byteOffset":14320,
			"target":34962
		},
		{
			"buffer":0,
			"byteLength":21480,
			"byteOffset":35800,
			"target":34962
		},
		{
			"buffer":0,
			"byteLength":14320,
			"byteOffset":57280,
			"target":34962
		},
		{
			"buffer":0,
			"byteLength":8064,
			"byteOffset":71600,
			"target":34963
		},
		{
			"buffer":0,
			"byteLength":14832,
			"byteOffset":79664,
			"target":34962
		},
		{
			"buffer":0,
			"byteLength":22248,
			"byteOffset":94496,
			"target":34962
		},
		{
			"buffer":0,
			"byteLength":22248,
			"byteOffset":116744,
			"target":34962
		},
		{
			"buffer":0,
			"byteLength":14832,
			"byteOffset":138992,
			"target":34962
		},
		{
			"buffer":0,
			"byteLength":7992,
			"byteOffset":153824,
			"target":34963
		}
	],
	"samplers":[
		{
			"magFilter":9729,
			"minFilter":9987
		}
	],
	"buffers":[
		{
			"byteLength":161816,
			"uri":"Barrel_Holder.bin"
		}
	]
}
