{
	"asset":{
		"generator":"Khronos glTF Blender I/O v4.0.44",
		"version":"2.0"
	},
	"scene":0,
	"scenes":[
		{
			"name":"Scene",
			"nodes":[
				0
			]
		}
	],
	"nodes":[
		{
			"mesh":0,
			"name":"Barrel"
		}
	],
	"materials":[
		{
			"doubleSided":true,
			"name":"MI_Trim_Furniture",
			"normalTexture":{
				"index":0
			},
			"pbrMetallicRoughness":{
				"baseColorTexture":{
					"index":1
				},
				"metallicRoughnessTexture":{
					"index":2
				}
			}
		},
		{
			"doubleSided":true,
			"name":"MI_Trim_Metal",
			"normalTexture":{
				"index":3
			},
			"pbrMetallicRoughness":{
				"baseColorTexture":{
					"index":4
				},
				"metallicRoughnessTexture":{
					"index":5
				}
			}
		}
	],
	"meshes":[
		{
			"name":"Cylinder",
			"primitives":[
				{
					"attributes":{
						"COLOR_0":0,
						"POSITION":1,
						"NORMAL":2,
						"TEXCOORD_0":3
					},
					"indices":4,
					"material":0
				},
				{
					"attributes":{
						"COLOR_0":5,
						"POSITION":6,
						"NORMAL":7,
						"TEXCOORD_0":8
					},
					"indices":9,
					"material":1
				}
			]
		}
	],
	"textures":[
		{
			"sampler":0,
			"source":0
		},
		{
			"sampler":0,
			"source":1
		},
		{
			"sampler":0,
			"source":2
		},
		{
			"sampler":0,
			"source":3
		},
		{
			"sampler":0,
			"source":4
		},
		{
			"sampler":0,
			"source":5
		}
	],
	"images":[
		{
			"mimeType":"image/png",
			"name":"T_Trim_Furniture_Normal",
			"uri":"T_Trim_Furniture_Normal.png"
		},
		{
			"mimeType":"image/png",
			"name":"T_Trim_Furniture_BaseColor",
			"uri":"T_Trim_Furniture_BaseColor.png"
		},
		{
			"mimeType":"image/png",
			"name":"T_Trim_Furniture_ORM",
			"uri":"T_Trim_Furniture_ORM.png"
		},
		{
			"mimeType":"image/png",
			"name":"T_Trim_Metal_Normal",
			"uri":"T_Trim_Metal_Normal.png"
		},
		{
			"mimeType":"image/png",
			"name":"T_Trim_Metal_BaseColor",
			"uri":"T_Trim_Metal_BaseColor.png"
		},
		{
			"mimeType":"image/png",
			"name":"T_Trim_Metal_ORM",
			"uri":"T_Trim_Metal_ORM.png"
		}
	],
	"accessors":[
		{
			"bufferView":0,
			"componentType":5123,
			"count":579,
			"normalized":true,
			"type":"VEC4"
		},
		{
			"bufferView":1,
			"componentType":5126,
			"count":579,
			"max":[
				0.3480248749256134,
				0.9013950824737549,
				0.3480248749256134
			],
			"min":[
				-0.3480248749256134,
				0.003436744213104248,
				-0.3480248749256134
			],
			"type":"VEC3"
		},
		{
			"bufferView":2,
			"componentType":5126,
			"count":579,
			"type":"VEC3"
		},
		{
			"bufferView":3,
			"componentType":5126,
			"count":579,
			"type":"VEC2"
		},
		{
			"bufferView":4,
			"componentType":5123,
			"count":1176,
			"type":"SCALAR"
		},
		{
			"bufferView":5,
			"componentType":5123,
			"count":726,
			"normalized":true,
			"type":"VEC4"
		},
		{
			"bufferView":6,
			"componentType":5126,
			"count":726,
			"max":[
				0.3490154445171356,
				0.7329425811767578,
				0.3490155041217804
			],
			"min":[
				-0.34901556372642517,
				0.14952683448791504,
				-0.349015474319458
			],
			"type":"VEC3"
		},
		{
			"bufferView":7,
			"componentType":5126,
			"count":726,
			"type":"VEC3"
		},
		{
			"bufferView":8,
			"componentType":5126,
			"count":726,
			"type":"VEC2"
		},
		{
			"bufferView":9,
			"componentType":5123,
			"count":1296,
			"type":"SCALAR"
		}
	],
	"bufferViews":[
		{
			"buffer":0,
			"byteLength":4632,
			"byteOffset":0,
			"target":34962
		},
		{
			"buffer":0,
			"byteLength":6948,
			"byteOffset":4632,
			"target":34962
		},
		{
			"buffer":0,
			"byteLength":6948,
			"byteOffset":11580,
			"target":34962
		},
		{
			"buffer":0,
			"byteLength":4632,
			"byteOffset":18528,
			"target":34962
		},
		{
			"buffer":0,
			"byteLength":2352,
			"byteOffset":23160,
			"target":34963
		},
		{
			"buffer":0,
			"byteLength":5808,
			"byteOffset":25512,
			"target":34962
		},
		{
			"buffer":0,
			"byteLength":8712,
			"byteOffset":31320,
			"target":34962
		},
		{
			"buffer":0,
			"byteLength":8712,
			"byteOffset":40032,
			"target":34962
		},
		{
			"buffer":0,
			"byteLength":5808,
			"byteOffset":48744,
			"target":34962
		},
		{
			"buffer":0,
			"byteLength":2592,
			"byteOffset":54552,
			"target":34963
		}
	],
	"samplers":[
		{
			"magFilter":9729,
			"minFilter":9987
		}
	],
	"buffers":[
		{
			"byteLength":57144,
			"uri":"Barrel.bin"
		}
	]
}
