{
	"asset":{
		"generator":"Khronos glTF Blender I/O v4.0.44",
		"version":"2.0"
	},
	"scene":0,
	"scenes":[
		{
			"name":"Scene",
			"nodes":[
				0
			]
		}
	],
	"nodes":[
		{
			"mesh":0,
			"name":"Bed_Twin2"
		}
	],
	"materials":[
		{
			"doubleSided":true,
			"name":"MI_Trim_Furniture",
			"normalTexture":{
				"index":0
			},
			"pbrMetallicRoughness":{
				"baseColorTexture":{
					"index":1
				},
				"metallicRoughnessTexture":{
					"index":2
				}
			}
		},
		{
			"doubleSided":true,
			"name":"MI_Trim_Metal",
			"normalTexture":{
				"index":3
			},
			"pbrMetallicRoughness":{
				"baseColorTexture":{
					"index":4
				},
				"metallicRoughnessTexture":{
					"index":5
				}
			}
		},
		{
			"doubleSided":true,
			"name":"MI_Trim_Cloth",
			"normalTexture":{
				"index":6
			},
			"pbrMetallicRoughness":{
				"baseColorTexture":{
					"index":7
				},
				"metallicRoughnessTexture":{
					"index":8
				}
			}
		}
	],
	"meshes":[
		{
			"name":"Cube.217",
			"primitives":[
				{
					"attributes":{
						"COLOR_0":0,
						"POSITION":1,
						"NORMAL":2,
						"TEXCOORD_0":3
					},
					"indices":4,
					"material":0
				},
				{
					"attributes":{
						"COLOR_0":5,
						"POSITION":6,
						"NORMAL":7,
						"TEXCOORD_0":8
					},
					"indices":9,
					"material":1
				},
				{
					"attributes":{
						"COLOR_0":10,
						"POSITION":11,
						"NORMAL":12,
						"TEXCOORD_0":13
					},
					"indices":14,
					"material":2
				}
			]
		}
	],
	"textures":[
		{
			"sampler":0,
			"source":0
		},
		{
			"sampler":0,
			"source":1
		},
		{
			"sampler":0,
			"source":2
		},
		{
			"sampler":0,
			"source":3
		},
		{
			"sampler":0,
			"source":4
		},
		{
			"sampler":0,
			"source":5
		},
		{
			"sampler":0,
			"source":6
		},
		{
			"sampler":0,
			"source":7
		},
		{
			"sampler":0,
			"source":8
		}
	],
	"images":[
		{
			"mimeType":"image/png",
			"name":"T_Trim_Furniture_Normal",
			"uri":"T_Trim_Furniture_Normal.png"
		},
		{
			"mimeType":"image/png",
			"name":"T_Trim_Furniture_BaseColor",
			"uri":"T_Trim_Furniture_BaseColor.png"
		},
		{
			"mimeType":"image/png",
			"name":"T_Trim_Furniture_ORM",
			"uri":"T_Trim_Furniture_ORM.png"
		},
		{
			"mimeType":"image/png",
			"name":"T_Trim_Metal_Normal",
			"uri":"T_Trim_Metal_Normal.png"
		},
		{
			"mimeType":"image/png",
			"name":"T_Trim_Metal_BaseColor",
			"uri":"T_Trim_Metal_BaseColor.png"
		},
		{
			"mimeType":"image/png",
			"name":"T_Trim_Metal_ORM",
			"uri":"T_Trim_Metal_ORM.png"
		},
		{
			"mimeType":"image/png",
			"name":"T_Trim_Cloth_Normal",
			"uri":"T_Trim_Cloth_Normal.png"
		},
		{
			"mimeType":"image/png",
			"name":"T_Trim_Cloth_BaseColor",
			"uri":"T_Trim_Cloth_BaseColor.png"
		},
		{
			"mimeType":"image/png",
			"name":"T_Trim_Cloth_ORM",
			"uri":"T_Trim_Cloth_ORM.png"
		}
	],
	"accessors":[
		{
			"bufferView":0,
			"componentType":5123,
			"count":1216,
			"normalized":true,
			"type":"VEC4"
		},
		{
			"bufferView":1,
			"componentType":5126,
			"count":1216,
			"max":[
				0.9378617405891418,
				0.7556167244911194,
				1.205949068069458
			],
			"min":[
				-0.9378617405891418,
				0.0004533232713583857,
				-1.205949068069458
			],
			"type":"VEC3"
		},
		{
			"bufferView":2,
			"componentType":5126,
			"count":1216,
			"type":"VEC3"
		},
		{
			"bufferView":3,
			"componentType":5126,
			"count":1216,
			"type":"VEC2"
		},
		{
			"bufferView":4,
			"componentType":5123,
			"count":2940,
			"type":"SCALAR"
		},
		{
			"bufferView":5,
			"componentType":5123,
			"count":160,
			"normalized":true,
			"type":"VEC4"
		},
		{
			"bufferView":6,
			"componentType":5126,
			"count":160,
			"max":[
				0.7206220030784607,
				0.7600604295730591,
				1.138973593711853
			],
			"min":[
				-0.7275890111923218,
				0.16273373365402222,
				-1.1464409828186035
			],
			"type":"VEC3"
		},
		{
			"bufferView":7,
			"componentType":5126,
			"count":160,
			"type":"VEC3"
		},
		{
			"bufferView":8,
			"componentType":5126,
			"count":160,
			"type":"VEC2"
		},
		{
			"bufferView":9,
			"componentType":5123,
			"count":528,
			"type":"SCALAR"
		},
		{
			"bufferView":10,
			"componentType":5123,
			"count":302,
			"normalized":true,
			"type":"VEC4"
		},
		{
			"bufferView":11,
			"componentType":5126,
			"count":302,
			"max":[
				0.6707859039306641,
				0.6944201588630676,
				1.0489273071289062
			],
			"min":[
				-0.6707857847213745,
				0.27071884274482727,
				-1.0911182165145874
			],
			"type":"VEC3"
		},
		{
			"bufferView":12,
			"componentType":5126,
			"count":302,
			"type":"VEC3"
		},
		{
			"bufferView":13,
			"componentType":5126,
			"count":302,
			"type":"VEC2"
		},
		{
			"bufferView":14,
			"componentType":5123,
			"count":1284,
			"type":"SCALAR"
		}
	],
	"bufferViews":[
		{
			"buffer":0,
			"byteLength":9728,
			"byteOffset":0,
			"target":34962
		},
		{
			"buffer":0,
			"byteLength":14592,
			"byteOffset":9728,
			"target":34962
		},
		{
			"buffer":0,
			"byteLength":14592,
			"byteOffset":24320,
			"target":34962
		},
		{
			"buffer":0,
			"byteLength":9728,
			"byteOffset":38912,
			"target":34962
		},
		{
			"buffer":0,
			"byteLength":5880,
			"byteOffset":48640,
			"target":34963
		},
		{
			"buffer":0,
			"byteLength":1280,
			"byteOffset":54520,
			"target":34962
		},
		{
			"buffer":0,
			"byteLength":1920,
			"byteOffset":55800,
			"target":34962
		},
		{
			"buffer":0,
			"byteLength":1920,
			"byteOffset":57720,
			"target":34962
		},
		{
			"buffer":0,
			"byteLength":1280,
			"byteOffset":59640,
			"target":34962
		},
		{
			"buffer":0,
			"byteLength":1056,
			"byteOffset":60920,
			"target":34963
		},
		{
			"buffer":0,
			"byteLength":2416,
			"byteOffset":61976,
			"target":34962
		},
		{
			"buffer":0,
			"byteLength":3624,
			"byteOffset":64392,
			"target":34962
		},
		{
			"buffer":0,
			"byteLength":3624,
			"byteOffset":68016,
			"target":34962
		},
		{
			"buffer":0,
			"byteLength":2416,
			"byteOffset":71640,
			"target":34962
		},
		{
			"buffer":0,
			"byteLength":2568,
			"byteOffset":74056,
			"target":34963
		}
	],
	"samplers":[
		{
			"magFilter":9729,
			"minFilter":9987
		}
	],
	"buffers":[
		{
			"byteLength":76624,
			"uri":"Bed_Twin2.bin"
		}
	]
}
