{
	"asset":{
		"generator":"Khronos glTF Blender I/O v4.0.44",
		"version":"2.0"
	},
	"scene":0,
	"scenes":[
		{
			"name":"Scene",
			"nodes":[
				0
			]
		}
	],
	"nodes":[
		{
			"mesh":0,
			"name":"BookStand"
		}
	],
	"materials":[
		{
			"doubleSided":true,
			"name":"MI_Trim_Furniture",
			"normalTexture":{
				"index":0
			},
			"pbrMetallicRoughness":{
				"baseColorTexture":{
					"index":1
				},
				"metallicRoughnessTexture":{
					"index":2
				}
			}
		}
	],
	"meshes":[
		{
			"name":"Cube.169",
			"primitives":[
				{
					"attributes":{
						"POSITION":0,
						"NORMAL":1,
						"TEXCOORD_0":2
					},
					"indices":3,
					"material":0
				}
			]
		}
	],
	"textures":[
		{
			"sampler":0,
			"source":0
		},
		{
			"sampler":0,
			"source":1
		},
		{
			"sampler":0,
			"source":2
		}
	],
	"images":[
		{
			"mimeType":"image/png",
			"name":"T_Trim_Furniture_Normal",
			"uri":"T_Trim_Furniture_Normal.png"
		},
		{
			"mimeType":"image/png",
			"name":"T_Trim_Furniture_BaseColor",
			"uri":"T_Trim_Furniture_BaseColor.png"
		},
		{
			"mimeType":"image/png",
			"name":"T_Trim_Furniture_ORM",
			"uri":"T_Trim_Furniture_ORM.png"
		}
	],
	"accessors":[
		{
			"bufferView":0,
			"componentType":5126,
			"count":1652,
			"max":[
				0.25363287329673767,
				1.444292664527893,
				0.2556697130203247
			],
			"min":[
				-0.2534816861152649,
				-0.00249952613376081,
				-0.2555173337459564
			],
			"type":"VEC3"
		},
		{
			"bufferView":1,
			"componentType":5126,
			"count":1652,
			"type":"VEC3"
		},
		{
			"bufferView":2,
			"componentType":5126,
			"count":1652,
			"type":"VEC2"
		},
		{
			"bufferView":3,
			"componentType":5123,
			"count":4578,
			"type":"SCALAR"
		}
	],
	"bufferViews":[
		{
			"buffer":0,
			"byteLength":19824,
			"byteOffset":0,
			"target":34962
		},
		{
			"buffer":0,
			"byteLength":19824,
			"byteOffset":19824,
			"target":34962
		},
		{
			"buffer":0,
			"byteLength":13216,
			"byteOffset":39648,
			"target":34962
		},
		{
			"buffer":0,
			"byteLength":9156,
			"byteOffset":52864,
			"target":34963
		}
	],
	"samplers":[
		{
			"magFilter":9729,
			"minFilter":9987
		}
	],
	"buffers":[
		{
			"byteLength":62020,
			"uri":"BookStand.bin"
		}
	]
}
