{
	"asset":{
		"generator":"Khronos glTF Blender I/O v4.0.44",
		"version":"2.0"
	},
	"scene":0,
	"scenes":[
		{
			"name":"Scene",
			"nodes":[
				0
			]
		}
	],
	"nodes":[
		{
			"mesh":0,
			"name":"Book_7"
		}
	],
	"materials":[
		{
			"doubleSided":true,
			"name":"MI_Trim_Props_Vertex",
			"normalTexture":{
				"index":0
			},
			"pbrMetallicRoughness":{
				"baseColorTexture":{
					"index":1
				},
				"metallicRoughnessTexture":{
					"index":2
				}
			}
		},
		{
			"doubleSided":true,
			"name":"MI_Trim_Metal",
			"normalTexture":{
				"index":3
			},
			"pbrMetallicRoughness":{
				"baseColorTexture":{
					"index":4
				},
				"metallicRoughnessTexture":{
					"index":5
				}
			}
		}
	],
	"meshes":[
		{
			"name":"Cube.133",
			"primitives":[
				{
					"attributes":{
						"COLOR_0":0,
						"POSITION":1,
						"NORMAL":2,
						"TEXCOORD_0":3
					},
					"indices":4,
					"material":0
				},
				{
					"attributes":{
						"COLOR_0":5,
						"POSITION":6,
						"NORMAL":7,
						"TEXCOORD_0":8
					},
					"indices":9,
					"material":1
				}
			]
		}
	],
	"textures":[
		{
			"sampler":0,
			"source":0
		},
		{
			"sampler":0,
			"source":1
		},
		{
			"sampler":0,
			"source":2
		},
		{
			"sampler":0,
			"source":3
		},
		{
			"sampler":0,
			"source":4
		},
		{
			"sampler":0,
			"source":5
		}
	],
	"images":[
		{
			"mimeType":"image/png",
			"name":"T_Trim_Props_Normal",
			"uri":"T_Trim_Props_Normal.png"
		},
		{
			"mimeType":"image/png",
			"name":"T_Trim_Props_BaseColor",
			"uri":"T_Trim_Props_BaseColor.png"
		},
		{
			"mimeType":"image/png",
			"name":"T_Trim_Props_ORM",
			"uri":"T_Trim_Props_ORM.png"
		},
		{
			"mimeType":"image/png",
			"name":"T_Trim_Metal_Normal",
			"uri":"T_Trim_Metal_Normal.png"
		},
		{
			"mimeType":"image/png",
			"name":"T_Trim_Metal_BaseColor",
			"uri":"T_Trim_Metal_BaseColor.png"
		},
		{
			"mimeType":"image/png",
			"name":"T_Trim_Metal_ORM",
			"uri":"T_Trim_Metal_ORM.png"
		}
	],
	"accessors":[
		{
			"bufferView":0,
			"componentType":5123,
			"count":132,
			"normalized":true,
			"type":"VEC4"
		},
		{
			"bufferView":1,
			"componentType":5126,
			"count":132,
			"max":[
				0.1140872910618782,
				0.032035063952207565,
				0.1654440015554428
			],
			"min":[
				-0.13129183650016785,
				-0.032035063952207565,
				-0.1654440015554428
			],
			"type":"VEC3"
		},
		{
			"bufferView":2,
			"componentType":5126,
			"count":132,
			"type":"VEC3"
		},
		{
			"bufferView":3,
			"componentType":5126,
			"count":132,
			"type":"VEC2"
		},
		{
			"bufferView":4,
			"componentType":5123,
			"count":288,
			"type":"SCALAR"
		},
		{
			"bufferView":5,
			"componentType":5123,
			"count":576,
			"normalized":true,
			"type":"VEC4"
		},
		{
			"bufferView":6,
			"componentType":5126,
			"count":576,
			"max":[
				0.115714430809021,
				0.03394145146012306,
				0.1666259914636612
			],
			"min":[
				0.027933772653341293,
				-0.03394145146012306,
				-0.1666259914636612
			],
			"type":"VEC3"
		},
		{
			"bufferView":7,
			"componentType":5126,
			"count":576,
			"type":"VEC3"
		},
		{
			"bufferView":8,
			"componentType":5126,
			"count":576,
			"type":"VEC2"
		},
		{
			"bufferView":9,
			"componentType":5123,
			"count":1884,
			"type":"SCALAR"
		}
	],
	"bufferViews":[
		{
			"buffer":0,
			"byteLength":1056,
			"byteOffset":0,
			"target":34962
		},
		{
			"buffer":0,
			"byteLength":1584,
			"byteOffset":1056,
			"target":34962
		},
		{
			"buffer":0,
			"byteLength":1584,
			"byteOffset":2640,
			"target":34962
		},
		{
			"buffer":0,
			"byteLength":1056,
			"byteOffset":4224,
			"target":34962
		},
		{
			"buffer":0,
			"byteLength":576,
			"byteOffset":5280,
			"target":34963
		},
		{
			"buffer":0,
			"byteLength":4608,
			"byteOffset":5856,
			"target":34962
		},
		{
			"buffer":0,
			"byteLength":6912,
			"byteOffset":10464,
			"target":34962
		},
		{
			"buffer":0,
			"byteLength":6912,
			"byteOffset":17376,
			"target":34962
		},
		{
			"buffer":0,
			"byteLength":4608,
			"byteOffset":24288,
			"target":34962
		},
		{
			"buffer":0,
			"byteLength":3768,
			"byteOffset":28896,
			"target":34963
		}
	],
	"samplers":[
		{
			"magFilter":9729,
			"minFilter":9987
		}
	],
	"buffers":[
		{
			"byteLength":32664,
			"uri":"Book_7.bin"
		}
	]
}
