{
	"asset":{
		"generator":"Khronos glTF Blender I/O v4.0.44",
		"version":"2.0"
	},
	"scene":0,
	"scenes":[
		{
			"name":"Scene",
			"nodes":[
				0
			]
		}
	],
	"nodes":[
		{
			"mesh":0,
			"name":"Bucket_Wooden_1"
		}
	],
	"materials":[
		{
			"doubleSided":true,
			"name":"MI_Trim_Furniture",
			"normalTexture":{
				"index":0
			},
			"pbrMetallicRoughness":{
				"baseColorTexture":{
					"index":1
				},
				"metallicRoughnessTexture":{
					"index":2
				}
			}
		},
		{
			"doubleSided":true,
			"name":"MI_Trim_Metal",
			"normalTexture":{
				"index":3
			},
			"pbrMetallicRoughness":{
				"baseColorTexture":{
					"index":4
				},
				"metallicRoughnessTexture":{
					"index":5
				}
			}
		}
	],
	"meshes":[
		{
			"name":"Cylinder.019",
			"primitives":[
				{
					"attributes":{
						"POSITION":0,
						"NORMAL":1,
						"TEXCOORD_0":2
					},
					"indices":3,
					"material":0
				},
				{
					"attributes":{
						"POSITION":4,
						"NORMAL":5,
						"TEXCOORD_0":6
					},
					"indices":7,
					"material":1
				}
			]
		}
	],
	"textures":[
		{
			"sampler":0,
			"source":0
		},
		{
			"sampler":0,
			"source":1
		},
		{
			"sampler":0,
			"source":2
		},
		{
			"sampler":0,
			"source":3
		},
		{
			"sampler":0,
			"source":4
		},
		{
			"sampler":0,
			"source":5
		}
	],
	"images":[
		{
			"mimeType":"image/png",
			"name":"T_Trim_Furniture_Normal",
			"uri":"T_Trim_Furniture_Normal.png"
		},
		{
			"mimeType":"image/png",
			"name":"T_Trim_Furniture_BaseColor",
			"uri":"T_Trim_Furniture_BaseColor.png"
		},
		{
			"mimeType":"image/png",
			"name":"T_Trim_Furniture_ORM",
			"uri":"T_Trim_Furniture_ORM.png"
		},
		{
			"mimeType":"image/png",
			"name":"T_Trim_Metal_Normal",
			"uri":"T_Trim_Metal_Normal.png"
		},
		{
			"mimeType":"image/png",
			"name":"T_Trim_Metal_BaseColor",
			"uri":"T_Trim_Metal_BaseColor.png"
		},
		{
			"mimeType":"image/png",
			"name":"T_Trim_Metal_ORM",
			"uri":"T_Trim_Metal_ORM.png"
		}
	],
	"accessors":[
		{
			"bufferView":0,
			"componentType":5126,
			"count":629,
			"max":[
				0.18755918741226196,
				0.2934951186180115,
				0.18401481211185455
			],
			"min":[
				-0.1879671812057495,
				0.0007063584635034204,
				-0.1814224272966385
			],
			"type":"VEC3"
		},
		{
			"bufferView":1,
			"componentType":5126,
			"count":629,
			"type":"VEC3"
		},
		{
			"bufferView":2,
			"componentType":5126,
			"count":629,
			"type":"VEC2"
		},
		{
			"bufferView":3,
			"componentType":5123,
			"count":1932,
			"type":"SCALAR"
		},
		{
			"bufferView":4,
			"componentType":5126,
			"count":205,
			"max":[
				0.21795988082885742,
				0.27774932980537415,
				0.012171942740678787
			],
			"min":[
				-0.2159692943096161,
				0.2439849078655243,
				-0.19943936169147491
			],
			"type":"VEC3"
		},
		{
			"bufferView":5,
			"componentType":5126,
			"count":205,
			"type":"VEC3"
		},
		{
			"bufferView":6,
			"componentType":5126,
			"count":205,
			"type":"VEC2"
		},
		{
			"bufferView":7,
			"componentType":5123,
			"count":996,
			"type":"SCALAR"
		}
	],
	"bufferViews":[
		{
			"buffer":0,
			"byteLength":7548,
			"byteOffset":0,
			"target":34962
		},
		{
			"buffer":0,
			"byteLength":7548,
			"byteOffset":7548,
			"target":34962
		},
		{
			"buffer":0,
			"byteLength":5032,
			"byteOffset":15096,
			"target":34962
		},
		{
			"buffer":0,
			"byteLength":3864,
			"byteOffset":20128,
			"target":34963
		},
		{
			"buffer":0,
			"byteLength":2460,
			"byteOffset":23992,
			"target":34962
		},
		{
			"buffer":0,
			"byteLength":2460,
			"byteOffset":26452,
			"target":34962
		},
		{
			"buffer":0,
			"byteLength":1640,
			"byteOffset":28912,
			"target":34962
		},
		{
			"buffer":0,
			"byteLength":1992,
			"byteOffset":30552,
			"target":34963
		}
	],
	"samplers":[
		{
			"magFilter":9729,
			"minFilter":9987
		}
	],
	"buffers":[
		{
			"byteLength":32544,
			"uri":"Bucket_Wooden_1.bin"
		}
	]
}
