{
	"asset":{
		"generator":"Khronos glTF Blender I/O v4.0.44",
		"version":"2.0"
	},
	"scene":0,
	"scenes":[
		{
			"name":"Scene",
			"nodes":[
				0
			]
		}
	],
	"nodes":[
		{
			"mesh":0,
			"name":"CandleStick_Triple"
		}
	],
	"materials":[
		{
			"doubleSided":true,
			"name":"MI_Trim_Metal",
			"normalTexture":{
				"index":0
			},
			"pbrMetallicRoughness":{
				"baseColorTexture":{
					"index":1
				},
				"metallicRoughnessTexture":{
					"index":2
				}
			}
		},
		{
			"doubleSided":true,
			"name":"MI_Trim_Props",
			"normalTexture":{
				"index":3
			},
			"pbrMetallicRoughness":{
				"baseColorTexture":{
					"index":4
				},
				"metallicRoughnessTexture":{
					"index":5
				}
			}
		}
	],
	"meshes":[
		{
			"name":"Cylinder.091",
			"primitives":[
				{
					"attributes":{
						"POSITION":0,
						"NORMAL":1,
						"TEXCOORD_0":2
					},
					"indices":3,
					"material":0
				},
				{
					"attributes":{
						"POSITION":4,
						"NORMAL":5,
						"TEXCOORD_0":6
					},
					"indices":7,
					"material":1
				}
			]
		}
	],
	"textures":[
		{
			"sampler":0,
			"source":0
		},
		{
			"sampler":0,
			"source":1
		},
		{
			"sampler":0,
			"source":2
		},
		{
			"sampler":0,
			"source":3
		},
		{
			"sampler":0,
			"source":4
		},
		{
			"sampler":0,
			"source":5
		}
	],
	"images":[
		{
			"mimeType":"image/png",
			"name":"T_Trim_Metal_Normal",
			"uri":"T_Trim_Metal_Normal.png"
		},
		{
			"mimeType":"image/png",
			"name":"T_Trim_Metal_BaseColor",
			"uri":"T_Trim_Metal_BaseColor.png"
		},
		{
			"mimeType":"image/png",
			"name":"T_Trim_Metal_ORM",
			"uri":"T_Trim_Metal_ORM.png"
		},
		{
			"mimeType":"image/png",
			"name":"T_Trim_Props_Normal",
			"uri":"T_Trim_Props_Normal.png"
		},
		{
			"mimeType":"image/png",
			"name":"T_Trim_Props_BaseColor",
			"uri":"T_Trim_Props_BaseColor.png"
		},
		{
			"mimeType":"image/png",
			"name":"T_Trim_Props_ORM",
			"uri":"T_Trim_Props_ORM.png"
		}
	],
	"accessors":[
		{
			"bufferView":0,
			"componentType":5126,
			"count":1374,
			"max":[
				0.2241368293762207,
				0.3738442361354828,
				0.07037830352783203
			],
			"min":[
				-0.21819257736206055,
				-0.0008449911838397384,
				-0.0659799575805664
			],
			"type":"VEC3"
		},
		{
			"bufferView":1,
			"componentType":5126,
			"count":1374,
			"type":"VEC3"
		},
		{
			"bufferView":2,
			"componentType":5126,
			"count":1374,
			"type":"VEC2"
		},
		{
			"bufferView":3,
			"componentType":5123,
			"count":5682,
			"type":"SCALAR"
		},
		{
			"bufferView":4,
			"componentType":5126,
			"count":476,
			"max":[
				0.19426250457763672,
				0.4624083340167999,
				0.03006458282470703
			],
			"min":[
				-0.19252681732177734,
				0.27429595589637756,
				-0.027184486389160156
			],
			"type":"VEC3"
		},
		{
			"bufferView":5,
			"componentType":5126,
			"count":476,
			"type":"VEC3"
		},
		{
			"bufferView":6,
			"componentType":5126,
			"count":476,
			"type":"VEC2"
		},
		{
			"bufferView":7,
			"componentType":5123,
			"count":1902,
			"type":"SCALAR"
		}
	],
	"bufferViews":[
		{
			"buffer":0,
			"byteLength":16488,
			"byteOffset":0,
			"target":34962
		},
		{
			"buffer":0,
			"byteLength":16488,
			"byteOffset":16488,
			"target":34962
		},
		{
			"buffer":0,
			"byteLength":10992,
			"byteOffset":32976,
			"target":34962
		},
		{
			"buffer":0,
			"byteLength":11364,
			"byteOffset":43968,
			"target":34963
		},
		{
			"buffer":0,
			"byteLength":5712,
			"byteOffset":55332,
			"target":34962
		},
		{
			"buffer":0,
			"byteLength":5712,
			"byteOffset":61044,
			"target":34962
		},
		{
			"buffer":0,
			"byteLength":3808,
			"byteOffset":66756,
			"target":34962
		},
		{
			"buffer":0,
			"byteLength":3804,
			"byteOffset":70564,
			"target":34963
		}
	],
	"samplers":[
		{
			"magFilter":9729,
			"minFilter":9987
		}
	],
	"buffers":[
		{
			"byteLength":74368,
			"uri":"CandleStick_Triple.bin"
		}
	]
}
