{
	"asset":{
		"generator":"Khronos glTF Blender I/O v4.0.44",
		"version":"2.0"
	},
	"scene":0,
	"scenes":[
		{
			"name":"Scene",
			"nodes":[
				0
			]
		}
	],
	"nodes":[
		{
			"mesh":0,
			"name":"CandleStick_Stand"
		}
	],
	"materials":[
		{
			"doubleSided":true,
			"name":"MI_Trim_Metal",
			"normalTexture":{
				"index":0
			},
			"pbrMetallicRoughness":{
				"baseColorTexture":{
					"index":1
				},
				"metallicRoughnessTexture":{
					"index":2
				}
			}
		},
		{
			"doubleSided":true,
			"name":"MI_Trim_Props_Vertex",
			"normalTexture":{
				"index":3
			},
			"pbrMetallicRoughness":{
				"baseColorTexture":{
					"index":4
				},
				"metallicRoughnessTexture":{
					"index":5
				}
			}
		}
	],
	"meshes":[
		{
			"name":"Cylinder.127",
			"primitives":[
				{
					"attributes":{
						"COLOR_0":0,
						"POSITION":1,
						"NORMAL":2,
						"TEXCOORD_0":3
					},
					"indices":4,
					"material":0
				},
				{
					"attributes":{
						"COLOR_0":5,
						"POSITION":6,
						"NORMAL":7,
						"TEXCOORD_0":8
					},
					"indices":9,
					"material":1
				}
			]
		}
	],
	"textures":[
		{
			"sampler":0,
			"source":0
		},
		{
			"sampler":0,
			"source":1
		},
		{
			"sampler":0,
			"source":2
		},
		{
			"sampler":0,
			"source":3
		},
		{
			"sampler":0,
			"source":4
		},
		{
			"sampler":0,
			"source":5
		}
	],
	"images":[
		{
			"mimeType":"image/png",
			"name":"T_Trim_Metal_Normal",
			"uri":"T_Trim_Metal_Normal.png"
		},
		{
			"mimeType":"image/png",
			"name":"T_Trim_Metal_BaseColor",
			"uri":"T_Trim_Metal_BaseColor.png"
		},
		{
			"mimeType":"image/png",
			"name":"T_Trim_Metal_ORM",
			"uri":"T_Trim_Metal_ORM.png"
		},
		{
			"mimeType":"image/png",
			"name":"T_Trim_Props_Normal",
			"uri":"T_Trim_Props_Normal.png"
		},
		{
			"mimeType":"image/png",
			"name":"T_Trim_Props_BaseColor",
			"uri":"T_Trim_Props_BaseColor.png"
		},
		{
			"mimeType":"image/png",
			"name":"T_Trim_Props_ORM",
			"uri":"T_Trim_Props_ORM.png"
		}
	],
	"accessors":[
		{
			"bufferView":0,
			"componentType":5123,
			"count":2810,
			"normalized":true,
			"type":"VEC4"
		},
		{
			"bufferView":1,
			"componentType":5126,
			"count":2810,
			"max":[
				0.3656429648399353,
				1.1970200538635254,
				0.36562031507492065
			],
			"min":[
				-0.36662405729293823,
				-0.007947052828967571,
				-0.36566540598869324
			],
			"type":"VEC3"
		},
		{
			"bufferView":2,
			"componentType":5126,
			"count":2810,
			"type":"VEC3"
		},
		{
			"bufferView":3,
			"componentType":5126,
			"count":2810,
			"type":"VEC2"
		},
		{
			"bufferView":4,
			"componentType":5123,
			"count":11124,
			"type":"SCALAR"
		},
		{
			"bufferView":5,
			"componentType":5123,
			"count":1985,
			"normalized":true,
			"type":"VEC4"
		},
		{
			"bufferView":6,
			"componentType":5126,
			"count":1985,
			"max":[
				0.3439567983150482,
				1.304558515548706,
				0.3408641815185547
			],
			"min":[
				-0.34282851219177246,
				0.9577401280403137,
				-0.34276488423347473
			],
			"type":"VEC3"
		},
		{
			"bufferView":7,
			"componentType":5126,
			"count":1985,
			"type":"VEC3"
		},
		{
			"bufferView":8,
			"componentType":5126,
			"count":1985,
			"type":"VEC2"
		},
		{
			"bufferView":9,
			"componentType":5123,
			"count":6090,
			"type":"SCALAR"
		}
	],
	"bufferViews":[
		{
			"buffer":0,
			"byteLength":22480,
			"byteOffset":0,
			"target":34962
		},
		{
			"buffer":0,
			"byteLength":33720,
			"byteOffset":22480,
			"target":34962
		},
		{
			"buffer":0,
			"byteLength":33720,
			"byteOffset":56200,
			"target":34962
		},
		{
			"buffer":0,
			"byteLength":22480,
			"byteOffset":89920,
			"target":34962
		},
		{
			"buffer":0,
			"byteLength":22248,
			"byteOffset":112400,
			"target":34963
		},
		{
			"buffer":0,
			"byteLength":15880,
			"byteOffset":134648,
			"target":34962
		},
		{
			"buffer":0,
			"byteLength":23820,
			"byteOffset":150528,
			"target":34962
		},
		{
			"buffer":0,
			"byteLength":23820,
			"byteOffset":174348,
			"target":34962
		},
		{
			"buffer":0,
			"byteLength":15880,
			"byteOffset":198168,
			"target":34962
		},
		{
			"buffer":0,
			"byteLength":12180,
			"byteOffset":214048,
			"target":34963
		}
	],
	"samplers":[
		{
			"magFilter":9729,
			"minFilter":9987
		}
	],
	"buffers":[
		{
			"byteLength":226228,
			"uri":"CandleStick_Stand.bin"
		}
	]
}
