{
	"asset":{
		"generator":"Khronos glTF Blender I/O v4.0.44",
		"version":"2.0"
	},
	"scene":0,
	"scenes":[
		{
			"name":"Scene",
			"nodes":[
				0
			]
		}
	],
	"nodes":[
		{
			"mesh":0,
			"name":"Chalice"
		}
	],
	"materials":[
		{
			"doubleSided":true,
			"name":"MI_Trim_Metal",
			"normalTexture":{
				"index":0
			},
			"pbrMetallicRoughness":{
				"baseColorTexture":{
					"index":1
				},
				"metallicRoughnessTexture":{
					"index":2
				}
			}
		}
	],
	"meshes":[
		{
			"name":"Cylinder.070",
			"primitives":[
				{
					"attributes":{
						"POSITION":0,
						"NORMAL":1,
						"TEXCOORD_0":2
					},
					"indices":3,
					"material":0
				}
			]
		}
	],
	"textures":[
		{
			"sampler":0,
			"source":0
		},
		{
			"sampler":0,
			"source":1
		},
		{
			"sampler":0,
			"source":2
		}
	],
	"images":[
		{
			"mimeType":"image/png",
			"name":"T_Trim_Metal_Normal",
			"uri":"T_Trim_Metal_Normal.png"
		},
		{
			"mimeType":"image/png",
			"name":"T_Trim_Metal_BaseColor",
			"uri":"T_Trim_Metal_BaseColor.png"
		},
		{
			"mimeType":"image/png",
			"name":"T_Trim_Metal_ORM",
			"uri":"T_Trim_Metal_ORM.png"
		}
	],
	"accessors":[
		{
			"bufferView":0,
			"componentType":5126,
			"count":403,
			"max":[
				0.05921125039458275,
				0.25575128197669983,
				0.062258366495370865
			],
			"min":[
				-0.059211231768131256,
				-0.0009331703186035156,
				-0.062258366495370865
			],
			"type":"VEC3"
		},
		{
			"bufferView":1,
			"componentType":5126,
			"count":403,
			"type":"VEC3"
		},
		{
			"bufferView":2,
			"componentType":5126,
			"count":403,
			"type":"VEC2"
		},
		{
			"bufferView":3,
			"componentType":5123,
			"count":1374,
			"type":"SCALAR"
		}
	],
	"bufferViews":[
		{
			"buffer":0,
			"byteLength":4836,
			"byteOffset":0,
			"target":34962
		},
		{
			"buffer":0,
			"byteLength":4836,
			"byteOffset":4836,
			"target":34962
		},
		{
			"buffer":0,
			"byteLength":3224,
			"byteOffset":9672,
			"target":34962
		},
		{
			"buffer":0,
			"byteLength":2748,
			"byteOffset":12896,
			"target":34963
		}
	],
	"samplers":[
		{
			"magFilter":9729,
			"minFilter":9987
		}
	],
	"buffers":[
		{
			"byteLength":15644,
			"uri":"Chalice.bin"
		}
	]
}
