{
	"asset":{
		"generator":"Khronos glTF Blender I/O v4.0.44",
		"version":"2.0"
	},
	"scene":0,
	"scenes":[
		{
			"name":"Scene",
			"nodes":[
				0
			]
		}
	],
	"nodes":[
		{
			"mesh":0,
			"name":"Chandelier"
		}
	],
	"materials":[
		{
			"doubleSided":true,
			"name":"MI_Trim_Metal",
			"normalTexture":{
				"index":0
			},
			"pbrMetallicRoughness":{
				"baseColorTexture":{
					"index":1
				},
				"metallicRoughnessTexture":{
					"index":2
				}
			}
		},
		{
			"doubleSided":true,
			"name":"MI_Trim_Furniture",
			"normalTexture":{
				"index":3
			},
			"pbrMetallicRoughness":{
				"baseColorTexture":{
					"index":4
				},
				"metallicRoughnessTexture":{
					"index":5
				}
			}
		},
		{
			"doubleSided":true,
			"name":"MI_Trim_Props_Vertex",
			"normalTexture":{
				"index":6
			},
			"pbrMetallicRoughness":{
				"baseColorTexture":{
					"index":7
				},
				"metallicRoughnessTexture":{
					"index":8
				}
			}
		}
	],
	"meshes":[
		{
			"name":"Cylinder.092",
			"primitives":[
				{
					"attributes":{
						"COLOR_0":0,
						"POSITION":1,
						"NORMAL":2,
						"TEXCOORD_0":3
					},
					"indices":4,
					"material":0
				},
				{
					"attributes":{
						"COLOR_0":5,
						"POSITION":6,
						"NORMAL":7,
						"TEXCOORD_0":8
					},
					"indices":9,
					"material":1
				},
				{
					"attributes":{
						"COLOR_0":10,
						"POSITION":11,
						"NORMAL":12,
						"TEXCOORD_0":13
					},
					"indices":14,
					"material":2
				}
			]
		}
	],
	"textures":[
		{
			"sampler":0,
			"source":0
		},
		{
			"sampler":0,
			"source":1
		},
		{
			"sampler":0,
			"source":2
		},
		{
			"sampler":0,
			"source":3
		},
		{
			"sampler":0,
			"source":4
		},
		{
			"sampler":0,
			"source":5
		},
		{
			"sampler":0,
			"source":6
		},
		{
			"sampler":0,
			"source":7
		},
		{
			"sampler":0,
			"source":8
		}
	],
	"images":[
		{
			"mimeType":"image/png",
			"name":"T_Trim_Metal_Normal",
			"uri":"T_Trim_Metal_Normal.png"
		},
		{
			"mimeType":"image/png",
			"name":"T_Trim_Metal_BaseColor",
			"uri":"T_Trim_Metal_BaseColor.png"
		},
		{
			"mimeType":"image/png",
			"name":"T_Trim_Metal_ORM",
			"uri":"T_Trim_Metal_ORM.png"
		},
		{
			"mimeType":"image/png",
			"name":"T_Trim_Furniture_Normal",
			"uri":"T_Trim_Furniture_Normal.png"
		},
		{
			"mimeType":"image/png",
			"name":"T_Trim_Furniture_BaseColor",
			"uri":"T_Trim_Furniture_BaseColor.png"
		},
		{
			"mimeType":"image/png",
			"name":"T_Trim_Furniture_ORM",
			"uri":"T_Trim_Furniture_ORM.png"
		},
		{
			"mimeType":"image/png",
			"name":"T_Trim_Props_Normal",
			"uri":"T_Trim_Props_Normal.png"
		},
		{
			"mimeType":"image/png",
			"name":"T_Trim_Props_BaseColor",
			"uri":"T_Trim_Props_BaseColor.png"
		},
		{
			"mimeType":"image/png",
			"name":"T_Trim_Props_ORM",
			"uri":"T_Trim_Props_ORM.png"
		}
	],
	"accessors":[
		{
			"bufferView":0,
			"componentType":5123,
			"count":3582,
			"normalized":true,
			"type":"VEC4"
		},
		{
			"bufferView":1,
			"componentType":5126,
			"count":3582,
			"max":[
				0.651257336139679,
				0.035917043685913086,
				0.651257336139679
			],
			"min":[
				-0.6512573957443237,
				-1.2606366872787476,
				-0.651257336139679
			],
			"type":"VEC3"
		},
		{
			"bufferView":2,
			"componentType":5126,
			"count":3582,
			"type":"VEC3"
		},
		{
			"bufferView":3,
			"componentType":5126,
			"count":3582,
			"type":"VEC2"
		},
		{
			"bufferView":4,
			"componentType":5123,
			"count":10230,
			"type":"SCALAR"
		},
		{
			"bufferView":5,
			"componentType":5123,
			"count":248,
			"normalized":true,
			"type":"VEC4"
		},
		{
			"bufferView":6,
			"componentType":5126,
			"count":248,
			"max":[
				0.5572736859321594,
				-1.1233465671539307,
				0.5544241070747375
			],
			"min":[
				-0.5575311183929443,
				-1.2585351467132568,
				-0.5542735457420349
			],
			"type":"VEC3"
		},
		{
			"bufferView":7,
			"componentType":5126,
			"count":248,
			"type":"VEC3"
		},
		{
			"bufferView":8,
			"componentType":5126,
			"count":248,
			"type":"VEC2"
		},
		{
			"bufferView":9,
			"componentType":5123,
			"count":720,
			"type":"SCALAR"
		},
		{
			"bufferView":10,
			"componentType":5123,
			"count":1985,
			"normalized":true,
			"type":"VEC4"
		},
		{
			"bufferView":11,
			"componentType":5126,
			"count":1985,
			"max":[
				0.6183496117591858,
				-0.9082695245742798,
				0.6136910319328308
			],
			"min":[
				-0.6160293221473694,
				-1.4217151403427124,
				-0.6165067553520203
			],
			"type":"VEC3"
		},
		{
			"bufferView":12,
			"componentType":5126,
			"count":1985,
			"type":"VEC3"
		},
		{
			"bufferView":13,
			"componentType":5126,
			"count":1985,
			"type":"VEC2"
		},
		{
			"bufferView":14,
			"componentType":5123,
			"count":6090,
			"type":"SCALAR"
		}
	],
	"bufferViews":[
		{
			"buffer":0,
			"byteLength":28656,
			"byteOffset":0,
			"target":34962
		},
		{
			"buffer":0,
			"byteLength":42984,
			"byteOffset":28656,
			"target":34962
		},
		{
			"buffer":0,
			"byteLength":42984,
			"byteOffset":71640,
			"target":34962
		},
		{
			"buffer":0,
			"byteLength":28656,
			"byteOffset":114624,
			"target":34962
		},
		{
			"buffer":0,
			"byteLength":20460,
			"byteOffset":143280,
			"target":34963
		},
		{
			"buffer":0,
			"byteLength":1984,
			"byteOffset":163740,
			"target":34962
		},
		{
			"buffer":0,
			"byteLength":2976,
			"byteOffset":165724,
			"target":34962
		},
		{
			"buffer":0,
			"byteLength":2976,
			"byteOffset":168700,
			"target":34962
		},
		{
			"buffer":0,
			"byteLength":1984,
			"byteOffset":171676,
			"target":34962
		},
		{
			"buffer":0,
			"byteLength":1440,
			"byteOffset":173660,
			"target":34963
		},
		{
			"buffer":0,
			"byteLength":15880,
			"byteOffset":175100,
			"target":34962
		},
		{
			"buffer":0,
			"byteLength":23820,
			"byteOffset":190980,
			"target":34962
		},
		{
			"buffer":0,
			"byteLength":23820,
			"byteOffset":214800,
			"target":34962
		},
		{
			"buffer":0,
			"byteLength":15880,
			"byteOffset":238620,
			"target":34962
		},
		{
			"buffer":0,
			"byteLength":12180,
			"byteOffset":254500,
			"target":34963
		}
	],
	"samplers":[
		{
			"magFilter":9729,
			"minFilter":9987
		}
	],
	"buffers":[
		{
			"byteLength":266680,
			"uri":"Chandelier.bin"
		}
	]
}
