{
	"asset":{
		"generator":"Khronos glTF Blender I/O v4.3.47",
		"version":"2.0"
	},
	"scene":0,
	"scenes":[
		{
			"name":"Scene",
			"nodes":[
				5
			]
		}
	],
	"nodes":[
		{
			"name":"Chest_Top",
			"translation":[
				1.8592691830576769e-09,
				0.42861831188201904,
				-0.314306378364563
			]
		},
		{
			"children":[
				0
			],
			"name":"Chest_Bottom",
			"rotation":[
				0,
				-1.1920928955078125e-07,
				0,
				1
			]
		},
		{
			"children":[
				1
			],
			"name":"Root",
			"rotation":[
				0,
				1.1920928955078125e-07,
				0,
				1
			]
		},
		{
			"mesh":0,
			"name":"Chest_Wood_Base",
			"skin":0
		},
		{
			"mesh":1,
			"name":"Chest_Wood_Lid",
			"skin":0
		},
		{
			"children":[
				3,
				4,
				2
			],
			"name":"Chest_Armature"
		}
	],
	"animations":[
		{
			"channels":[
				{
					"sampler":0,
					"target":{
						"node":2,
						"path":"translation"
					}
				},
				{
					"sampler":1,
					"target":{
						"node":2,
						"path":"rotation"
					}
				},
				{
					"sampler":2,
					"target":{
						"node":2,
						"path":"scale"
					}
				},
				{
					"sampler":3,
					"target":{
						"node":1,
						"path":"translation"
					}
				},
				{
					"sampler":4,
					"target":{
						"node":1,
						"path":"rotation"
					}
				},
				{
					"sampler":5,
					"target":{
						"node":1,
						"path":"scale"
					}
				},
				{
					"sampler":6,
					"target":{
						"node":0,
						"path":"translation"
					}
				},
				{
					"sampler":7,
					"target":{
						"node":0,
						"path":"rotation"
					}
				},
				{
					"sampler":8,
					"target":{
						"node":0,
						"path":"scale"
					}
				}
			],
			"name":"Chest_Close",
			"samplers":[
				{
					"input":25,
					"interpolation":"STEP",
					"output":26
				},
				{
					"input":25,
					"interpolation":"STEP",
					"output":27
				},
				{
					"input":25,
					"interpolation":"STEP",
					"output":28
				},
				{
					"input":29,
					"interpolation":"LINEAR",
					"output":30
				},
				{
					"input":29,
					"interpolation":"LINEAR",
					"output":31
				},
				{
					"input":25,
					"interpolation":"STEP",
					"output":32
				},
				{
					"input":25,
					"interpolation":"STEP",
					"output":33
				},
				{
					"input":29,
					"interpolation":"LINEAR",
					"output":34
				},
				{
					"input":25,
					"interpolation":"STEP",
					"output":35
				}
			]
		},
		{
			"channels":[
				{
					"sampler":0,
					"target":{
						"node":2,
						"path":"translation"
					}
				},
				{
					"sampler":1,
					"target":{
						"node":2,
						"path":"rotation"
					}
				},
				{
					"sampler":2,
					"target":{
						"node":2,
						"path":"scale"
					}
				},
				{
					"sampler":3,
					"target":{
						"node":1,
						"path":"translation"
					}
				},
				{
					"sampler":4,
					"target":{
						"node":1,
						"path":"rotation"
					}
				},
				{
					"sampler":5,
					"target":{
						"node":1,
						"path":"scale"
					}
				},
				{
					"sampler":6,
					"target":{
						"node":0,
						"path":"translation"
					}
				},
				{
					"sampler":7,
					"target":{
						"node":0,
						"path":"rotation"
					}
				},
				{
					"sampler":8,
					"target":{
						"node":0,
						"path":"scale"
					}
				}
			],
			"name":"Chest_Closed",
			"samplers":[
				{
					"input":36,
					"interpolation":"STEP",
					"output":37
				},
				{
					"input":36,
					"interpolation":"STEP",
					"output":38
				},
				{
					"input":36,
					"interpolation":"STEP",
					"output":39
				},
				{
					"input":36,
					"interpolation":"STEP",
					"output":40
				},
				{
					"input":36,
					"interpolation":"STEP",
					"output":41
				},
				{
					"input":36,
					"interpolation":"STEP",
					"output":42
				},
				{
					"input":36,
					"interpolation":"STEP",
					"output":43
				},
				{
					"input":36,
					"interpolation":"STEP",
					"output":44
				},
				{
					"input":36,
					"interpolation":"STEP",
					"output":45
				}
			]
		},
		{
			"channels":[
				{
					"sampler":0,
					"target":{
						"node":2,
						"path":"translation"
					}
				},
				{
					"sampler":1,
					"target":{
						"node":2,
						"path":"rotation"
					}
				},
				{
					"sampler":2,
					"target":{
						"node":2,
						"path":"scale"
					}
				},
				{
					"sampler":3,
					"target":{
						"node":1,
						"path":"translation"
					}
				},
				{
					"sampler":4,
					"target":{
						"node":1,
						"path":"rotation"
					}
				},
				{
					"sampler":5,
					"target":{
						"node":1,
						"path":"scale"
					}
				},
				{
					"sampler":6,
					"target":{
						"node":0,
						"path":"translation"
					}
				},
				{
					"sampler":7,
					"target":{
						"node":0,
						"path":"rotation"
					}
				},
				{
					"sampler":8,
					"target":{
						"node":0,
						"path":"scale"
					}
				}
			],
			"name":"Chest_Open",
			"samplers":[
				{
					"input":46,
					"interpolation":"STEP",
					"output":47
				},
				{
					"input":46,
					"interpolation":"STEP",
					"output":48
				},
				{
					"input":46,
					"interpolation":"STEP",
					"output":49
				},
				{
					"input":50,
					"interpolation":"LINEAR",
					"output":51
				},
				{
					"input":50,
					"interpolation":"LINEAR",
					"output":52
				},
				{
					"input":46,
					"interpolation":"STEP",
					"output":53
				},
				{
					"input":46,
					"interpolation":"STEP",
					"output":54
				},
				{
					"input":50,
					"interpolation":"LINEAR",
					"output":55
				},
				{
					"input":46,
					"interpolation":"STEP",
					"output":56
				}
			]
		},
		{
			"channels":[
				{
					"sampler":0,
					"target":{
						"node":2,
						"path":"translation"
					}
				},
				{
					"sampler":1,
					"target":{
						"node":2,
						"path":"rotation"
					}
				},
				{
					"sampler":2,
					"target":{
						"node":2,
						"path":"scale"
					}
				},
				{
					"sampler":3,
					"target":{
						"node":1,
						"path":"translation"
					}
				},
				{
					"sampler":4,
					"target":{
						"node":1,
						"path":"rotation"
					}
				},
				{
					"sampler":5,
					"target":{
						"node":1,
						"path":"scale"
					}
				},
				{
					"sampler":6,
					"target":{
						"node":0,
						"path":"translation"
					}
				},
				{
					"sampler":7,
					"target":{
						"node":0,
						"path":"rotation"
					}
				},
				{
					"sampler":8,
					"target":{
						"node":0,
						"path":"scale"
					}
				}
			],
			"name":"Chest_Opened",
			"samplers":[
				{
					"input":36,
					"interpolation":"STEP",
					"output":57
				},
				{
					"input":36,
					"interpolation":"STEP",
					"output":58
				},
				{
					"input":36,
					"interpolation":"STEP",
					"output":59
				},
				{
					"input":36,
					"interpolation":"STEP",
					"output":60
				},
				{
					"input":36,
					"interpolation":"STEP",
					"output":61
				},
				{
					"input":36,
					"interpolation":"STEP",
					"output":62
				},
				{
					"input":36,
					"interpolation":"STEP",
					"output":63
				},
				{
					"input":36,
					"interpolation":"STEP",
					"output":64
				},
				{
					"input":36,
					"interpolation":"STEP",
					"output":65
				}
			]
		}
	],
	"materials":[
		{
			"doubleSided":true,
			"name":"MI_Trim_Furniture",
			"normalTexture":{
				"index":0
			},
			"pbrMetallicRoughness":{
				"baseColorTexture":{
					"index":1
				},
				"metallicRoughnessTexture":{
					"index":2
				}
			}
		},
		{
			"doubleSided":true,
			"name":"MI_Trim_Metal",
			"normalTexture":{
				"index":3
			},
			"pbrMetallicRoughness":{
				"baseColorTexture":{
					"index":4
				},
				"metallicRoughnessTexture":{
					"index":5
				}
			}
		}
	],
	"meshes":[
		{
			"name":"Cube.010",
			"primitives":[
				{
					"attributes":{
						"POSITION":0,
						"NORMAL":1,
						"TEXCOORD_0":2,
						"JOINTS_0":3,
						"WEIGHTS_0":4
					},
					"indices":5,
					"material":0
				},
				{
					"attributes":{
						"POSITION":6,
						"NORMAL":7,
						"TEXCOORD_0":8,
						"JOINTS_0":9,
						"WEIGHTS_0":10
					},
					"indices":11,
					"material":1
				}
			]
		},
		{
			"name":"Cube.024",
			"primitives":[
				{
					"attributes":{
						"POSITION":13,
						"NORMAL":14,
						"TEXCOORD_0":15,
						"JOINTS_0":16,
						"WEIGHTS_0":17
					},
					"indices":18,
					"material":0
				},
				{
					"attributes":{
						"POSITION":19,
						"NORMAL":20,
						"TEXCOORD_0":21,
						"JOINTS_0":22,
						"WEIGHTS_0":23
					},
					"indices":24,
					"material":1
				}
			]
		}
	],
	"textures":[
		{
			"sampler":0,
			"source":0
		},
		{
			"sampler":0,
			"source":1
		},
		{
			"sampler":0,
			"source":2
		},
		{
			"sampler":0,
			"source":3
		},
		{
			"sampler":0,
			"source":4
		},
		{
			"sampler":0,
			"source":5
		}
	],
	"images":[
		{
			"mimeType":"image/png",
			"name":"T_Trim_Furniture_Normal",
			"uri":"T_Trim_Furniture_Normal.png"
		},
		{
			"mimeType":"image/png",
			"name":"T_Trim_Furniture_BaseColor",
			"uri":"T_Trim_Furniture_BaseColor.png"
		},
		{
			"mimeType":"image/png",
			"name":"T_Trim_Furniture_ORM",
			"uri":"T_Trim_Furniture_ORM.png"
		},
		{
			"mimeType":"image/png",
			"name":"T_Trim_Metal_Normal",
			"uri":"T_Trim_Metal_Normal.png"
		},
		{
			"mimeType":"image/png",
			"name":"T_Trim_Metal_BaseColor",
			"uri":"T_Trim_Metal_BaseColor.png"
		},
		{
			"mimeType":"image/png",
			"name":"T_Trim_Metal_ORM",
			"uri":"T_Trim_Metal_ORM.png"
		}
	],
	"skins":[
		{
			"inverseBindMatrices":12,
			"joints":[
				2,
				1,
				0
			],
			"name":"Chest_Armature"
		}
	],
	"accessors":[
		{
			"bufferView":0,
			"componentType":5126,
			"count":72,
			"max":[
				0.5617947578430176,
				0.30550986528396606,
				0.30463868379592896
			],
			"min":[
				-0.5617947578430176,
				-0.018743285909295082,
				-0.30463868379592896
			],
			"type":"VEC3"
		},
		{
			"bufferView":1,
			"componentType":5126,
			"count":72,
			"type":"VEC3"
		},
		{
			"bufferView":2,
			"componentType":5126,
			"count":72,
			"type":"VEC2"
		},
		{
			"bufferView":3,
			"componentType":5121,
			"count":72,
			"type":"VEC4"
		},
		{
			"bufferView":4,
			"componentType":5126,
			"count":72,
			"type":"VEC4"
		},
		{
			"bufferView":5,
			"componentType":5123,
			"count":120,
			"type":"SCALAR"
		},
		{
			"bufferView":6,
			"componentType":5126,
			"count":1696,
			"max":[
				0.6376006007194519,
				0.4419105350971222,
				0.3777054250240326
			],
			"min":[
				-0.638446033000946,
				-0.022696882486343384,
				-0.3777054250240326
			],
			"type":"VEC3"
		},
		{
			"bufferView":7,
			"componentType":5126,
			"count":1696,
			"type":"VEC3"
		},
		{
			"bufferView":8,
			"componentType":5126,
			"count":1696,
			"type":"VEC2"
		},
		{
			"bufferView":9,
			"componentType":5121,
			"count":1696,
			"type":"VEC4"
		},
		{
			"bufferView":10,
			"componentType":5126,
			"count":1696,
			"type":"VEC4"
		},
		{
			"bufferView":11,
			"componentType":5123,
			"count":4164,
			"type":"SCALAR"
		},
		{
			"bufferView":12,
			"componentType":5126,
			"count":3,
			"type":"MAT4"
		},
		{
			"bufferView":13,
			"componentType":5126,
			"count":381,
			"max":[
				0.5457670092582703,
				0.6750708222389221,
				0.30920809507369995
			],
			"min":[
				-0.545767068862915,
				0.4667086601257324,
				-0.30920809507369995
			],
			"type":"VEC3"
		},
		{
			"bufferView":14,
			"componentType":5126,
			"count":381,
			"type":"VEC3"
		},
		{
			"bufferView":15,
			"componentType":5126,
			"count":381,
			"type":"VEC2"
		},
		{
			"bufferView":16,
			"componentType":5121,
			"count":381,
			"type":"VEC4"
		},
		{
			"bufferView":17,
			"componentType":5126,
			"count":381,
			"type":"VEC4"
		},
		{
			"bufferView":18,
			"componentType":5123,
			"count":984,
			"type":"SCALAR"
		},
		{
			"bufferView":19,
			"componentType":5126,
			"count":1051,
			"max":[
				0.5719738602638245,
				0.6925303339958191,
				0.3679826557636261
			],
			"min":[
				-0.5719738602638245,
				0.3248908817768097,
				-0.34208959341049194
			],
			"type":"VEC3"
		},
		{
			"bufferView":20,
			"componentType":5126,
			"count":1051,
			"type":"VEC3"
		},
		{
			"bufferView":21,
			"componentType":5126,
			"count":1051,
			"type":"VEC2"
		},
		{
			"bufferView":22,
			"componentType":5121,
			"count":1051,
			"type":"VEC4"
		},
		{
			"bufferView":23,
			"componentType":5126,
			"count":1051,
			"type":"VEC4"
		},
		{
			"bufferView":24,
			"componentType":5123,
			"count":2370,
			"type":"SCALAR"
		},
		{
			"bufferView":25,
			"componentType":5126,
			"count":2,
			"max":[
				0.5
			],
			"min":[
				0.03333333333333333
			],
			"type":"SCALAR"
		},
		{
			"bufferView":26,
			"componentType":5126,
			"count":2,
			"type":"VEC3"
		},
		{
			"bufferView":27,
			"componentType":5126,
			"count":2,
			"type":"VEC4"
		},
		{
			"bufferView":28,
			"componentType":5126,
			"count":2,
			"type":"VEC3"
		},
		{
			"bufferView":29,
			"componentType":5126,
			"count":15,
			"max":[
				0.5
			],
			"min":[
				0.03333333333333333
			],
			"type":"SCALAR"
		},
		{
			"bufferView":30,
			"componentType":5126,
			"count":15,
			"type":"VEC3"
		},
		{
			"bufferView":31,
			"componentType":5126,
			"count":15,
			"type":"VEC4"
		},
		{
			"bufferView":32,
			"componentType":5126,
			"count":2,
			"type":"VEC3"
		},
		{
			"bufferView":33,
			"componentType":5126,
			"count":2,
			"type":"VEC3"
		},
		{
			"bufferView":34,
			"componentType":5126,
			"count":15,
			"type":"VEC4"
		},
		{
			"bufferView":35,
			"componentType":5126,
			"count":2,
			"type":"VEC3"
		},
		{
			"bufferView":36,
			"componentType":5126,
			"count":2,
			"max":[
				0.3333333333333333
			],
			"min":[
				0
			],
			"type":"SCALAR"
		},
		{
			"bufferView":37,
			"componentType":5126,
			"count":2,
			"type":"VEC3"
		},
		{
			"bufferView":38,
			"componentType":5126,
			"count":2,
			"type":"VEC4"
		},
		{
			"bufferView":39,
			"componentType":5126,
			"count":2,
			"type":"VEC3"
		},
		{
			"bufferView":40,
			"componentType":5126,
			"count":2,
			"type":"VEC3"
		},
		{
			"bufferView":41,
			"componentType":5126,
			"count":2,
			"type":"VEC4"
		},
		{
			"bufferView":42,
			"componentType":5126,
			"count":2,
			"type":"VEC3"
		},
		{
			"bufferView":43,
			"componentType":5126,
			"count":2,
			"type":"VEC3"
		},
		{
			"bufferView":44,
			"componentType":5126,
			"count":2,
			"type":"VEC4"
		},
		{
			"bufferView":45,
			"componentType":5126,
			"count":2,
			"type":"VEC3"
		},
		{
			"bufferView":46,
			"componentType":5126,
			"count":2,
			"max":[
				0.6333333333333333
			],
			"min":[
				0
			],
			"type":"SCALAR"
		},
		{
			"bufferView":47,
			"componentType":5126,
			"count":2,
			"type":"VEC3"
		},
		{
			"bufferView":48,
			"componentType":5126,
			"count":2,
			"type":"VEC4"
		},
		{
			"bufferView":49,
			"componentType":5126,
			"count":2,
			"type":"VEC3"
		},
		{
			"bufferView":50,
			"componentType":5126,
			"count":20,
			"max":[
				0.6333333333333333
			],
			"min":[
				0
			],
			"type":"SCALAR"
		},
		{
			"bufferView":51,
			"componentType":5126,
			"count":20,
			"type":"VEC3"
		},
		{
			"bufferView":52,
			"componentType":5126,
			"count":20,
			"type":"VEC4"
		},
		{
			"bufferView":53,
			"componentType":5126,
			"count":2,
			"type":"VEC3"
		},
		{
			"bufferView":54,
			"componentType":5126,
			"count":2,
			"type":"VEC3"
		},
		{
			"bufferView":55,
			"componentType":5126,
			"count":20,
			"type":"VEC4"
		},
		{
			"bufferView":56,
			"componentType":5126,
			"count":2,
			"type":"VEC3"
		},
		{
			"bufferView":57,
			"componentType":5126,
			"count":2,
			"type":"VEC3"
		},
		{
			"bufferView":58,
			"componentType":5126,
			"count":2,
			"type":"VEC4"
		},
		{
			"bufferView":59,
			"componentType":5126,
			"count":2,
			"type":"VEC3"
		},
		{
			"bufferView":60,
			"componentType":5126,
			"count":2,
			"type":"VEC3"
		},
		{
			"bufferView":61,
			"componentType":5126,
			"count":2,
			"type":"VEC4"
		},
		{
			"bufferView":62,
			"componentType":5126,
			"count":2,
			"type":"VEC3"
		},
		{
			"bufferView":63,
			"componentType":5126,
			"count":2,
			"type":"VEC3"
		},
		{
			"bufferView":64,
			"componentType":5126,
			"count":2,
			"type":"VEC4"
		},
		{
			"bufferView":65,
			"componentType":5126,
			"count":2,
			"type":"VEC3"
		}
	],
	"bufferViews":[
		{
			"buffer":0,
			"byteLength":864,
			"byteOffset":0,
			"target":34962
		},
		{
			"buffer":0,
			"byteLength":864,
			"byteOffset":864,
			"target":34962
		},
		{
			"buffer":0,
			"byteLength":576,
			"byteOffset":1728,
			"target":34962
		},
		{
			"buffer":0,
			"byteLength":288,
			"byteOffset":2304,
			"target":34962
		},
		{
			"buffer":0,
			"byteLength":1152,
			"byteOffset":2592,
			"target":34962
		},
		{
			"buffer":0,
			"byteLength":240,
			"byteOffset":3744,
			"target":34963
		},
		{
			"buffer":0,
			"byteLength":20352,
			"byteOffset":3984,
			"target":34962
		},
		{
			"buffer":0,
			"byteLength":20352,
			"byteOffset":24336,
			"target":34962
		},
		{
			"buffer":0,
			"byteLength":13568,
			"byteOffset":44688,
			"target":34962
		},
		{
			"buffer":0,
			"byteLength":6784,
			"byteOffset":58256,
			"target":34962
		},
		{
			"buffer":0,
			"byteLength":27136,
			"byteOffset":65040,
			"target":34962
		},
		{
			"buffer":0,
			"byteLength":8328,
			"byteOffset":92176,
			"target":34963
		},
		{
			"buffer":0,
			"byteLength":192,
			"byteOffset":100504
		},
		{
			"buffer":0,
			"byteLength":4572,
			"byteOffset":100696,
			"target":34962
		},
		{
			"buffer":0,
			"byteLength":4572,
			"byteOffset":105268,
			"target":34962
		},
		{
			"buffer":0,
			"byteLength":3048,
			"byteOffset":109840,
			"target":34962
		},
		{
			"buffer":0,
			"byteLength":1524,
			"byteOffset":112888,
			"target":34962
		},
		{
			"buffer":0,
			"byteLength":6096,
			"byteOffset":114412,
			"target":34962
		},
		{
			"buffer":0,
			"byteLength":1968,
			"byteOffset":120508,
			"target":34963
		},
		{
			"buffer":0,
			"byteLength":12612,
			"byteOffset":122476,
			"target":34962
		},
		{
			"buffer":0,
			"byteLength":12612,
			"byteOffset":135088,
			"target":34962
		},
		{
			"buffer":0,
			"byteLength":8408,
			"byteOffset":147700,
			"target":34962
		},
		{
			"buffer":0,
			"byteLength":4204,
			"byteOffset":156108,
			"target":34962
		},
		{
			"buffer":0,
			"byteLength":16816,
			"byteOffset":160312,
			"target":34962
		},
		{
			"buffer":0,
			"byteLength":4740,
			"byteOffset":177128,
			"target":34963
		},
		{
			"buffer":0,
			"byteLength":8,
			"byteOffset":181868
		},
		{
			"buffer":0,
			"byteLength":24,
			"byteOffset":181876
		},
		{
			"buffer":0,
			"byteLength":32,
			"byteOffset":181900
		},
		{
			"buffer":0,
			"byteLength":24,
			"byteOffset":181932
		},
		{
			"buffer":0,
			"byteLength":60,
			"byteOffset":181956
		},
		{
			"buffer":0,
			"byteLength":180,
			"byteOffset":182016
		},
		{
			"buffer":0,
			"byteLength":240,
			"byteOffset":182196
		},
		{
			"buffer":0,
			"byteLength":24,
			"byteOffset":182436
		},
		{
			"buffer":0,
			"byteLength":24,
			"byteOffset":182460
		},
		{
			"buffer":0,
			"byteLength":240,
			"byteOffset":182484
		},
		{
			"buffer":0,
			"byteLength":24,
			"byteOffset":182724
		},
		{
			"buffer":0,
			"byteLength":8,
			"byteOffset":182748
		},
		{
			"buffer":0,
			"byteLength":24,
			"byteOffset":182756
		},
		{
			"buffer":0,
			"byteLength":32,
			"byteOffset":182780
		},
		{
			"buffer":0,
			"byteLength":24,
			"byteOffset":182812
		},
		{
			"buffer":0,
			"byteLength":24,
			"byteOffset":182836
		},
		{
			"buffer":0,
			"byteLength":32,
			"byteOffset":182860
		},
		{
			"buffer":0,
			"byteLength":24,
			"byteOffset":182892
		},
		{
			"buffer":0,
			"byteLength":24,
			"byteOffset":182916
		},
		{
			"buffer":0,
			"byteLength":32,
			"byteOffset":182940
		},
		{
			"buffer":0,
			"byteLength":24,
			"byteOffset":182972
		},
		{
			"buffer":0,
			"byteLength":8,
			"byteOffset":182996
		},
		{
			"buffer":0,
			"byteLength":24,
			"byteOffset":183004
		},
		{
			"buffer":0,
			"byteLength":32,
			"byteOffset":183028
		},
		{
			"buffer":0,
			"byteLength":24,
			"byteOffset":183060
		},
		{
			"buffer":0,
			"byteLength":80,
			"byteOffset":183084
		},
		{
			"buffer":0,
			"byteLength":240,
			"byteOffset":183164
		},
		{
			"buffer":0,
			"byteLength":320,
			"byteOffset":183404
		},
		{
			"buffer":0,
			"byteLength":24,
			"byteOffset":183724
		},
		{
			"buffer":0,
			"byteLength":24,
			"byteOffset":183748
		},
		{
			"buffer":0,
			"byteLength":320,
			"byteOffset":183772
		},
		{
			"buffer":0,
			"byteLength":24,
			"byteOffset":184092
		},
		{
			"buffer":0,
			"byteLength":24,
			"byteOffset":184116
		},
		{
			"buffer":0,
			"byteLength":32,
			"byteOffset":184140
		},
		{
			"buffer":0,
			"byteLength":24,
			"byteOffset":184172
		},
		{
			"buffer":0,
			"byteLength":24,
			"byteOffset":184196
		},
		{
			"buffer":0,
			"byteLength":32,
			"byteOffset":184220
		},
		{
			"buffer":0,
			"byteLength":24,
			"byteOffset":184252
		},
		{
			"buffer":0,
			"byteLength":24,
			"byteOffset":184276
		},
		{
			"buffer":0,
			"byteLength":32,
			"byteOffset":184300
		},
		{
			"buffer":0,
			"byteLength":24,
			"byteOffset":184332
		}
	],
	"samplers":[
		{
			"magFilter":9729,
			"minFilter":9987
		}
	],
	"buffers":[
		{
			"byteLength":184356,
			"uri":"Chest_Wood.bin"
		}
	]
}
