{
	"asset":{
		"generator":"Khronos glTF Blender I/O v4.0.44",
		"version":"2.0"
	},
	"scene":0,
	"scenes":[
		{
			"name":"Scene",
			"nodes":[
				0
			]
		}
	],
	"nodes":[
		{
			"mesh":0,
			"name":"Coin_Pile"
		}
	],
	"materials":[
		{
			"doubleSided":true,
			"name":"MI_Trim_Metal_Vertex",
			"normalTexture":{
				"index":0
			},
			"pbrMetallicRoughness":{
				"baseColorTexture":{
					"index":1
				},
				"metallicRoughnessTexture":{
					"index":2
				}
			}
		}
	],
	"meshes":[
		{
			"name":"Cylinder.079",
			"primitives":[
				{
					"attributes":{
						"COLOR_0":0,
						"POSITION":1,
						"NORMAL":2,
						"TEXCOORD_0":3
					},
					"indices":4,
					"material":0
				}
			]
		}
	],
	"textures":[
		{
			"sampler":0,
			"source":0
		},
		{
			"sampler":0,
			"source":1
		},
		{
			"sampler":0,
			"source":2
		}
	],
	"images":[
		{
			"mimeType":"image/png",
			"name":"T_Trim_Metal_Normal",
			"uri":"T_Trim_Metal_Normal.png"
		},
		{
			"mimeType":"image/png",
			"name":"T_Trim_Metal_BaseColor",
			"uri":"T_Trim_Metal_BaseColor.png"
		},
		{
			"mimeType":"image/png",
			"name":"T_Trim_Metal_ORM",
			"uri":"T_Trim_Metal_ORM.png"
		}
	],
	"accessors":[
		{
			"bufferView":0,
			"componentType":5123,
			"count":1044,
			"normalized":true,
			"type":"VEC4"
		},
		{
			"bufferView":1,
			"componentType":5126,
			"count":1044,
			"max":[
				0.0990624949336052,
				0.07000648230314255,
				0.0784459263086319
			],
			"min":[
				-0.09839330613613129,
				-0.0034759596455842257,
				-0.07578876614570618
			],
			"type":"VEC3"
		},
		{
			"bufferView":2,
			"componentType":5126,
			"count":1044,
			"type":"VEC3"
		},
		{
			"bufferView":3,
			"componentType":5126,
			"count":1044,
			"type":"VEC2"
		},
		{
			"bufferView":4,
			"componentType":5123,
			"count":2880,
			"type":"SCALAR"
		}
	],
	"bufferViews":[
		{
			"buffer":0,
			"byteLength":8352,
			"byteOffset":0,
			"target":34962
		},
		{
			"buffer":0,
			"byteLength":12528,
			"byteOffset":8352,
			"target":34962
		},
		{
			"buffer":0,
			"byteLength":12528,
			"byteOffset":20880,
			"target":34962
		},
		{
			"buffer":0,
			"byteLength":8352,
			"byteOffset":33408,
			"target":34962
		},
		{
			"buffer":0,
			"byteLength":5760,
			"byteOffset":41760,
			"target":34963
		}
	],
	"samplers":[
		{
			"magFilter":9729,
			"minFilter":9987
		}
	],
	"buffers":[
		{
			"byteLength":47520,
			"uri":"Coin_Pile.bin"
		}
	]
}
