{
	"asset":{
		"generator":"Khronos glTF Blender I/O v4.0.44",
		"version":"2.0"
	},
	"scene":0,
	"scenes":[
		{
			"name":"Scene",
			"nodes":[
				0
			]
		}
	],
	"nodes":[
		{
			"mesh":0,
			"name":"Coin_Pile_2"
		}
	],
	"materials":[
		{
			"doubleSided":true,
			"name":"MI_Trim_Metal_Vertex",
			"normalTexture":{
				"index":0
			},
			"pbrMetallicRoughness":{
				"baseColorTexture":{
					"index":1
				},
				"metallicRoughnessTexture":{
					"index":2
				}
			}
		}
	],
	"meshes":[
		{
			"name":"Cylinder.085",
			"primitives":[
				{
					"attributes":{
						"COLOR_0":0,
						"POSITION":1,
						"NORMAL":2,
						"TEXCOORD_0":3
					},
					"indices":4,
					"material":0
				}
			]
		}
	],
	"textures":[
		{
			"sampler":0,
			"source":0
		},
		{
			"sampler":0,
			"source":1
		},
		{
			"sampler":0,
			"source":2
		}
	],
	"images":[
		{
			"mimeType":"image/png",
			"name":"T_Trim_Metal_Normal",
			"uri":"T_Trim_Metal_Normal.png"
		},
		{
			"mimeType":"image/png",
			"name":"T_Trim_Metal_BaseColor",
			"uri":"T_Trim_Metal_BaseColor.png"
		},
		{
			"mimeType":"image/png",
			"name":"T_Trim_Metal_ORM",
			"uri":"T_Trim_Metal_ORM.png"
		}
	],
	"accessors":[
		{
			"bufferView":0,
			"componentType":5123,
			"count":1156,
			"normalized":true,
			"type":"VEC4"
		},
		{
			"bufferView":1,
			"componentType":5126,
			"count":1156,
			"max":[
				0.10890618711709976,
				0.05870247259736061,
				0.10301289707422256
			],
			"min":[
				-0.16981934010982513,
				0.0002548198390286416,
				-0.09714920818805695
			],
			"type":"VEC3"
		},
		{
			"bufferView":2,
			"componentType":5126,
			"count":1156,
			"type":"VEC3"
		},
		{
			"bufferView":3,
			"componentType":5126,
			"count":1156,
			"type":"VEC2"
		},
		{
			"bufferView":4,
			"componentType":5123,
			"count":3186,
			"type":"SCALAR"
		}
	],
	"bufferViews":[
		{
			"buffer":0,
			"byteLength":9248,
			"byteOffset":0,
			"target":34962
		},
		{
			"buffer":0,
			"byteLength":13872,
			"byteOffset":9248,
			"target":34962
		},
		{
			"buffer":0,
			"byteLength":13872,
			"byteOffset":23120,
			"target":34962
		},
		{
			"buffer":0,
			"byteLength":9248,
			"byteOffset":36992,
			"target":34962
		},
		{
			"buffer":0,
			"byteLength":6372,
			"byteOffset":46240,
			"target":34963
		}
	],
	"samplers":[
		{
			"magFilter":9729,
			"minFilter":9987
		}
	],
	"buffers":[
		{
			"byteLength":52612,
			"uri":"Coin_Pile_2.bin"
		}
	]
}
