{
	"asset":{
		"generator":"Khronos glTF Blender I/O v4.0.44",
		"version":"2.0"
	},
	"scene":0,
	"scenes":[
		{
			"name":"Scene",
			"nodes":[
				0
			]
		}
	],
	"nodes":[
		{
			"mesh":0,
			"name":"Crate_Wooden",
			"scale":[
				0.7800000309944153,
				0.7800000309944153,
				0.7800000309944153
			]
		}
	],
	"materials":[
		{
			"doubleSided":true,
			"name":"MI_Trim_Furniture",
			"normalTexture":{
				"index":0
			},
			"pbrMetallicRoughness":{
				"baseColorTexture":{
					"index":1
				},
				"metallicRoughnessTexture":{
					"index":2
				}
			}
		},
		{
			"doubleSided":true,
			"name":"MI_Trim_Metal",
			"normalTexture":{
				"index":3
			},
			"pbrMetallicRoughness":{
				"baseColorTexture":{
					"index":4
				},
				"metallicRoughnessTexture":{
					"index":5
				}
			}
		}
	],
	"meshes":[
		{
			"name":"Cube.017",
			"primitives":[
				{
					"attributes":{
						"COLOR_0":0,
						"POSITION":1,
						"NORMAL":2,
						"TEXCOORD_0":3
					},
					"indices":4,
					"material":0
				},
				{
					"attributes":{
						"COLOR_0":5,
						"POSITION":6,
						"NORMAL":7,
						"TEXCOORD_0":8
					},
					"indices":9,
					"material":1
				}
			]
		}
	],
	"textures":[
		{
			"sampler":0,
			"source":0
		},
		{
			"sampler":0,
			"source":1
		},
		{
			"sampler":0,
			"source":2
		},
		{
			"sampler":0,
			"source":3
		},
		{
			"sampler":0,
			"source":4
		},
		{
			"sampler":0,
			"source":5
		}
	],
	"images":[
		{
			"mimeType":"image/png",
			"name":"T_Trim_Furniture_Normal",
			"uri":"T_Trim_Furniture_Normal.png"
		},
		{
			"mimeType":"image/png",
			"name":"T_Trim_Furniture_BaseColor",
			"uri":"T_Trim_Furniture_BaseColor.png"
		},
		{
			"mimeType":"image/png",
			"name":"T_Trim_Furniture_ORM",
			"uri":"T_Trim_Furniture_ORM.png"
		},
		{
			"mimeType":"image/png",
			"name":"T_Trim_Metal_Normal",
			"uri":"T_Trim_Metal_Normal.png"
		},
		{
			"mimeType":"image/png",
			"name":"T_Trim_Metal_BaseColor",
			"uri":"T_Trim_Metal_BaseColor.png"
		},
		{
			"mimeType":"image/png",
			"name":"T_Trim_Metal_ORM",
			"uri":"T_Trim_Metal_ORM.png"
		}
	],
	"accessors":[
		{
			"bufferView":0,
			"componentType":5123,
			"count":610,
			"normalized":true,
			"type":"VEC4"
		},
		{
			"bufferView":1,
			"componentType":5126,
			"count":610,
			"max":[
				0.5338637828826904,
				1.093560814857483,
				0.5513647794723511
			],
			"min":[
				-0.5459548234939575,
				-0.03450348228216171,
				-0.5464894771575928
			],
			"type":"VEC3"
		},
		{
			"bufferView":2,
			"componentType":5126,
			"count":610,
			"type":"VEC3"
		},
		{
			"bufferView":3,
			"componentType":5126,
			"count":610,
			"type":"VEC2"
		},
		{
			"bufferView":4,
			"componentType":5123,
			"count":984,
			"type":"SCALAR"
		},
		{
			"bufferView":5,
			"componentType":5123,
			"count":816,
			"normalized":true,
			"type":"VEC4"
		},
		{
			"bufferView":6,
			"componentType":5126,
			"count":816,
			"max":[
				0.5213589668273926,
				1.1262773275375366,
				0.5822392702102661
			],
			"min":[
				-0.5213589668273926,
				-0.06721998751163483,
				-0.5822392702102661
			],
			"type":"VEC3"
		},
		{
			"bufferView":7,
			"componentType":5126,
			"count":816,
			"type":"VEC3"
		},
		{
			"bufferView":8,
			"componentType":5126,
			"count":816,
			"type":"VEC2"
		},
		{
			"bufferView":9,
			"componentType":5123,
			"count":3744,
			"type":"SCALAR"
		}
	],
	"bufferViews":[
		{
			"buffer":0,
			"byteLength":4880,
			"byteOffset":0,
			"target":34962
		},
		{
			"buffer":0,
			"byteLength":7320,
			"byteOffset":4880,
			"target":34962
		},
		{
			"buffer":0,
			"byteLength":7320,
			"byteOffset":12200,
			"target":34962
		},
		{
			"buffer":0,
			"byteLength":4880,
			"byteOffset":19520,
			"target":34962
		},
		{
			"buffer":0,
			"byteLength":1968,
			"byteOffset":24400,
			"target":34963
		},
		{
			"buffer":0,
			"byteLength":6528,
			"byteOffset":26368,
			"target":34962
		},
		{
			"buffer":0,
			"byteLength":9792,
			"byteOffset":32896,
			"target":34962
		},
		{
			"buffer":0,
			"byteLength":9792,
			"byteOffset":42688,
			"target":34962
		},
		{
			"buffer":0,
			"byteLength":6528,
			"byteOffset":52480,
			"target":34962
		},
		{
			"buffer":0,
			"byteLength":7488,
			"byteOffset":59008,
			"target":34963
		}
	],
	"samplers":[
		{
			"magFilter":9729,
			"minFilter":9987
		}
	],
	"buffers":[
		{
			"byteLength":66496,
			"uri":"Crate_Wooden.bin"
		}
	]
}
