{
	"asset":{
		"generator":"Khronos glTF Blender I/O v4.0.44",
		"version":"2.0"
	},
	"scene":0,
	"scenes":[
		{
			"name":"Scene",
			"nodes":[
				0
			]
		}
	],
	"nodes":[
		{
			"mesh":0,
			"name":"Dummy"
		}
	],
	"materials":[
		{
			"doubleSided":true,
			"name":"MI_Trim_Furniture",
			"normalTexture":{
				"index":0
			},
			"pbrMetallicRoughness":{
				"baseColorTexture":{
					"index":1
				},
				"metallicRoughnessTexture":{
					"index":2
				}
			}
		},
		{
			"doubleSided":true,
			"name":"MI_Trim_Metal",
			"normalTexture":{
				"index":3
			},
			"pbrMetallicRoughness":{
				"baseColorTexture":{
					"index":4
				},
				"metallicRoughnessTexture":{
					"index":5
				}
			}
		},
		{
			"doubleSided":true,
			"name":"MI_Trim_Cloth",
			"normalTexture":{
				"index":6
			},
			"pbrMetallicRoughness":{
				"baseColorTexture":{
					"index":7
				},
				"metallicRoughnessTexture":{
					"index":8
				}
			}
		}
	],
	"meshes":[
		{
			"name":"Cube.223",
			"primitives":[
				{
					"attributes":{
						"POSITION":0,
						"NORMAL":1,
						"TEXCOORD_0":2
					},
					"indices":3,
					"material":0
				},
				{
					"attributes":{
						"POSITION":4,
						"NORMAL":5,
						"TEXCOORD_0":6
					},
					"indices":7,
					"material":1
				},
				{
					"attributes":{
						"POSITION":8,
						"NORMAL":9,
						"TEXCOORD_0":10
					},
					"indices":11,
					"material":2
				}
			]
		}
	],
	"textures":[
		{
			"sampler":0,
			"source":0
		},
		{
			"sampler":0,
			"source":1
		},
		{
			"sampler":0,
			"source":2
		},
		{
			"sampler":0,
			"source":3
		},
		{
			"sampler":0,
			"source":4
		},
		{
			"sampler":0,
			"source":5
		},
		{
			"sampler":0,
			"source":6
		},
		{
			"sampler":0,
			"source":7
		},
		{
			"sampler":0,
			"source":8
		}
	],
	"images":[
		{
			"mimeType":"image/png",
			"name":"T_Trim_Furniture_Normal",
			"uri":"T_Trim_Furniture_Normal.png"
		},
		{
			"mimeType":"image/png",
			"name":"T_Trim_Furniture_BaseColor",
			"uri":"T_Trim_Furniture_BaseColor.png"
		},
		{
			"mimeType":"image/png",
			"name":"T_Trim_Furniture_ORM",
			"uri":"T_Trim_Furniture_ORM.png"
		},
		{
			"mimeType":"image/png",
			"name":"T_Trim_Metal_Normal",
			"uri":"T_Trim_Metal_Normal.png"
		},
		{
			"mimeType":"image/png",
			"name":"T_Trim_Metal_BaseColor",
			"uri":"T_Trim_Metal_BaseColor.png"
		},
		{
			"mimeType":"image/png",
			"name":"T_Trim_Metal_ORM",
			"uri":"T_Trim_Metal_ORM.png"
		},
		{
			"mimeType":"image/png",
			"name":"T_Trim_Cloth_Normal",
			"uri":"T_Trim_Cloth_Normal.png"
		},
		{
			"mimeType":"image/png",
			"name":"T_Trim_Cloth_BaseColor",
			"uri":"T_Trim_Cloth_BaseColor.png"
		},
		{
			"mimeType":"image/png",
			"name":"T_Trim_Cloth_ORM",
			"uri":"T_Trim_Cloth_ORM.png"
		}
	],
	"accessors":[
		{
			"bufferView":0,
			"componentType":5126,
			"count":924,
			"max":[
				0.2925231158733368,
				1.6169136762619019,
				0.2925231158733368
			],
			"min":[
				-0.2920801341533661,
				-0.002887953072786331,
				-0.2920801341533661
			],
			"type":"VEC3"
		},
		{
			"bufferView":1,
			"componentType":5126,
			"count":924,
			"type":"VEC3"
		},
		{
			"bufferView":2,
			"componentType":5126,
			"count":924,
			"type":"VEC2"
		},
		{
			"bufferView":3,
			"componentType":5123,
			"count":3702,
			"type":"SCALAR"
		},
		{
			"bufferView":4,
			"componentType":5126,
			"count":128,
			"max":[
				0.22404655814170837,
				0.24871774017810822,
				0.22404655814170837
			],
			"min":[
				-0.22404655814170837,
				0.061605341732501984,
				-0.22404655814170837
			],
			"type":"VEC3"
		},
		{
			"bufferView":5,
			"componentType":5126,
			"count":128,
			"type":"VEC3"
		},
		{
			"bufferView":6,
			"componentType":5126,
			"count":128,
			"type":"VEC2"
		},
		{
			"bufferView":7,
			"componentType":5123,
			"count":528,
			"type":"SCALAR"
		},
		{
			"bufferView":8,
			"componentType":5126,
			"count":943,
			"max":[
				0.4044542610645294,
				1.8597913980484009,
				0.17893469333648682
			],
			"min":[
				-0.4040466845035553,
				0.8079881072044373,
				-0.17773109674453735
			],
			"type":"VEC3"
		},
		{
			"bufferView":9,
			"componentType":5126,
			"count":943,
			"type":"VEC3"
		},
		{
			"bufferView":10,
			"componentType":5126,
			"count":943,
			"type":"VEC2"
		},
		{
			"bufferView":11,
			"componentType":5123,
			"count":4344,
			"type":"SCALAR"
		}
	],
	"bufferViews":[
		{
			"buffer":0,
			"byteLength":11088,
			"byteOffset":0,
			"target":34962
		},
		{
			"buffer":0,
			"byteLength":11088,
			"byteOffset":11088,
			"target":34962
		},
		{
			"buffer":0,
			"byteLength":7392,
			"byteOffset":22176,
			"target":34962
		},
		{
			"buffer":0,
			"byteLength":7404,
			"byteOffset":29568,
			"target":34963
		},
		{
			"buffer":0,
			"byteLength":1536,
			"byteOffset":36972,
			"target":34962
		},
		{
			"buffer":0,
			"byteLength":1536,
			"byteOffset":38508,
			"target":34962
		},
		{
			"buffer":0,
			"byteLength":1024,
			"byteOffset":40044,
			"target":34962
		},
		{
			"buffer":0,
			"byteLength":1056,
			"byteOffset":41068,
			"target":34963
		},
		{
			"buffer":0,
			"byteLength":11316,
			"byteOffset":42124,
			"target":34962
		},
		{
			"buffer":0,
			"byteLength":11316,
			"byteOffset":53440,
			"target":34962
		},
		{
			"buffer":0,
			"byteLength":7544,
			"byteOffset":64756,
			"target":34962
		},
		{
			"buffer":0,
			"byteLength":8688,
			"byteOffset":72300,
			"target":34963
		}
	],
	"samplers":[
		{
			"magFilter":9729,
			"minFilter":9987
		}
	],
	"buffers":[
		{
			"byteLength":80988,
			"uri":"Dummy.bin"
		}
	]
}
