{
	"asset":{
		"generator":"Khronos glTF Blender I/O v4.0.44",
		"version":"2.0"
	},
	"scene":0,
	"scenes":[
		{
			"name":"Scene",
			"nodes":[
				0
			]
		}
	],
	"nodes":[
		{
			"mesh":0,
			"name":"FarmCrate_Carrot"
		}
	],
	"materials":[
		{
			"doubleSided":true,
			"name":"MI_Trim_Props_Vertex",
			"normalTexture":{
				"index":0
			},
			"pbrMetallicRoughness":{
				"baseColorTexture":{
					"index":1
				},
				"metallicRoughnessTexture":{
					"index":2
				}
			}
		},
		{
			"doubleSided":true,
			"name":"MI_Trim_Furniture",
			"normalTexture":{
				"index":3
			},
			"pbrMetallicRoughness":{
				"baseColorTexture":{
					"index":4
				},
				"metallicRoughnessTexture":{
					"index":5
				}
			}
		},
		{
			"doubleSided":true,
			"name":"MI_Trim_Metal",
			"normalTexture":{
				"index":6
			},
			"pbrMetallicRoughness":{
				"baseColorTexture":{
					"index":7
				},
				"metallicRoughnessTexture":{
					"index":8
				}
			}
		}
	],
	"meshes":[
		{
			"name":"Cylinder.018",
			"primitives":[
				{
					"attributes":{
						"COLOR_0":0,
						"POSITION":1,
						"NORMAL":2,
						"TEXCOORD_0":3
					},
					"indices":4,
					"material":0
				},
				{
					"attributes":{
						"COLOR_0":5,
						"POSITION":6,
						"NORMAL":7,
						"TEXCOORD_0":8
					},
					"indices":9,
					"material":1
				},
				{
					"attributes":{
						"COLOR_0":10,
						"POSITION":11,
						"NORMAL":12,
						"TEXCOORD_0":13
					},
					"indices":14,
					"material":2
				}
			]
		}
	],
	"textures":[
		{
			"sampler":0,
			"source":0
		},
		{
			"sampler":0,
			"source":1
		},
		{
			"sampler":0,
			"source":2
		},
		{
			"sampler":0,
			"source":3
		},
		{
			"sampler":0,
			"source":4
		},
		{
			"sampler":0,
			"source":5
		},
		{
			"sampler":0,
			"source":6
		},
		{
			"sampler":0,
			"source":7
		},
		{
			"sampler":0,
			"source":8
		}
	],
	"images":[
		{
			"mimeType":"image/png",
			"name":"T_Trim_Props_Normal",
			"uri":"T_Trim_Props_Normal.png"
		},
		{
			"mimeType":"image/png",
			"name":"T_Trim_Props_BaseColor",
			"uri":"T_Trim_Props_BaseColor.png"
		},
		{
			"mimeType":"image/png",
			"name":"T_Trim_Props_ORM",
			"uri":"T_Trim_Props_ORM.png"
		},
		{
			"mimeType":"image/png",
			"name":"T_Trim_Furniture_Normal",
			"uri":"T_Trim_Furniture_Normal.png"
		},
		{
			"mimeType":"image/png",
			"name":"T_Trim_Furniture_BaseColor",
			"uri":"T_Trim_Furniture_BaseColor.png"
		},
		{
			"mimeType":"image/png",
			"name":"T_Trim_Furniture_ORM",
			"uri":"T_Trim_Furniture_ORM.png"
		},
		{
			"mimeType":"image/png",
			"name":"T_Trim_Metal_Normal",
			"uri":"T_Trim_Metal_Normal.png"
		},
		{
			"mimeType":"image/png",
			"name":"T_Trim_Metal_BaseColor",
			"uri":"T_Trim_Metal_BaseColor.png"
		},
		{
			"mimeType":"image/png",
			"name":"T_Trim_Metal_ORM",
			"uri":"T_Trim_Metal_ORM.png"
		}
	],
	"accessors":[
		{
			"bufferView":0,
			"componentType":5123,
			"count":3474,
			"normalized":true,
			"type":"VEC4"
		},
		{
			"bufferView":1,
			"componentType":5126,
			"count":3474,
			"max":[
				0.3203352093696594,
				0.39533743262290955,
				0.19160284101963043
			],
			"min":[
				-0.34520721435546875,
				0.15995095670223236,
				-0.3599160313606262
			],
			"type":"VEC3"
		},
		{
			"bufferView":2,
			"componentType":5126,
			"count":3474,
			"type":"VEC3"
		},
		{
			"bufferView":3,
			"componentType":5126,
			"count":3474,
			"type":"VEC2"
		},
		{
			"bufferView":4,
			"componentType":5123,
			"count":12810,
			"type":"SCALAR"
		},
		{
			"bufferView":5,
			"componentType":5123,
			"count":556,
			"normalized":true,
			"type":"VEC4"
		},
		{
			"bufferView":6,
			"componentType":5126,
			"count":556,
			"max":[
				0.35689881443977356,
				0.2277919203042984,
				0.198461651802063
			],
			"min":[
				-0.35689881443977356,
				-0.01598544418811798,
				-0.19846166670322418
			],
			"type":"VEC3"
		},
		{
			"bufferView":7,
			"componentType":5126,
			"count":556,
			"type":"VEC3"
		},
		{
			"bufferView":8,
			"componentType":5126,
			"count":556,
			"type":"VEC2"
		},
		{
			"bufferView":9,
			"componentType":5123,
			"count":1608,
			"type":"SCALAR"
		},
		{
			"bufferView":10,
			"componentType":5123,
			"count":288,
			"normalized":true,
			"type":"VEC4"
		},
		{
			"bufferView":11,
			"componentType":5126,
			"count":288,
			"max":[
				0.28873270750045776,
				0.20590126514434814,
				0.20708000659942627
			],
			"min":[
				-0.29124000668525696,
				0.01727546937763691,
				-0.20708005130290985
			],
			"type":"VEC3"
		},
		{
			"bufferView":12,
			"componentType":5126,
			"count":288,
			"type":"VEC3"
		},
		{
			"bufferView":13,
			"componentType":5126,
			"count":288,
			"type":"VEC2"
		},
		{
			"bufferView":14,
			"componentType":5123,
			"count":1368,
			"type":"SCALAR"
		}
	],
	"bufferViews":[
		{
			"buffer":0,
			"byteLength":27792,
			"byteOffset":0,
			"target":34962
		},
		{
			"buffer":0,
			"byteLength":41688,
			"byteOffset":27792,
			"target":34962
		},
		{
			"buffer":0,
			"byteLength":41688,
			"byteOffset":69480,
			"target":34962
		},
		{
			"buffer":0,
			"byteLength":27792,
			"byteOffset":111168,
			"target":34962
		},
		{
			"buffer":0,
			"byteLength":25620,
			"byteOffset":138960,
			"target":34963
		},
		{
			"buffer":0,
			"byteLength":4448,
			"byteOffset":164580,
			"target":34962
		},
		{
			"buffer":0,
			"byteLength":6672,
			"byteOffset":169028,
			"target":34962
		},
		{
			"buffer":0,
			"byteLength":6672,
			"byteOffset":175700,
			"target":34962
		},
		{
			"buffer":0,
			"byteLength":4448,
			"byteOffset":182372,
			"target":34962
		},
		{
			"buffer":0,
			"byteLength":3216,
			"byteOffset":186820,
			"target":34963
		},
		{
			"buffer":0,
			"byteLength":2304,
			"byteOffset":190036,
			"target":34962
		},
		{
			"buffer":0,
			"byteLength":3456,
			"byteOffset":192340,
			"target":34962
		},
		{
			"buffer":0,
			"byteLength":3456,
			"byteOffset":195796,
			"target":34962
		},
		{
			"buffer":0,
			"byteLength":2304,
			"byteOffset":199252,
			"target":34962
		},
		{
			"buffer":0,
			"byteLength":2736,
			"byteOffset":201556,
			"target":34963
		}
	],
	"samplers":[
		{
			"magFilter":9729,
			"minFilter":9987
		}
	],
	"buffers":[
		{
			"byteLength":204292,
			"uri":"FarmCrate_Carrot.bin"
		}
	]
}
