{
	"asset":{
		"generator":"Khronos glTF Blender I/O v4.0.44",
		"version":"2.0"
	},
	"scene":0,
	"scenes":[
		{
			"name":"Scene",
			"nodes":[
				0
			]
		}
	],
	"nodes":[
		{
			"mesh":0,
			"name":"Key_Gold"
		}
	],
	"materials":[
		{
			"doubleSided":true,
			"name":"MI_Trim_Metal_Vertex",
			"normalTexture":{
				"index":0
			},
			"pbrMetallicRoughness":{
				"baseColorTexture":{
					"index":1
				},
				"metallicRoughnessTexture":{
					"index":2
				}
			}
		}
	],
	"meshes":[
		{
			"name":"Torus.006",
			"primitives":[
				{
					"attributes":{
						"COLOR_0":0,
						"POSITION":1,
						"NORMAL":2,
						"TEXCOORD_0":3
					},
					"indices":4,
					"material":0
				}
			]
		}
	],
	"textures":[
		{
			"sampler":0,
			"source":0
		},
		{
			"sampler":0,
			"source":1
		},
		{
			"sampler":0,
			"source":2
		}
	],
	"images":[
		{
			"mimeType":"image/png",
			"name":"T_Trim_Metal_Normal",
			"uri":"T_Trim_Metal_Normal.png"
		},
		{
			"mimeType":"image/png",
			"name":"T_Trim_Metal_BaseColor",
			"uri":"T_Trim_Metal_BaseColor.png"
		},
		{
			"mimeType":"image/png",
			"name":"T_Trim_Metal_ORM",
			"uri":"T_Trim_Metal_ORM.png"
		}
	],
	"accessors":[
		{
			"bufferView":0,
			"componentType":5123,
			"count":1261,
			"normalized":true,
			"type":"VEC4"
		},
		{
			"bufferView":1,
			"componentType":5126,
			"count":1261,
			"max":[
				0.02903752215206623,
				0.0060126399621367455,
				0.0709419921040535
			],
			"min":[
				-0.02903752215206623,
				-0.006268944591283798,
				-0.05133882164955139
			],
			"type":"VEC3"
		},
		{
			"bufferView":2,
			"componentType":5126,
			"count":1261,
			"type":"VEC3"
		},
		{
			"bufferView":3,
			"componentType":5126,
			"count":1261,
			"type":"VEC2"
		},
		{
			"bufferView":4,
			"componentType":5123,
			"count":4098,
			"type":"SCALAR"
		}
	],
	"bufferViews":[
		{
			"buffer":0,
			"byteLength":10088,
			"byteOffset":0,
			"target":34962
		},
		{
			"buffer":0,
			"byteLength":15132,
			"byteOffset":10088,
			"target":34962
		},
		{
			"buffer":0,
			"byteLength":15132,
			"byteOffset":25220,
			"target":34962
		},
		{
			"buffer":0,
			"byteLength":10088,
			"byteOffset":40352,
			"target":34962
		},
		{
			"buffer":0,
			"byteLength":8196,
			"byteOffset":50440,
			"target":34963
		}
	],
	"samplers":[
		{
			"magFilter":9729,
			"minFilter":9987
		}
	],
	"buffers":[
		{
			"byteLength":58636,
			"uri":"Key_Gold.bin"
		}
	]
}
