{
	"asset":{
		"generator":"Khronos glTF Blender I/O v4.0.44",
		"version":"2.0"
	},
	"scene":0,
	"scenes":[
		{
			"name":"Scene",
			"nodes":[
				0
			]
		}
	],
	"nodes":[
		{
			"mesh":0,
			"name":"Pickaxe_Bronze"
		}
	],
	"materials":[
		{
			"doubleSided":true,
			"name":"MI_Trim_Props_Vertex",
			"normalTexture":{
				"index":0
			},
			"pbrMetallicRoughness":{
				"baseColorTexture":{
					"index":1
				},
				"metallicRoughnessTexture":{
					"index":2
				}
			}
		}
	],
	"meshes":[
		{
			"name":"Cylinder.005",
			"primitives":[
				{
					"attributes":{
						"COLOR_0":0,
						"POSITION":1,
						"NORMAL":2,
						"TEXCOORD_0":3
					},
					"indices":4,
					"material":0
				}
			]
		}
	],
	"textures":[
		{
			"sampler":0,
			"source":0
		},
		{
			"sampler":0,
			"source":1
		},
		{
			"sampler":0,
			"source":2
		}
	],
	"images":[
		{
			"mimeType":"image/png",
			"name":"T_Trim_Props_Normal",
			"uri":"T_Trim_Props_Normal.png"
		},
		{
			"mimeType":"image/png",
			"name":"T_Trim_Props_BaseColor",
			"uri":"T_Trim_Props_BaseColor.png"
		},
		{
			"mimeType":"image/png",
			"name":"T_Trim_Props_ORM",
			"uri":"T_Trim_Props_ORM.png"
		}
	],
	"accessors":[
		{
			"bufferView":0,
			"componentType":5123,
			"count":652,
			"normalized":true,
			"type":"VEC4"
		},
		{
			"bufferView":1,
			"componentType":5126,
			"count":652,
			"max":[
				0.4025578796863556,
				0.7037505507469177,
				0.06782905012369156
			],
			"min":[
				-0.4102936387062073,
				-0.49387088418006897,
				-0.06782905012369156
			],
			"type":"VEC3"
		},
		{
			"bufferView":2,
			"componentType":5126,
			"count":652,
			"type":"VEC3"
		},
		{
			"bufferView":3,
			"componentType":5126,
			"count":652,
			"type":"VEC2"
		},
		{
			"bufferView":4,
			"componentType":5123,
			"count":2328,
			"type":"SCALAR"
		}
	],
	"bufferViews":[
		{
			"buffer":0,
			"byteLength":5216,
			"byteOffset":0,
			"target":34962
		},
		{
			"buffer":0,
			"byteLength":7824,
			"byteOffset":5216,
			"target":34962
		},
		{
			"buffer":0,
			"byteLength":7824,
			"byteOffset":13040,
			"target":34962
		},
		{
			"buffer":0,
			"byteLength":5216,
			"byteOffset":20864,
			"target":34962
		},
		{
			"buffer":0,
			"byteLength":4656,
			"byteOffset":26080,
			"target":34963
		}
	],
	"samplers":[
		{
			"magFilter":9729,
			"minFilter":9987
		}
	],
	"buffers":[
		{
			"byteLength":30736,
			"uri":"Pickaxe_Bronze.bin"
		}
	]
}
