{
	"asset":{
		"generator":"Khronos glTF Blender I/O v4.0.44",
		"version":"2.0"
	},
	"scene":0,
	"scenes":[
		{
			"name":"Scene",
			"nodes":[
				0
			]
		}
	],
	"nodes":[
		{
			"mesh":0,
			"name":"Pouch_Large"
		}
	],
	"materials":[
		{
			"doubleSided":true,
			"name":"MI_Trim_Props_Vertex",
			"normalTexture":{
				"index":0
			},
			"pbrMetallicRoughness":{
				"baseColorTexture":{
					"index":1
				},
				"metallicRoughnessTexture":{
					"index":2
				}
			}
		},
		{
			"doubleSided":true,
			"name":"MI_Trim_Metal",
			"normalTexture":{
				"index":3
			},
			"pbrMetallicRoughness":{
				"baseColorTexture":{
					"index":4
				},
				"metallicRoughnessTexture":{
					"index":5
				}
			}
		}
	],
	"meshes":[
		{
			"name":"Cube.144",
			"primitives":[
				{
					"attributes":{
						"COLOR_0":0,
						"POSITION":1,
						"NORMAL":2,
						"TEXCOORD_0":3
					},
					"indices":4,
					"material":0
				},
				{
					"attributes":{
						"COLOR_0":5,
						"POSITION":6,
						"NORMAL":7,
						"TEXCOORD_0":8
					},
					"indices":9,
					"material":1
				}
			]
		}
	],
	"textures":[
		{
			"sampler":0,
			"source":0
		},
		{
			"sampler":0,
			"source":1
		},
		{
			"sampler":0,
			"source":2
		},
		{
			"sampler":0,
			"source":3
		},
		{
			"sampler":0,
			"source":4
		},
		{
			"sampler":0,
			"source":5
		}
	],
	"images":[
		{
			"mimeType":"image/png",
			"name":"T_Trim_Props_Normal",
			"uri":"T_Trim_Props_Normal.png"
		},
		{
			"mimeType":"image/png",
			"name":"T_Trim_Props_BaseColor",
			"uri":"T_Trim_Props_BaseColor.png"
		},
		{
			"mimeType":"image/png",
			"name":"T_Trim_Props_ORM",
			"uri":"T_Trim_Props_ORM.png"
		},
		{
			"mimeType":"image/png",
			"name":"T_Trim_Metal_Normal",
			"uri":"T_Trim_Metal_Normal.png"
		},
		{
			"mimeType":"image/png",
			"name":"T_Trim_Metal_BaseColor",
			"uri":"T_Trim_Metal_BaseColor.png"
		},
		{
			"mimeType":"image/png",
			"name":"T_Trim_Metal_ORM",
			"uri":"T_Trim_Metal_ORM.png"
		}
	],
	"accessors":[
		{
			"bufferView":0,
			"componentType":5123,
			"count":454,
			"normalized":true,
			"type":"VEC4"
		},
		{
			"bufferView":1,
			"componentType":5126,
			"count":454,
			"max":[
				0.1117013618350029,
				0.15981073677539825,
				0.06788310408592224
			],
			"min":[
				-0.11379196494817734,
				0.0007084211683832109,
				-0.04801042750477791
			],
			"type":"VEC3"
		},
		{
			"bufferView":2,
			"componentType":5126,
			"count":454,
			"type":"VEC3"
		},
		{
			"bufferView":3,
			"componentType":5126,
			"count":454,
			"type":"VEC2"
		},
		{
			"bufferView":4,
			"componentType":5123,
			"count":1542,
			"type":"SCALAR"
		},
		{
			"bufferView":5,
			"componentType":5123,
			"count":226,
			"normalized":true,
			"type":"VEC4"
		},
		{
			"bufferView":6,
			"componentType":5126,
			"count":226,
			"max":[
				0.0754198506474495,
				0.11255805194377899,
				0.07180917263031006
			],
			"min":[
				-0.07589969784021378,
				0.06666167080402374,
				0.04826852306723595
			],
			"type":"VEC3"
		},
		{
			"bufferView":7,
			"componentType":5126,
			"count":226,
			"type":"VEC3"
		},
		{
			"bufferView":8,
			"componentType":5126,
			"count":226,
			"type":"VEC2"
		},
		{
			"bufferView":9,
			"componentType":5123,
			"count":648,
			"type":"SCALAR"
		}
	],
	"bufferViews":[
		{
			"buffer":0,
			"byteLength":3632,
			"byteOffset":0,
			"target":34962
		},
		{
			"buffer":0,
			"byteLength":5448,
			"byteOffset":3632,
			"target":34962
		},
		{
			"buffer":0,
			"byteLength":5448,
			"byteOffset":9080,
			"target":34962
		},
		{
			"buffer":0,
			"byteLength":3632,
			"byteOffset":14528,
			"target":34962
		},
		{
			"buffer":0,
			"byteLength":3084,
			"byteOffset":18160,
			"target":34963
		},
		{
			"buffer":0,
			"byteLength":1808,
			"byteOffset":21244,
			"target":34962
		},
		{
			"buffer":0,
			"byteLength":2712,
			"byteOffset":23052,
			"target":34962
		},
		{
			"buffer":0,
			"byteLength":2712,
			"byteOffset":25764,
			"target":34962
		},
		{
			"buffer":0,
			"byteLength":1808,
			"byteOffset":28476,
			"target":34962
		},
		{
			"buffer":0,
			"byteLength":1296,
			"byteOffset":30284,
			"target":34963
		}
	],
	"samplers":[
		{
			"magFilter":9729,
			"minFilter":9987
		}
	],
	"buffers":[
		{
			"byteLength":31580,
			"uri":"Pouch_Large.bin"
		}
	]
}
