{
	"asset":{
		"generator":"Khronos glTF Blender I/O v4.0.44",
		"version":"2.0"
	},
	"scene":0,
	"scenes":[
		{
			"name":"Scene",
			"nodes":[
				0
			]
		}
	],
	"nodes":[
		{
			"mesh":0,
			"name":"Scroll_2"
		}
	],
	"materials":[
		{
			"doubleSided":true,
			"name":"MI_Page_Empty",
			"pbrMetallicRoughness":{
				"baseColorTexture":{
					"index":0
				},
				"metallicFactor":0,
				"roughnessFactor":0.5
			}
		},
		{
			"doubleSided":true,
			"name":"MI_Trim_Props_Vertex",
			"normalTexture":{
				"index":1
			},
			"pbrMetallicRoughness":{
				"baseColorTexture":{
					"index":2
				},
				"metallicRoughnessTexture":{
					"index":3
				}
			}
		}
	],
	"meshes":[
		{
			"name":"Cube.156",
			"primitives":[
				{
					"attributes":{
						"COLOR_0":0,
						"POSITION":1,
						"NORMAL":2,
						"TEXCOORD_0":3
					},
					"indices":4,
					"material":0
				},
				{
					"attributes":{
						"COLOR_0":5,
						"POSITION":6,
						"NORMAL":7,
						"TEXCOORD_0":8
					},
					"indices":9,
					"material":1
				}
			]
		}
	],
	"textures":[
		{
			"sampler":0,
			"source":0
		},
		{
			"sampler":0,
			"source":1
		},
		{
			"sampler":0,
			"source":2
		},
		{
			"sampler":0,
			"source":3
		}
	],
	"images":[
		{
			"mimeType":"image/png",
			"name":"T_Page_Noise",
			"uri":"T_Page_Noise.png"
		},
		{
			"mimeType":"image/png",
			"name":"T_Trim_Props_Normal",
			"uri":"T_Trim_Props_Normal.png"
		},
		{
			"mimeType":"image/png",
			"name":"T_Trim_Props_BaseColor",
			"uri":"T_Trim_Props_BaseColor.png"
		},
		{
			"mimeType":"image/png",
			"name":"T_Trim_Props_ORM",
			"uri":"T_Trim_Props_ORM.png"
		}
	],
	"accessors":[
		{
			"bufferView":0,
			"componentType":5123,
			"count":341,
			"normalized":true,
			"type":"VEC4"
		},
		{
			"bufferView":1,
			"componentType":5126,
			"count":341,
			"max":[
				0.12022127211093903,
				0.059123024344444275,
				0.03823823481798172
			],
			"min":[
				-0.11272069811820984,
				0.0008520148694515228,
				-0.025440212339162827
			],
			"type":"VEC3"
		},
		{
			"bufferView":2,
			"componentType":5126,
			"count":341,
			"type":"VEC3"
		},
		{
			"bufferView":3,
			"componentType":5126,
			"count":341,
			"type":"VEC2"
		},
		{
			"bufferView":4,
			"componentType":5123,
			"count":1308,
			"type":"SCALAR"
		},
		{
			"bufferView":5,
			"componentType":5123,
			"count":268,
			"normalized":true,
			"type":"VEC4"
		},
		{
			"bufferView":6,
			"componentType":5126,
			"count":268,
			"max":[
				0.017295602709054947,
				0.051771700382232666,
				0.028807982802391052
			],
			"min":[
				-0.017295602709054947,
				0.00041361525654792786,
				-0.022550098598003387
			],
			"type":"VEC3"
		},
		{
			"bufferView":7,
			"componentType":5126,
			"count":268,
			"type":"VEC3"
		},
		{
			"bufferView":8,
			"componentType":5126,
			"count":268,
			"type":"VEC2"
		},
		{
			"bufferView":9,
			"componentType":5123,
			"count":708,
			"type":"SCALAR"
		}
	],
	"bufferViews":[
		{
			"buffer":0,
			"byteLength":2728,
			"byteOffset":0,
			"target":34962
		},
		{
			"buffer":0,
			"byteLength":4092,
			"byteOffset":2728,
			"target":34962
		},
		{
			"buffer":0,
			"byteLength":4092,
			"byteOffset":6820,
			"target":34962
		},
		{
			"buffer":0,
			"byteLength":2728,
			"byteOffset":10912,
			"target":34962
		},
		{
			"buffer":0,
			"byteLength":2616,
			"byteOffset":13640,
			"target":34963
		},
		{
			"buffer":0,
			"byteLength":2144,
			"byteOffset":16256,
			"target":34962
		},
		{
			"buffer":0,
			"byteLength":3216,
			"byteOffset":18400,
			"target":34962
		},
		{
			"buffer":0,
			"byteLength":3216,
			"byteOffset":21616,
			"target":34962
		},
		{
			"buffer":0,
			"byteLength":2144,
			"byteOffset":24832,
			"target":34962
		},
		{
			"buffer":0,
			"byteLength":1416,
			"byteOffset":26976,
			"target":34963
		}
	],
	"samplers":[
		{
			"magFilter":9729,
			"minFilter":9987
		}
	],
	"buffers":[
		{
			"byteLength":28392,
			"uri":"Scroll_2.bin"
		}
	]
}
