{
	"asset":{
		"generator":"Khronos glTF Blender I/O v4.0.44",
		"version":"2.0"
	},
	"scene":0,
	"scenes":[
		{
			"name":"Scene",
			"nodes":[
				0
			]
		}
	],
	"nodes":[
		{
			"mesh":0,
			"name":"Scroll_1"
		}
	],
	"materials":[
		{
			"doubleSided":true,
			"name":"MI_Page_Empty",
			"pbrMetallicRoughness":{
				"baseColorTexture":{
					"index":0
				},
				"metallicFactor":0,
				"roughnessFactor":0.5
			}
		},
		{
			"doubleSided":true,
			"name":"MI_Trim_Props_Vertex",
			"normalTexture":{
				"index":1
			},
			"pbrMetallicRoughness":{
				"baseColorTexture":{
					"index":2
				},
				"metallicRoughnessTexture":{
					"index":3
				}
			}
		}
	],
	"meshes":[
		{
			"name":"Cube.152",
			"primitives":[
				{
					"attributes":{
						"COLOR_0":0,
						"POSITION":1,
						"NORMAL":2,
						"TEXCOORD_0":3
					},
					"indices":4,
					"material":0
				},
				{
					"attributes":{
						"COLOR_0":5,
						"POSITION":6,
						"NORMAL":7,
						"TEXCOORD_0":8
					},
					"indices":9,
					"material":1
				}
			]
		}
	],
	"textures":[
		{
			"sampler":0,
			"source":0
		},
		{
			"sampler":0,
			"source":1
		},
		{
			"sampler":0,
			"source":2
		},
		{
			"sampler":0,
			"source":3
		}
	],
	"images":[
		{
			"mimeType":"image/png",
			"name":"T_Page_Noise",
			"uri":"T_Page_Noise.png"
		},
		{
			"mimeType":"image/png",
			"name":"T_Trim_Props_Normal",
			"uri":"T_Trim_Props_Normal.png"
		},
		{
			"mimeType":"image/png",
			"name":"T_Trim_Props_BaseColor",
			"uri":"T_Trim_Props_BaseColor.png"
		},
		{
			"mimeType":"image/png",
			"name":"T_Trim_Props_ORM",
			"uri":"T_Trim_Props_ORM.png"
		}
	],
	"accessors":[
		{
			"bufferView":0,
			"componentType":5123,
			"count":344,
			"normalized":true,
			"type":"VEC4"
		},
		{
			"bufferView":1,
			"componentType":5126,
			"count":344,
			"max":[
				0.12319763749837875,
				0.05978281795978546,
				0.037676237523555756
			],
			"min":[
				-0.12069449573755264,
				0.0012552384287118912,
				-0.025440212339162827
			],
			"type":"VEC3"
		},
		{
			"bufferView":2,
			"componentType":5126,
			"count":344,
			"type":"VEC3"
		},
		{
			"bufferView":3,
			"componentType":5126,
			"count":344,
			"type":"VEC2"
		},
		{
			"bufferView":4,
			"componentType":5123,
			"count":1308,
			"type":"SCALAR"
		},
		{
			"bufferView":5,
			"componentType":5123,
			"count":82,
			"normalized":true,
			"type":"VEC4"
		},
		{
			"bufferView":6,
			"componentType":5126,
			"count":82,
			"max":[
				0.01670416072010994,
				0.05059728026390076,
				0.02792986109852791
			],
			"min":[
				-0.01670416072010994,
				0.0009954404085874557,
				-0.021671976894140244
			],
			"type":"VEC3"
		},
		{
			"bufferView":7,
			"componentType":5126,
			"count":82,
			"type":"VEC3"
		},
		{
			"bufferView":8,
			"componentType":5126,
			"count":82,
			"type":"VEC2"
		},
		{
			"bufferView":9,
			"componentType":5123,
			"count":228,
			"type":"SCALAR"
		}
	],
	"bufferViews":[
		{
			"buffer":0,
			"byteLength":2752,
			"byteOffset":0,
			"target":34962
		},
		{
			"buffer":0,
			"byteLength":4128,
			"byteOffset":2752,
			"target":34962
		},
		{
			"buffer":0,
			"byteLength":4128,
			"byteOffset":6880,
			"target":34962
		},
		{
			"buffer":0,
			"byteLength":2752,
			"byteOffset":11008,
			"target":34962
		},
		{
			"buffer":0,
			"byteLength":2616,
			"byteOffset":13760,
			"target":34963
		},
		{
			"buffer":0,
			"byteLength":656,
			"byteOffset":16376,
			"target":34962
		},
		{
			"buffer":0,
			"byteLength":984,
			"byteOffset":17032,
			"target":34962
		},
		{
			"buffer":0,
			"byteLength":984,
			"byteOffset":18016,
			"target":34962
		},
		{
			"buffer":0,
			"byteLength":656,
			"byteOffset":19000,
			"target":34962
		},
		{
			"buffer":0,
			"byteLength":456,
			"byteOffset":19656,
			"target":34963
		}
	],
	"samplers":[
		{
			"magFilter":9729,
			"minFilter":9987
		}
	],
	"buffers":[
		{
			"byteLength":20112,
			"uri":"Scroll_1.bin"
		}
	]
}
