{
	"asset":{
		"generator":"Khronos glTF Blender I/O v4.0.44",
		"version":"2.0"
	},
	"scene":0,
	"scenes":[
		{
			"name":"Scene",
			"nodes":[
				0
			]
		}
	],
	"nodes":[
		{
			"mesh":0,
			"name":"Shelf_Small_Bottles"
		}
	],
	"materials":[
		{
			"doubleSided":true,
			"name":"MI_Trim_Props_Vertex",
			"normalTexture":{
				"index":0
			},
			"pbrMetallicRoughness":{
				"baseColorTexture":{
					"index":1
				},
				"metallicRoughnessTexture":{
					"index":2
				}
			}
		},
		{
			"doubleSided":true,
			"name":"MI_Trim_Metal",
			"normalTexture":{
				"index":3
			},
			"pbrMetallicRoughness":{
				"baseColorTexture":{
					"index":4
				},
				"metallicRoughnessTexture":{
					"index":5
				}
			}
		},
		{
			"doubleSided":true,
			"name":"MI_Trim_Furniture",
			"normalTexture":{
				"index":6
			},
			"pbrMetallicRoughness":{
				"baseColorTexture":{
					"index":7
				},
				"metallicRoughnessTexture":{
					"index":8
				}
			}
		}
	],
	"meshes":[
		{
			"name":"Cube.166",
			"primitives":[
				{
					"attributes":{
						"COLOR_0":0,
						"POSITION":1,
						"NORMAL":2,
						"TEXCOORD_0":3
					},
					"indices":4,
					"material":0
				},
				{
					"attributes":{
						"COLOR_0":5,
						"POSITION":6,
						"NORMAL":7,
						"TEXCOORD_0":8
					},
					"indices":9,
					"material":1
				},
				{
					"attributes":{
						"COLOR_0":10,
						"POSITION":11,
						"NORMAL":12,
						"TEXCOORD_0":13
					},
					"indices":14,
					"material":2
				}
			]
		}
	],
	"textures":[
		{
			"sampler":0,
			"source":0
		},
		{
			"sampler":0,
			"source":1
		},
		{
			"sampler":0,
			"source":2
		},
		{
			"sampler":0,
			"source":3
		},
		{
			"sampler":0,
			"source":4
		},
		{
			"sampler":0,
			"source":5
		},
		{
			"sampler":0,
			"source":6
		},
		{
			"sampler":0,
			"source":7
		},
		{
			"sampler":0,
			"source":8
		}
	],
	"images":[
		{
			"mimeType":"image/png",
			"name":"T_Trim_Props_Normal",
			"uri":"T_Trim_Props_Normal.png"
		},
		{
			"mimeType":"image/png",
			"name":"T_Trim_Props_BaseColor",
			"uri":"T_Trim_Props_BaseColor.png"
		},
		{
			"mimeType":"image/png",
			"name":"T_Trim_Props_ORM",
			"uri":"T_Trim_Props_ORM.png"
		},
		{
			"mimeType":"image/png",
			"name":"T_Trim_Metal_Normal",
			"uri":"T_Trim_Metal_Normal.png"
		},
		{
			"mimeType":"image/png",
			"name":"T_Trim_Metal_BaseColor",
			"uri":"T_Trim_Metal_BaseColor.png"
		},
		{
			"mimeType":"image/png",
			"name":"T_Trim_Metal_ORM",
			"uri":"T_Trim_Metal_ORM.png"
		},
		{
			"mimeType":"image/png",
			"name":"T_Trim_Furniture_Normal",
			"uri":"T_Trim_Furniture_Normal.png"
		},
		{
			"mimeType":"image/png",
			"name":"T_Trim_Furniture_BaseColor",
			"uri":"T_Trim_Furniture_BaseColor.png"
		},
		{
			"mimeType":"image/png",
			"name":"T_Trim_Furniture_ORM",
			"uri":"T_Trim_Furniture_ORM.png"
		}
	],
	"accessors":[
		{
			"bufferView":0,
			"componentType":5123,
			"count":3964,
			"normalized":true,
			"type":"VEC4"
		},
		{
			"bufferView":1,
			"componentType":5126,
			"count":3964,
			"max":[
				0.4887983798980713,
				0.5681943297386169,
				0.2528019845485687
			],
			"min":[
				-0.47426745295524597,
				0.12408984452486038,
				0.15985724329948425
			],
			"type":"VEC3"
		},
		{
			"bufferView":2,
			"componentType":5126,
			"count":3964,
			"type":"VEC3"
		},
		{
			"bufferView":3,
			"componentType":5126,
			"count":3964,
			"type":"VEC2"
		},
		{
			"bufferView":4,
			"componentType":5123,
			"count":12924,
			"type":"SCALAR"
		},
		{
			"bufferView":5,
			"componentType":5123,
			"count":688,
			"normalized":true,
			"type":"VEC4"
		},
		{
			"bufferView":6,
			"componentType":5126,
			"count":688,
			"max":[
				0.568484365940094,
				0.47293800115585327,
				0.2822330594062805
			],
			"min":[
				-0.5686498880386353,
				0.0399734228849411,
				0.02318727970123291
			],
			"type":"VEC3"
		},
		{
			"bufferView":7,
			"componentType":5126,
			"count":688,
			"type":"VEC3"
		},
		{
			"bufferView":8,
			"componentType":5126,
			"count":688,
			"type":"VEC2"
		},
		{
			"bufferView":9,
			"componentType":5123,
			"count":2160,
			"type":"SCALAR"
		},
		{
			"bufferView":10,
			"componentType":5123,
			"count":300,
			"normalized":true,
			"type":"VEC4"
		},
		{
			"bufferView":11,
			"componentType":5126,
			"count":300,
			"max":[
				0.5429956912994385,
				0.6282642483711243,
				0.2946760654449463
			],
			"min":[
				-0.5431612133979797,
				-0.019115358591079712,
				0.010097309947013855
			],
			"type":"VEC3"
		},
		{
			"bufferView":12,
			"componentType":5126,
			"count":300,
			"type":"VEC3"
		},
		{
			"bufferView":13,
			"componentType":5126,
			"count":300,
			"type":"VEC2"
		},
		{
			"bufferView":14,
			"componentType":5123,
			"count":618,
			"type":"SCALAR"
		}
	],
	"bufferViews":[
		{
			"buffer":0,
			"byteLength":31712,
			"byteOffset":0,
			"target":34962
		},
		{
			"buffer":0,
			"byteLength":47568,
			"byteOffset":31712,
			"target":34962
		},
		{
			"buffer":0,
			"byteLength":47568,
			"byteOffset":79280,
			"target":34962
		},
		{
			"buffer":0,
			"byteLength":31712,
			"byteOffset":126848,
			"target":34962
		},
		{
			"buffer":0,
			"byteLength":25848,
			"byteOffset":158560,
			"target":34963
		},
		{
			"buffer":0,
			"byteLength":5504,
			"byteOffset":184408,
			"target":34962
		},
		{
			"buffer":0,
			"byteLength":8256,
			"byteOffset":189912,
			"target":34962
		},
		{
			"buffer":0,
			"byteLength":8256,
			"byteOffset":198168,
			"target":34962
		},
		{
			"buffer":0,
			"byteLength":5504,
			"byteOffset":206424,
			"target":34962
		},
		{
			"buffer":0,
			"byteLength":4320,
			"byteOffset":211928,
			"target":34963
		},
		{
			"buffer":0,
			"byteLength":2400,
			"byteOffset":216248,
			"target":34962
		},
		{
			"buffer":0,
			"byteLength":3600,
			"byteOffset":218648,
			"target":34962
		},
		{
			"buffer":0,
			"byteLength":3600,
			"byteOffset":222248,
			"target":34962
		},
		{
			"buffer":0,
			"byteLength":2400,
			"byteOffset":225848,
			"target":34962
		},
		{
			"buffer":0,
			"byteLength":1236,
			"byteOffset":228248,
			"target":34963
		}
	],
	"samplers":[
		{
			"magFilter":9729,
			"minFilter":9987
		}
	],
	"buffers":[
		{
			"byteLength":229484,
			"uri":"Shelf_Small_Bottles.bin"
		}
	]
}
