{
	"asset":{
		"generator":"Khronos glTF Blender I/O v4.0.44",
		"version":"2.0"
	},
	"scene":0,
	"scenes":[
		{
			"name":"Scene",
			"nodes":[
				0
			]
		}
	],
	"nodes":[
		{
			"mesh":0,
			"name":"SmallBottles_1"
		}
	],
	"materials":[
		{
			"doubleSided":true,
			"name":"MI_Trim_Props_Vertex",
			"normalTexture":{
				"index":0
			},
			"pbrMetallicRoughness":{
				"baseColorTexture":{
					"index":1
				},
				"metallicRoughnessTexture":{
					"index":2
				}
			}
		}
	],
	"meshes":[
		{
			"name":"Cube.159",
			"primitives":[
				{
					"attributes":{
						"COLOR_0":0,
						"POSITION":1,
						"NORMAL":2,
						"TEXCOORD_0":3
					},
					"indices":4,
					"material":0
				}
			]
		}
	],
	"textures":[
		{
			"sampler":0,
			"source":0
		},
		{
			"sampler":0,
			"source":1
		},
		{
			"sampler":0,
			"source":2
		}
	],
	"images":[
		{
			"mimeType":"image/png",
			"name":"T_Trim_Props_Normal",
			"uri":"T_Trim_Props_Normal.png"
		},
		{
			"mimeType":"image/png",
			"name":"T_Trim_Props_BaseColor",
			"uri":"T_Trim_Props_BaseColor.png"
		},
		{
			"mimeType":"image/png",
			"name":"T_Trim_Props_ORM",
			"uri":"T_Trim_Props_ORM.png"
		}
	],
	"accessors":[
		{
			"bufferView":0,
			"componentType":5123,
			"count":441,
			"normalized":true,
			"type":"VEC4"
		},
		{
			"bufferView":1,
			"componentType":5126,
			"count":441,
			"max":[
				0.10215996205806732,
				0.146688312292099,
				0.027890579774975777
			],
			"min":[
				-0.11289415508508682,
				0.001300513162277639,
				-0.027890579774975777
			],
			"type":"VEC3"
		},
		{
			"bufferView":2,
			"componentType":5126,
			"count":441,
			"type":"VEC3"
		},
		{
			"bufferView":3,
			"componentType":5126,
			"count":441,
			"type":"VEC2"
		},
		{
			"bufferView":4,
			"componentType":5123,
			"count":1458,
			"type":"SCALAR"
		}
	],
	"bufferViews":[
		{
			"buffer":0,
			"byteLength":3528,
			"byteOffset":0,
			"target":34962
		},
		{
			"buffer":0,
			"byteLength":5292,
			"byteOffset":3528,
			"target":34962
		},
		{
			"buffer":0,
			"byteLength":5292,
			"byteOffset":8820,
			"target":34962
		},
		{
			"buffer":0,
			"byteLength":3528,
			"byteOffset":14112,
			"target":34962
		},
		{
			"buffer":0,
			"byteLength":2916,
			"byteOffset":17640,
			"target":34963
		}
	],
	"samplers":[
		{
			"magFilter":9729,
			"minFilter":9987
		}
	],
	"buffers":[
		{
			"byteLength":20556,
			"uri":"SmallBottles_1.bin"
		}
	]
}
