{
	"asset":{
		"generator":"Khronos glTF Blender I/O v4.0.44",
		"version":"2.0"
	},
	"scene":0,
	"scenes":[
		{
			"name":"Scene",
			"nodes":[
				0
			]
		}
	],
	"nodes":[
		{
			"mesh":0,
			"name":"Stall_Cart_Empty"
		}
	],
	"materials":[
		{
			"doubleSided":true,
			"name":"MI_Trim_Metal",
			"normalTexture":{
				"index":0
			},
			"pbrMetallicRoughness":{
				"baseColorTexture":{
					"index":1
				},
				"metallicRoughnessTexture":{
					"index":2
				}
			}
		},
		{
			"doubleSided":true,
			"name":"MI_Trim_Furniture",
			"normalTexture":{
				"index":3
			},
			"pbrMetallicRoughness":{
				"baseColorTexture":{
					"index":4
				},
				"metallicRoughnessTexture":{
					"index":5
				}
			}
		},
		{
			"doubleSided":true,
			"name":"MI_Banner",
			"normalTexture":{
				"index":6
			},
			"pbrMetallicRoughness":{
				"baseColorTexture":{
					"index":7
				},
				"metallicRoughnessTexture":{
					"index":8
				}
			}
		}
	],
	"meshes":[
		{
			"name":"Cylinder.094",
			"primitives":[
				{
					"attributes":{
						"COLOR_0":0,
						"POSITION":1,
						"NORMAL":2,
						"TEXCOORD_0":3,
						"TEXCOORD_1":4
					},
					"indices":5,
					"material":0
				},
				{
					"attributes":{
						"COLOR_0":6,
						"POSITION":7,
						"NORMAL":8,
						"TEXCOORD_0":9,
						"TEXCOORD_1":10
					},
					"indices":11,
					"material":1
				},
				{
					"attributes":{
						"COLOR_0":12,
						"POSITION":13,
						"NORMAL":14,
						"TEXCOORD_0":15,
						"TEXCOORD_1":16
					},
					"indices":17,
					"material":2
				}
			]
		}
	],
	"textures":[
		{
			"sampler":0,
			"source":0
		},
		{
			"sampler":0,
			"source":1
		},
		{
			"sampler":0,
			"source":2
		},
		{
			"sampler":0,
			"source":3
		},
		{
			"sampler":0,
			"source":4
		},
		{
			"sampler":0,
			"source":5
		},
		{
			"sampler":0,
			"source":6
		},
		{
			"sampler":0,
			"source":7
		},
		{
			"sampler":0,
			"source":8
		}
	],
	"images":[
		{
			"mimeType":"image/png",
			"name":"T_Trim_Metal_Normal",
			"uri":"T_Trim_Metal_Normal.png"
		},
		{
			"mimeType":"image/png",
			"name":"T_Trim_Metal_BaseColor",
			"uri":"T_Trim_Metal_BaseColor.png"
		},
		{
			"mimeType":"image/png",
			"name":"T_Trim_Metal_ORM",
			"uri":"T_Trim_Metal_ORM.png"
		},
		{
			"mimeType":"image/png",
			"name":"T_Trim_Furniture_Normal",
			"uri":"T_Trim_Furniture_Normal.png"
		},
		{
			"mimeType":"image/png",
			"name":"T_Trim_Furniture_BaseColor",
			"uri":"T_Trim_Furniture_BaseColor.png"
		},
		{
			"mimeType":"image/png",
			"name":"T_Trim_Furniture_ORM",
			"uri":"T_Trim_Furniture_ORM.png"
		},
		{
			"mimeType":"image/png",
			"name":"T_Trim_Cloth_Normal",
			"uri":"T_Trim_Cloth_Normal.png"
		},
		{
			"mimeType":"image/png",
			"name":"T_Trim_Cloth_BaseColor",
			"uri":"T_Trim_Cloth_BaseColor.png"
		},
		{
			"mimeType":"image/png",
			"name":"T_Trim_Cloth_ORM",
			"uri":"T_Trim_Cloth_ORM.png"
		}
	],
	"accessors":[
		{
			"bufferView":0,
			"componentType":5123,
			"count":2130,
			"normalized":true,
			"type":"VEC4"
		},
		{
			"bufferView":1,
			"componentType":5126,
			"count":2130,
			"max":[
				0.9137552380561829,
				1.9630831480026245,
				0.5298508405685425
			],
			"min":[
				-0.9137551784515381,
				-0.0038988939486443996,
				-0.5298508405685425
			],
			"type":"VEC3"
		},
		{
			"bufferView":2,
			"componentType":5126,
			"count":2130,
			"type":"VEC3"
		},
		{
			"bufferView":3,
			"componentType":5126,
			"count":2130,
			"type":"VEC2"
		},
		{
			"bufferView":4,
			"componentType":5126,
			"count":2130,
			"type":"VEC2"
		},
		{
			"bufferView":5,
			"componentType":5123,
			"count":6654,
			"type":"SCALAR"
		},
		{
			"bufferView":6,
			"componentType":5123,
			"count":1968,
			"normalized":true,
			"type":"VEC4"
		},
		{
			"bufferView":7,
			"componentType":5126,
			"count":1968,
			"max":[
				0.9089454412460327,
				2.572237730026245,
				0.5095540285110474
			],
			"min":[
				-2.1067893505096436,
				-0.0020536466035991907,
				-0.5095540285110474
			],
			"type":"VEC3"
		},
		{
			"bufferView":8,
			"componentType":5126,
			"count":1968,
			"type":"VEC3"
		},
		{
			"bufferView":9,
			"componentType":5126,
			"count":1968,
			"type":"VEC2"
		},
		{
			"bufferView":10,
			"componentType":5126,
			"count":1968,
			"type":"VEC2"
		},
		{
			"bufferView":11,
			"componentType":5123,
			"count":3882,
			"type":"SCALAR"
		},
		{
			"bufferView":12,
			"componentType":5123,
			"count":353,
			"normalized":true,
			"type":"VEC4"
		},
		{
			"bufferView":13,
			"componentType":5126,
			"count":353,
			"max":[
				0.9083468317985535,
				2.627926826477051,
				0.47836676239967346
			],
			"min":[
				-0.908346951007843,
				1.796966314315796,
				-0.46071121096611023
			],
			"type":"VEC3"
		},
		{
			"bufferView":14,
			"componentType":5126,
			"count":353,
			"type":"VEC3"
		},
		{
			"bufferView":15,
			"componentType":5126,
			"count":353,
			"type":"VEC2"
		},
		{
			"bufferView":16,
			"componentType":5126,
			"count":353,
			"type":"VEC2"
		},
		{
			"bufferView":17,
			"componentType":5123,
			"count":1272,
			"type":"SCALAR"
		}
	],
	"bufferViews":[
		{
			"buffer":0,
			"byteLength":17040,
			"byteOffset":0,
			"target":34962
		},
		{
			"buffer":0,
			"byteLength":25560,
			"byteOffset":17040,
			"target":34962
		},
		{
			"buffer":0,
			"byteLength":25560,
			"byteOffset":42600,
			"target":34962
		},
		{
			"buffer":0,
			"byteLength":17040,
			"byteOffset":68160,
			"target":34962
		},
		{
			"buffer":0,
			"byteLength":17040,
			"byteOffset":85200,
			"target":34962
		},
		{
			"buffer":0,
			"byteLength":13308,
			"byteOffset":102240,
			"target":34963
		},
		{
			"buffer":0,
			"byteLength":15744,
			"byteOffset":115548,
			"target":34962
		},
		{
			"buffer":0,
			"byteLength":23616,
			"byteOffset":131292,
			"target":34962
		},
		{
			"buffer":0,
			"byteLength":23616,
			"byteOffset":154908,
			"target":34962
		},
		{
			"buffer":0,
			"byteLength":15744,
			"byteOffset":178524,
			"target":34962
		},
		{
			"buffer":0,
			"byteLength":15744,
			"byteOffset":194268,
			"target":34962
		},
		{
			"buffer":0,
			"byteLength":7764,
			"byteOffset":210012,
			"target":34963
		},
		{
			"buffer":0,
			"byteLength":2824,
			"byteOffset":217776,
			"target":34962
		},
		{
			"buffer":0,
			"byteLength":4236,
			"byteOffset":220600,
			"target":34962
		},
		{
			"buffer":0,
			"byteLength":4236,
			"byteOffset":224836,
			"target":34962
		},
		{
			"buffer":0,
			"byteLength":2824,
			"byteOffset":229072,
			"target":34962
		},
		{
			"buffer":0,
			"byteLength":2824,
			"byteOffset":231896,
			"target":34962
		},
		{
			"buffer":0,
			"byteLength":2544,
			"byteOffset":234720,
			"target":34963
		}
	],
	"samplers":[
		{
			"magFilter":9729,
			"minFilter":9987
		}
	],
	"buffers":[
		{
			"byteLength":237264,
			"uri":"Stall_Cart_Empty.bin"
		}
	]
}
