{
	"asset":{
		"generator":"Khronos glTF Blender I/O v4.0.44",
		"version":"2.0"
	},
	"scene":0,
	"scenes":[
		{
			"name":"Scene",
			"nodes":[
				0
			]
		}
	],
	"nodes":[
		{
			"mesh":0,
			"name":"Stall_Empty"
		}
	],
	"materials":[
		{
			"doubleSided":true,
			"name":"MI_Trim_Metal",
			"normalTexture":{
				"index":0
			},
			"pbrMetallicRoughness":{
				"baseColorTexture":{
					"index":1
				},
				"metallicRoughnessTexture":{
					"index":2
				}
			}
		},
		{
			"doubleSided":true,
			"name":"MI_Trim_Furniture",
			"normalTexture":{
				"index":3
			},
			"pbrMetallicRoughness":{
				"baseColorTexture":{
					"index":4
				},
				"metallicRoughnessTexture":{
					"index":5
				}
			}
		},
		{
			"doubleSided":true,
			"name":"MI_Banner",
			"normalTexture":{
				"index":6
			},
			"pbrMetallicRoughness":{
				"baseColorTexture":{
					"index":7
				},
				"metallicRoughnessTexture":{
					"index":8
				}
			}
		}
	],
	"meshes":[
		{
			"name":"Cube.212",
			"primitives":[
				{
					"attributes":{
						"COLOR_0":0,
						"POSITION":1,
						"NORMAL":2,
						"TEXCOORD_0":3,
						"TEXCOORD_1":4
					},
					"indices":5,
					"material":0
				},
				{
					"attributes":{
						"COLOR_0":6,
						"POSITION":7,
						"NORMAL":8,
						"TEXCOORD_0":9,
						"TEXCOORD_1":10
					},
					"indices":11,
					"material":1
				},
				{
					"attributes":{
						"COLOR_0":12,
						"POSITION":13,
						"NORMAL":14,
						"TEXCOORD_0":15,
						"TEXCOORD_1":16
					},
					"indices":17,
					"material":2
				}
			]
		}
	],
	"textures":[
		{
			"sampler":0,
			"source":0
		},
		{
			"sampler":0,
			"source":1
		},
		{
			"sampler":0,
			"source":2
		},
		{
			"sampler":0,
			"source":3
		},
		{
			"sampler":0,
			"source":4
		},
		{
			"sampler":0,
			"source":5
		},
		{
			"sampler":0,
			"source":6
		},
		{
			"sampler":0,
			"source":7
		},
		{
			"sampler":0,
			"source":8
		}
	],
	"images":[
		{
			"mimeType":"image/png",
			"name":"T_Trim_Metal_Normal",
			"uri":"T_Trim_Metal_Normal.png"
		},
		{
			"mimeType":"image/png",
			"name":"T_Trim_Metal_BaseColor",
			"uri":"T_Trim_Metal_BaseColor.png"
		},
		{
			"mimeType":"image/png",
			"name":"T_Trim_Metal_ORM",
			"uri":"T_Trim_Metal_ORM.png"
		},
		{
			"mimeType":"image/png",
			"name":"T_Trim_Furniture_Normal",
			"uri":"T_Trim_Furniture_Normal.png"
		},
		{
			"mimeType":"image/png",
			"name":"T_Trim_Furniture_BaseColor",
			"uri":"T_Trim_Furniture_BaseColor.png"
		},
		{
			"mimeType":"image/png",
			"name":"T_Trim_Furniture_ORM",
			"uri":"T_Trim_Furniture_ORM.png"
		},
		{
			"mimeType":"image/png",
			"name":"T_Trim_Cloth_Normal",
			"uri":"T_Trim_Cloth_Normal.png"
		},
		{
			"mimeType":"image/png",
			"name":"T_Trim_Cloth_BaseColor",
			"uri":"T_Trim_Cloth_BaseColor.png"
		},
		{
			"mimeType":"image/png",
			"name":"T_Trim_Cloth_ORM",
			"uri":"T_Trim_Cloth_ORM.png"
		}
	],
	"accessors":[
		{
			"bufferView":0,
			"componentType":5123,
			"count":536,
			"normalized":true,
			"type":"VEC4"
		},
		{
			"bufferView":1,
			"componentType":5126,
			"count":536,
			"max":[
				0.9224295020103455,
				0.8559355139732361,
				0.4060481786727905
			],
			"min":[
				-0.9224295020103455,
				0.2437753826379776,
				-0.41325682401657104
			],
			"type":"VEC3"
		},
		{
			"bufferView":2,
			"componentType":5126,
			"count":536,
			"type":"VEC3"
		},
		{
			"bufferView":3,
			"componentType":5126,
			"count":536,
			"type":"VEC2"
		},
		{
			"bufferView":4,
			"componentType":5126,
			"count":536,
			"type":"VEC2"
		},
		{
			"bufferView":5,
			"componentType":5123,
			"count":1632,
			"type":"SCALAR"
		},
		{
			"bufferView":6,
			"componentType":5123,
			"count":576,
			"normalized":true,
			"type":"VEC4"
		},
		{
			"bufferView":7,
			"componentType":5126,
			"count":576,
			"max":[
				0.9138581156730652,
				2.572237730026245,
				0.4367961883544922
			],
			"min":[
				-0.9138581156730652,
				-0.0048178937286138535,
				-0.4360024333000183
			],
			"type":"VEC3"
		},
		{
			"bufferView":8,
			"componentType":5126,
			"count":576,
			"type":"VEC3"
		},
		{
			"bufferView":9,
			"componentType":5126,
			"count":576,
			"type":"VEC2"
		},
		{
			"bufferView":10,
			"componentType":5126,
			"count":576,
			"type":"VEC2"
		},
		{
			"bufferView":11,
			"componentType":5123,
			"count":924,
			"type":"SCALAR"
		},
		{
			"bufferView":12,
			"componentType":5123,
			"count":538,
			"normalized":true,
			"type":"VEC4"
		},
		{
			"bufferView":13,
			"componentType":5126,
			"count":538,
			"max":[
				0.9121408462524414,
				2.6223647594451904,
				0.47154372930526733
			],
			"min":[
				-0.9121408462524414,
				0.975335419178009,
				-0.4607115387916565
			],
			"type":"VEC3"
		},
		{
			"bufferView":14,
			"componentType":5126,
			"count":538,
			"type":"VEC3"
		},
		{
			"bufferView":15,
			"componentType":5126,
			"count":538,
			"type":"VEC2"
		},
		{
			"bufferView":16,
			"componentType":5126,
			"count":538,
			"type":"VEC2"
		},
		{
			"bufferView":17,
			"componentType":5123,
			"count":1932,
			"type":"SCALAR"
		}
	],
	"bufferViews":[
		{
			"buffer":0,
			"byteLength":4288,
			"byteOffset":0,
			"target":34962
		},
		{
			"buffer":0,
			"byteLength":6432,
			"byteOffset":4288,
			"target":34962
		},
		{
			"buffer":0,
			"byteLength":6432,
			"byteOffset":10720,
			"target":34962
		},
		{
			"buffer":0,
			"byteLength":4288,
			"byteOffset":17152,
			"target":34962
		},
		{
			"buffer":0,
			"byteLength":4288,
			"byteOffset":21440,
			"target":34962
		},
		{
			"buffer":0,
			"byteLength":3264,
			"byteOffset":25728,
			"target":34963
		},
		{
			"buffer":0,
			"byteLength":4608,
			"byteOffset":28992,
			"target":34962
		},
		{
			"buffer":0,
			"byteLength":6912,
			"byteOffset":33600,
			"target":34962
		},
		{
			"buffer":0,
			"byteLength":6912,
			"byteOffset":40512,
			"target":34962
		},
		{
			"buffer":0,
			"byteLength":4608,
			"byteOffset":47424,
			"target":34962
		},
		{
			"buffer":0,
			"byteLength":4608,
			"byteOffset":52032,
			"target":34962
		},
		{
			"buffer":0,
			"byteLength":1848,
			"byteOffset":56640,
			"target":34963
		},
		{
			"buffer":0,
			"byteLength":4304,
			"byteOffset":58488,
			"target":34962
		},
		{
			"buffer":0,
			"byteLength":6456,
			"byteOffset":62792,
			"target":34962
		},
		{
			"buffer":0,
			"byteLength":6456,
			"byteOffset":69248,
			"target":34962
		},
		{
			"buffer":0,
			"byteLength":4304,
			"byteOffset":75704,
			"target":34962
		},
		{
			"buffer":0,
			"byteLength":4304,
			"byteOffset":80008,
			"target":34962
		},
		{
			"buffer":0,
			"byteLength":3864,
			"byteOffset":84312,
			"target":34963
		}
	],
	"samplers":[
		{
			"magFilter":9729,
			"minFilter":9987
		}
	],
	"buffers":[
		{
			"byteLength":88176,
			"uri":"Stall_Empty.bin"
		}
	]
}
