{
	"asset":{
		"generator":"Khronos glTF Blender I/O v4.0.44",
		"version":"2.0"
	},
	"scene":0,
	"scenes":[
		{
			"name":"Scene",
			"nodes":[
				0
			]
		}
	],
	"nodes":[
		{
			"mesh":0,
			"name":"Sword_Bronze"
		}
	],
	"materials":[
		{
			"doubleSided":true,
			"name":"MI_Trim_Props_Vertex",
			"normalTexture":{
				"index":0
			},
			"pbrMetallicRoughness":{
				"baseColorTexture":{
					"index":1
				},
				"metallicRoughnessTexture":{
					"index":2
				}
			}
		}
	],
	"meshes":[
		{
			"name":"meshId0_name.001",
			"primitives":[
				{
					"attributes":{
						"COLOR_0":0,
						"POSITION":1,
						"NORMAL":2,
						"TEXCOORD_0":3
					},
					"indices":4,
					"material":0
				}
			]
		}
	],
	"textures":[
		{
			"sampler":0,
			"source":0
		},
		{
			"sampler":0,
			"source":1
		},
		{
			"sampler":0,
			"source":2
		}
	],
	"images":[
		{
			"mimeType":"image/png",
			"name":"T_Trim_Props_Normal",
			"uri":"T_Trim_Props_Normal.png"
		},
		{
			"mimeType":"image/png",
			"name":"T_Trim_Props_BaseColor",
			"uri":"T_Trim_Props_BaseColor.png"
		},
		{
			"mimeType":"image/png",
			"name":"T_Trim_Props_ORM",
			"uri":"T_Trim_Props_ORM.png"
		}
	],
	"accessors":[
		{
			"bufferView":0,
			"componentType":5123,
			"count":1517,
			"normalized":true,
			"type":"VEC4"
		},
		{
			"bufferView":1,
			"componentType":5126,
			"count":1517,
			"max":[
				0.1332807093858719,
				0.9240942597389221,
				0.032698988914489746
			],
			"min":[
				-0.1332807093858719,
				-0.20807738602161407,
				-0.032698988914489746
			],
			"type":"VEC3"
		},
		{
			"bufferView":2,
			"componentType":5126,
			"count":1517,
			"type":"VEC3"
		},
		{
			"bufferView":3,
			"componentType":5126,
			"count":1517,
			"type":"VEC2"
		},
		{
			"bufferView":4,
			"componentType":5123,
			"count":4620,
			"type":"SCALAR"
		}
	],
	"bufferViews":[
		{
			"buffer":0,
			"byteLength":12136,
			"byteOffset":0,
			"target":34962
		},
		{
			"buffer":0,
			"byteLength":18204,
			"byteOffset":12136,
			"target":34962
		},
		{
			"buffer":0,
			"byteLength":18204,
			"byteOffset":30340,
			"target":34962
		},
		{
			"buffer":0,
			"byteLength":12136,
			"byteOffset":48544,
			"target":34962
		},
		{
			"buffer":0,
			"byteLength":9240,
			"byteOffset":60680,
			"target":34963
		}
	],
	"samplers":[
		{
			"magFilter":9729,
			"minFilter":9987
		}
	],
	"buffers":[
		{
			"byteLength":69920,
			"uri":"Sword_Bronze.bin"
		}
	]
}
