{
	"asset":{
		"generator":"Khronos glTF Blender I/O v4.0.44",
		"version":"2.0"
	},
	"scene":0,
	"scenes":[
		{
			"name":"Scene",
			"nodes":[
				0
			]
		}
	],
	"nodes":[
		{
			"mesh":0,
			"name":"Table_Large"
		}
	],
	"materials":[
		{
			"doubleSided":true,
			"name":"MI_Trim_Furniture",
			"normalTexture":{
				"index":0
			},
			"pbrMetallicRoughness":{
				"baseColorTexture":{
					"index":1
				},
				"metallicRoughnessTexture":{
					"index":2
				}
			}
		},
		{
			"doubleSided":true,
			"name":"MI_Trim_Metal",
			"normalTexture":{
				"index":3
			},
			"pbrMetallicRoughness":{
				"baseColorTexture":{
					"index":4
				},
				"metallicRoughnessTexture":{
					"index":5
				}
			}
		}
	],
	"meshes":[
		{
			"name":"Cube.084",
			"primitives":[
				{
					"attributes":{
						"COLOR_0":0,
						"POSITION":1,
						"NORMAL":2,
						"TEXCOORD_0":3
					},
					"indices":4,
					"material":0
				},
				{
					"attributes":{
						"COLOR_0":5,
						"POSITION":6,
						"NORMAL":7,
						"TEXCOORD_0":8
					},
					"indices":9,
					"material":1
				}
			]
		}
	],
	"textures":[
		{
			"sampler":0,
			"source":0
		},
		{
			"sampler":0,
			"source":1
		},
		{
			"sampler":0,
			"source":2
		},
		{
			"sampler":0,
			"source":3
		},
		{
			"sampler":0,
			"source":4
		},
		{
			"sampler":0,
			"source":5
		}
	],
	"images":[
		{
			"mimeType":"image/png",
			"name":"T_Trim_Furniture_Normal",
			"uri":"T_Trim_Furniture_Normal.png"
		},
		{
			"mimeType":"image/png",
			"name":"T_Trim_Furniture_BaseColor",
			"uri":"T_Trim_Furniture_BaseColor.png"
		},
		{
			"mimeType":"image/png",
			"name":"T_Trim_Furniture_ORM",
			"uri":"T_Trim_Furniture_ORM.png"
		},
		{
			"mimeType":"image/png",
			"name":"T_Trim_Metal_Normal",
			"uri":"T_Trim_Metal_Normal.png"
		},
		{
			"mimeType":"image/png",
			"name":"T_Trim_Metal_BaseColor",
			"uri":"T_Trim_Metal_BaseColor.png"
		},
		{
			"mimeType":"image/png",
			"name":"T_Trim_Metal_ORM",
			"uri":"T_Trim_Metal_ORM.png"
		}
	],
	"accessors":[
		{
			"bufferView":0,
			"componentType":5123,
			"count":1190,
			"normalized":true,
			"type":"VEC4"
		},
		{
			"bufferView":1,
			"componentType":5126,
			"count":1190,
			"max":[
				1.4242464303970337,
				0.8128094673156738,
				0.5461863279342651
			],
			"min":[
				-1.4242464303970337,
				0.001262865960597992,
				-0.5419855713844299
			],
			"type":"VEC3"
		},
		{
			"bufferView":2,
			"componentType":5126,
			"count":1190,
			"type":"VEC3"
		},
		{
			"bufferView":3,
			"componentType":5126,
			"count":1190,
			"type":"VEC2"
		},
		{
			"bufferView":4,
			"componentType":5123,
			"count":2838,
			"type":"SCALAR"
		},
		{
			"bufferView":5,
			"componentType":5123,
			"count":72,
			"normalized":true,
			"type":"VEC4"
		},
		{
			"bufferView":6,
			"componentType":5126,
			"count":72,
			"max":[
				1.0883933305740356,
				0.8147094249725342,
				0.5546767711639404
			],
			"min":[
				-1.0883933305740356,
				0.7352322936058044,
				-0.5394105315208435
			],
			"type":"VEC3"
		},
		{
			"bufferView":7,
			"componentType":5126,
			"count":72,
			"type":"VEC3"
		},
		{
			"bufferView":8,
			"componentType":5126,
			"count":72,
			"type":"VEC2"
		},
		{
			"bufferView":9,
			"componentType":5123,
			"count":120,
			"type":"SCALAR"
		}
	],
	"bufferViews":[
		{
			"buffer":0,
			"byteLength":9520,
			"byteOffset":0,
			"target":34962
		},
		{
			"buffer":0,
			"byteLength":14280,
			"byteOffset":9520,
			"target":34962
		},
		{
			"buffer":0,
			"byteLength":14280,
			"byteOffset":23800,
			"target":34962
		},
		{
			"buffer":0,
			"byteLength":9520,
			"byteOffset":38080,
			"target":34962
		},
		{
			"buffer":0,
			"byteLength":5676,
			"byteOffset":47600,
			"target":34963
		},
		{
			"buffer":0,
			"byteLength":576,
			"byteOffset":53276,
			"target":34962
		},
		{
			"buffer":0,
			"byteLength":864,
			"byteOffset":53852,
			"target":34962
		},
		{
			"buffer":0,
			"byteLength":864,
			"byteOffset":54716,
			"target":34962
		},
		{
			"buffer":0,
			"byteLength":576,
			"byteOffset":55580,
			"target":34962
		},
		{
			"buffer":0,
			"byteLength":240,
			"byteOffset":56156,
			"target":34963
		}
	],
	"samplers":[
		{
			"magFilter":9729,
			"minFilter":9987
		}
	],
	"buffers":[
		{
			"byteLength":56396,
			"uri":"Table_Large.bin"
		}
	]
}
