{
	"asset":{
		"generator":"Khronos glTF Blender I/O v4.0.44",
		"version":"2.0"
	},
	"scene":0,
	"scenes":[
		{
			"name":"Scene",
			"nodes":[
				0
			]
		}
	],
	"nodes":[
		{
			"mesh":0,
			"name":"Vase_4"
		}
	],
	"materials":[
		{
			"doubleSided":true,
			"name":"MI_Trim_Props_Vertex",
			"normalTexture":{
				"index":0
			},
			"pbrMetallicRoughness":{
				"baseColorTexture":{
					"index":1
				},
				"metallicRoughnessTexture":{
					"index":2
				}
			}
		}
	],
	"meshes":[
		{
			"name":"Cylinder.055",
			"primitives":[
				{
					"attributes":{
						"COLOR_0":0,
						"POSITION":1,
						"NORMAL":2,
						"TEXCOORD_0":3
					},
					"indices":4,
					"material":0
				}
			]
		}
	],
	"textures":[
		{
			"sampler":0,
			"source":0
		},
		{
			"sampler":0,
			"source":1
		},
		{
			"sampler":0,
			"source":2
		}
	],
	"images":[
		{
			"mimeType":"image/png",
			"name":"T_Trim_Props_Normal",
			"uri":"T_Trim_Props_Normal.png"
		},
		{
			"mimeType":"image/png",
			"name":"T_Trim_Props_BaseColor",
			"uri":"T_Trim_Props_BaseColor.png"
		},
		{
			"mimeType":"image/png",
			"name":"T_Trim_Props_ORM",
			"uri":"T_Trim_Props_ORM.png"
		}
	],
	"accessors":[
		{
			"bufferView":0,
			"componentType":5123,
			"count":461,
			"normalized":true,
			"type":"VEC4"
		},
		{
			"bufferView":1,
			"componentType":5126,
			"count":461,
			"max":[
				0.17981727421283722,
				0.48624053597450256,
				0.17981727421283722
			],
			"min":[
				-0.17981727421283722,
				0.0007824180647730827,
				-0.17981727421283722
			],
			"type":"VEC3"
		},
		{
			"bufferView":2,
			"componentType":5126,
			"count":461,
			"type":"VEC3"
		},
		{
			"bufferView":3,
			"componentType":5126,
			"count":461,
			"type":"VEC2"
		},
		{
			"bufferView":4,
			"componentType":5123,
			"count":1794,
			"type":"SCALAR"
		}
	],
	"bufferViews":[
		{
			"buffer":0,
			"byteLength":3688,
			"byteOffset":0,
			"target":34962
		},
		{
			"buffer":0,
			"byteLength":5532,
			"byteOffset":3688,
			"target":34962
		},
		{
			"buffer":0,
			"byteLength":5532,
			"byteOffset":9220,
			"target":34962
		},
		{
			"buffer":0,
			"byteLength":3688,
			"byteOffset":14752,
			"target":34962
		},
		{
			"buffer":0,
			"byteLength":3588,
			"byteOffset":18440,
			"target":34963
		}
	],
	"samplers":[
		{
			"magFilter":9729,
			"minFilter":9987
		}
	],
	"buffers":[
		{
			"byteLength":22028,
			"uri":"Vase_4.bin"
		}
	]
}
