{
	"asset":{
		"generator":"Khronos glTF Blender I/O v4.0.44",
		"version":"2.0"
	},
	"scene":0,
	"scenes":[
		{
			"name":"Scene",
			"nodes":[
				0
			]
		}
	],
	"nodes":[
		{
			"mesh":0,
			"name":"Vase_Rubble_Medium"
		}
	],
	"materials":[
		{
			"doubleSided":true,
			"name":"MI_Trim_Props_Vertex",
			"normalTexture":{
				"index":0
			},
			"pbrMetallicRoughness":{
				"baseColorTexture":{
					"index":1
				},
				"metallicRoughnessTexture":{
					"index":2
				}
			}
		}
	],
	"meshes":[
		{
			"name":"Vase_1.001_cell.099",
			"primitives":[
				{
					"attributes":{
						"COLOR_0":0,
						"POSITION":1,
						"NORMAL":2,
						"TEXCOORD_0":3
					},
					"indices":4,
					"material":0
				}
			]
		}
	],
	"textures":[
		{
			"sampler":0,
			"source":0
		},
		{
			"sampler":0,
			"source":1
		},
		{
			"sampler":0,
			"source":2
		}
	],
	"images":[
		{
			"mimeType":"image/png",
			"name":"T_Trim_Props_Normal",
			"uri":"T_Trim_Props_Normal.png"
		},
		{
			"mimeType":"image/png",
			"name":"T_Trim_Props_BaseColor",
			"uri":"T_Trim_Props_BaseColor.png"
		},
		{
			"mimeType":"image/png",
			"name":"T_Trim_Props_ORM",
			"uri":"T_Trim_Props_ORM.png"
		}
	],
	"accessors":[
		{
			"bufferView":0,
			"componentType":5123,
			"count":1982,
			"normalized":true,
			"type":"VEC4"
		},
		{
			"bufferView":1,
			"componentType":5126,
			"count":1982,
			"max":[
				0.41731083393096924,
				0.17781302332878113,
				0.32047608494758606
			],
			"min":[
				-0.37963709235191345,
				0.0031880736351013184,
				-0.27796468138694763
			],
			"type":"VEC3"
		},
		{
			"bufferView":2,
			"componentType":5126,
			"count":1982,
			"type":"VEC3"
		},
		{
			"bufferView":3,
			"componentType":5126,
			"count":1982,
			"type":"VEC2"
		},
		{
			"bufferView":4,
			"componentType":5123,
			"count":3339,
			"type":"SCALAR"
		}
	],
	"bufferViews":[
		{
			"buffer":0,
			"byteLength":15856,
			"byteOffset":0,
			"target":34962
		},
		{
			"buffer":0,
			"byteLength":23784,
			"byteOffset":15856,
			"target":34962
		},
		{
			"buffer":0,
			"byteLength":23784,
			"byteOffset":39640,
			"target":34962
		},
		{
			"buffer":0,
			"byteLength":15856,
			"byteOffset":63424,
			"target":34962
		},
		{
			"buffer":0,
			"byteLength":6678,
			"byteOffset":79280,
			"target":34963
		}
	],
	"samplers":[
		{
			"magFilter":9729,
			"minFilter":9987
		}
	],
	"buffers":[
		{
			"byteLength":85960,
			"uri":"Vase_Rubble_Medium.bin"
		}
	]
}
