{
	"asset":{
		"generator":"Khronos glTF Blender I/O v4.0.44",
		"version":"2.0"
	},
	"scene":0,
	"scenes":[
		{
			"name":"Scene",
			"nodes":[
				0
			]
		}
	],
	"nodes":[
		{
			"mesh":0,
			"name":"Workbench"
		}
	],
	"materials":[
		{
			"doubleSided":true,
			"name":"MI_Trim_Furniture",
			"normalTexture":{
				"index":0
			},
			"pbrMetallicRoughness":{
				"baseColorTexture":{
					"index":1
				},
				"metallicRoughnessTexture":{
					"index":2
				}
			}
		},
		{
			"doubleSided":true,
			"name":"MI_Trim_Metal",
			"normalTexture":{
				"index":3
			},
			"pbrMetallicRoughness":{
				"baseColorTexture":{
					"index":4
				},
				"metallicRoughnessTexture":{
					"index":5
				}
			}
		}
	],
	"meshes":[
		{
			"name":"Cube.163",
			"primitives":[
				{
					"attributes":{
						"COLOR_0":0,
						"POSITION":1,
						"NORMAL":2,
						"TEXCOORD_0":3
					},
					"indices":4,
					"material":0
				},
				{
					"attributes":{
						"COLOR_0":5,
						"POSITION":6,
						"NORMAL":7,
						"TEXCOORD_0":8
					},
					"indices":9,
					"material":1
				}
			]
		}
	],
	"textures":[
		{
			"sampler":0,
			"source":0
		},
		{
			"sampler":0,
			"source":1
		},
		{
			"sampler":0,
			"source":2
		},
		{
			"sampler":0,
			"source":3
		},
		{
			"sampler":0,
			"source":4
		},
		{
			"sampler":0,
			"source":5
		}
	],
	"images":[
		{
			"mimeType":"image/png",
			"name":"T_Trim_Furniture_Normal",
			"uri":"T_Trim_Furniture_Normal.png"
		},
		{
			"mimeType":"image/png",
			"name":"T_Trim_Furniture_BaseColor",
			"uri":"T_Trim_Furniture_BaseColor.png"
		},
		{
			"mimeType":"image/png",
			"name":"T_Trim_Furniture_ORM",
			"uri":"T_Trim_Furniture_ORM.png"
		},
		{
			"mimeType":"image/png",
			"name":"T_Trim_Metal_Normal",
			"uri":"T_Trim_Metal_Normal.png"
		},
		{
			"mimeType":"image/png",
			"name":"T_Trim_Metal_BaseColor",
			"uri":"T_Trim_Metal_BaseColor.png"
		},
		{
			"mimeType":"image/png",
			"name":"T_Trim_Metal_ORM",
			"uri":"T_Trim_Metal_ORM.png"
		}
	],
	"accessors":[
		{
			"bufferView":0,
			"componentType":5123,
			"count":328,
			"normalized":true,
			"type":"VEC4"
		},
		{
			"bufferView":1,
			"componentType":5126,
			"count":328,
			"max":[
				1.0000001192092896,
				0.8841615319252014,
				0.5000000596046448
			],
			"min":[
				-0.9999998807907104,
				0.00017460077651776373,
				-0.5147912502288818
			],
			"type":"VEC3"
		},
		{
			"bufferView":2,
			"componentType":5126,
			"count":328,
			"type":"VEC3"
		},
		{
			"bufferView":3,
			"componentType":5126,
			"count":328,
			"type":"VEC2"
		},
		{
			"bufferView":4,
			"componentType":5123,
			"count":492,
			"type":"SCALAR"
		},
		{
			"bufferView":5,
			"componentType":5123,
			"count":1052,
			"normalized":true,
			"type":"VEC4"
		},
		{
			"bufferView":6,
			"componentType":5126,
			"count":1052,
			"max":[
				1.009548544883728,
				0.8948198556900024,
				0.5094448328018188
			],
			"min":[
				-1.009548306465149,
				0.7676677703857422,
				-0.509847104549408
			],
			"type":"VEC3"
		},
		{
			"bufferView":7,
			"componentType":5126,
			"count":1052,
			"type":"VEC3"
		},
		{
			"bufferView":8,
			"componentType":5126,
			"count":1052,
			"type":"VEC2"
		},
		{
			"bufferView":9,
			"componentType":5123,
			"count":3612,
			"type":"SCALAR"
		}
	],
	"bufferViews":[
		{
			"buffer":0,
			"byteLength":2624,
			"byteOffset":0,
			"target":34962
		},
		{
			"buffer":0,
			"byteLength":3936,
			"byteOffset":2624,
			"target":34962
		},
		{
			"buffer":0,
			"byteLength":3936,
			"byteOffset":6560,
			"target":34962
		},
		{
			"buffer":0,
			"byteLength":2624,
			"byteOffset":10496,
			"target":34962
		},
		{
			"buffer":0,
			"byteLength":984,
			"byteOffset":13120,
			"target":34963
		},
		{
			"buffer":0,
			"byteLength":8416,
			"byteOffset":14104,
			"target":34962
		},
		{
			"buffer":0,
			"byteLength":12624,
			"byteOffset":22520,
			"target":34962
		},
		{
			"buffer":0,
			"byteLength":12624,
			"byteOffset":35144,
			"target":34962
		},
		{
			"buffer":0,
			"byteLength":8416,
			"byteOffset":47768,
			"target":34962
		},
		{
			"buffer":0,
			"byteLength":7224,
			"byteOffset":56184,
			"target":34963
		}
	],
	"samplers":[
		{
			"magFilter":9729,
			"minFilter":9987
		}
	],
	"buffers":[
		{
			"byteLength":63408,
			"uri":"Workbench.bin"
		}
	]
}
